<svg width="165" height="36" viewBox="0 0 165 36" fill="none" xmlns="http://www.w3.org/2000/svg">
<g clip-path="url(#clip0_2002_11166)">
<path d="M149.934 18.5151C151.896 18.5151 153.487 16.9547 153.487 15.0299C153.487 13.105 151.896 11.5447 149.934 11.5447C147.972 11.5447 146.381 13.105 146.381 15.0299C146.381 16.9547 147.972 18.5151 149.934 18.5151Z" fill="#F9CF70"/>
<path d="M164.357 10.746C164.265 10.4375 164.158 10.1289 164.038 9.81575C163.501 8.38628 162.752 7.02941 161.799 5.82231C159.454 2.8363 155.924 0.762429 152.136 0.14526C150.771 -0.0771019 149.3 -0.0997919 148.093 0.549143C147.085 1.08917 146.344 2.0966 146.173 3.21295C146.002 4.3293 146.423 5.5228 147.283 6.26703C148.579 7.39246 150.434 7.36977 152.029 7.74642C153.838 8.17299 155.411 9.36649 156.401 10.9094C156.979 11.8079 157.349 12.8335 157.497 13.8863C157.687 15.2114 157.525 16.5865 157.002 17.8253C155.332 21.7643 150.452 23.5841 146.548 21.7053C144.67 20.8023 143.153 19.1096 142.551 17.1356C142.459 16.836 142.389 16.532 142.343 16.2189C141.987 13.8954 141.575 11.336 138.518 11.3088C136.621 11.2906 134.933 12.6928 134.794 14.4445C134.498 18.2201 136.168 21.7371 138.476 24.6596C141.302 28.2401 144.531 31.6163 147.63 34.9654C148.995 36.4402 151.095 36.2995 152.409 34.7748C158.45 27.7636 167.498 20.9202 164.362 10.7415L164.357 10.746Z" fill="#F9CF70"/>
<path d="M164.357 10.746C164.265 10.4375 164.158 10.1289 164.038 9.81575C163.501 8.38628 162.752 7.02941 161.799 5.82231C159.454 2.8363 155.924 0.762429 152.136 0.14526C150.771 -0.0771019 149.3 -0.0997919 148.093 0.549143C147.085 1.08917 146.345 2.0966 146.173 3.21295C146.002 4.3293 146.423 5.5228 147.284 6.26703C148.579 7.39246 150.434 7.36977 152.03 7.74642C153.838 8.17299 155.411 9.36649 156.401 10.9094C156.979 11.8079 157.349 12.8335 157.497 13.8863C157.687 15.2114 157.525 16.5865 157.002 17.8253C155.332 21.7643 150.452 23.5841 146.548 21.7053C144.67 20.8023 143.153 19.1096 142.551 17.1356C142.459 16.836 142.389 16.532 142.343 16.2189C141.987 13.8954 141.575 11.336 138.518 11.3088C136.621 11.2906 134.933 12.6928 134.794 14.4445C134.498 18.2201 136.168 21.7371 138.476 24.6596C141.302 28.2401 144.531 31.6163 147.63 34.9654C148.995 36.4402 151.095 36.2995 152.409 34.7748C158.45 27.7636 167.498 20.9202 164.362 10.7415L164.357 10.746Z" fill="#F9CF70"/>
<path d="M140.484 7.07474L139.175 6.40766C138.952 6.29421 138.689 6.28059 138.458 6.37589L137.088 6.91591C136.325 7.21996 135.59 6.42581 135.969 5.7088L136.649 4.42455C136.764 4.20672 136.778 3.94806 136.681 3.72116L136.131 2.37791C135.821 1.62914 136.63 0.907593 137.361 1.27971L138.67 1.9468C138.892 2.06025 139.156 2.07386 139.387 1.97856L140.757 1.43854C141.52 1.13449 142.255 1.92864 141.876 2.64565L141.196 3.9299C141.08 4.14773 141.066 4.4064 141.164 4.6333L141.714 5.97655C142.024 6.72532 141.214 7.44686 140.484 7.07474Z" fill="#F9CF70"/>
<path d="M24.1186 16.0375C24.1186 23.9609 19.9045 28.5125 12.2906 28.5125C4.67662 28.5125 0 23.9609 0 16.0375V5.38227H6.56854V16.0375C6.56854 20.512 8.65475 23.0124 12.2906 23.0124C15.9264 23.0124 17.7027 20.512 17.7027 16.0375C17.7027 12.8518 16.7359 10.5783 14.2241 10.5783C12.7532 10.5783 12.1749 10.8823 11.1712 11.2998L9.54752 6.48501C11.0139 5.69086 12.7948 5.08276 15.0336 5.08276C20.2515 5.08276 24.1186 8.26844 24.1186 16.042V16.0375Z" fill="#F6F7F9"/>
<path d="M34.5542 5.38208V18.2382L27.9811 19.223V5.38208H34.5542Z" fill="#F6F7F9"/>
<path d="M60.8377 22.6311V28.1312H38.8839V22.6311H51.6371V16.8316C51.6371 12.8517 49.7452 10.4239 46.3406 10.4239C44.0601 10.4239 41.9739 11.336 40.3087 12.2436L38.1438 7.46511C41.0812 5.75882 44.3284 4.92383 47.4184 4.92383C54.9167 4.92383 58.201 8.86736 58.201 16.3732V22.6311H60.8284H60.8377Z" fill="#F6F7F9"/>
<path d="M69.4971 5.38208V18.2382L62.9239 19.223V5.38208H69.4971Z" fill="#F6F7F9"/>
<path d="M80.5896 5.38208V18.2382L74.0164 19.223V5.38208H80.5896Z" fill="#F6F7F9"/>
<path d="M103.741 28.1312H97.4041V16.641C97.4041 12.6203 95.3965 10.3104 91.8394 10.3104C89.4802 10.3104 87.394 11.218 85.5761 12.1302L83.4113 7.54226C86.8112 5.68622 89.9798 5.07812 92.9588 5.07812C99.0648 5.07812 103.741 8.49071 103.741 16.3778V28.1312Z" fill="#F6F7F9"/>
<path d="M127.36 5.38208V10.8821C123.997 10.8821 122.684 12.779 122.684 16.4548V28.1356H116.115V16.6863C116.115 13.9181 116.966 12.0983 118.396 10.8867H105.832V5.38662H127.36V5.38208Z" fill="#F6F7F9"/>
</g>
<defs>
<clipPath id="clip0_2002_11166">
<rect width="165" height="36" fill="white"/>
</clipPath>
</defs>
</svg>
