<svg width="200" height="44" viewBox="0 0 200 44" fill="none" xmlns="http://www.w3.org/2000/svg">
<g clip-path="url(#clip0_467_16893)">
<path d="M181.738 22.6295C184.116 22.6295 186.044 20.7223 186.044 18.3698C186.044 16.0172 184.116 14.1101 181.738 14.1101C179.36 14.1101 177.432 16.0172 177.432 18.3698C177.432 20.7223 179.36 22.6295 181.738 22.6295Z" fill="#F9CF70"/>
<path d="M199.221 13.1341C199.109 12.7569 198.98 12.3798 198.834 11.9971C198.183 10.2499 197.275 8.59156 196.12 7.11621C193.277 3.46664 188.999 0.931912 184.407 0.177595C182.753 -0.0941814 180.97 -0.121914 179.507 0.671229C178.284 1.33126 177.387 2.56257 177.18 3.927C176.972 5.29142 177.483 6.75014 178.525 7.65976C180.095 9.03528 182.344 9.00754 184.278 9.4679C186.471 9.98927 188.377 11.448 189.577 13.3338C190.278 14.432 190.726 15.6855 190.906 16.9722C191.136 18.5918 190.939 20.2724 190.306 21.7866C188.282 26.6009 182.366 28.825 177.634 26.5288C175.358 25.425 173.518 23.3562 172.79 20.9435C172.677 20.5774 172.593 20.2058 172.537 19.8231C172.106 16.9833 171.607 13.8551 167.9 13.8219C165.601 13.7997 163.555 15.5135 163.387 17.6545C163.028 22.2691 165.052 26.5676 167.85 30.1395C171.276 34.5157 175.189 38.6422 178.946 42.7355C180.6 44.5381 183.146 44.3662 184.738 42.5026C192.061 33.9333 203.028 25.5692 199.226 13.1286L199.221 13.1341Z" fill="#F9CF70"/>
<path d="M199.221 13.1339C199.109 12.7567 198.98 12.3795 198.834 11.9968C198.183 10.2497 197.275 8.59132 196.12 7.11596C193.277 3.4664 188.999 0.931668 184.407 0.177351C182.753 -0.0944256 180.97 -0.122158 179.507 0.670985C178.284 1.33101 177.387 2.56232 177.18 3.92675C176.972 5.29118 177.483 6.7499 178.525 7.65951C180.095 9.03503 182.344 9.0073 184.278 9.46766C186.471 9.98902 188.377 11.4477 189.577 13.3335C190.278 14.4317 190.726 15.6852 190.906 16.972C191.136 18.5916 190.939 20.2721 190.306 21.7863C188.282 26.6006 182.366 28.8248 177.634 26.5285C175.358 25.4248 173.518 23.356 172.79 20.9433C172.677 20.5772 172.593 20.2056 172.537 19.8229C172.106 16.9831 171.607 13.8549 167.9 13.8216C165.601 13.7994 163.555 15.5133 163.387 17.6542C163.028 22.2689 165.052 26.5674 167.85 30.1393C171.276 34.5154 175.189 38.642 178.946 42.7353C180.6 44.5379 183.146 44.3659 184.738 42.5023C192.061 33.9331 203.028 25.569 199.226 13.1283L199.221 13.1339Z" fill="#F9CF70"/>
<path d="M170.283 8.64693L168.696 7.83161C168.427 7.69295 168.108 7.67631 167.827 7.79278L166.168 8.45281C165.243 8.82442 164.351 7.85379 164.811 6.97745L165.635 5.40781C165.775 5.14158 165.792 4.82543 165.674 4.54811L165.007 2.90636C164.631 1.99119 165.613 1.10931 166.499 1.56412L168.085 2.37944C168.354 2.51811 168.674 2.53475 168.954 2.41827L170.614 1.75824C171.539 1.38663 172.431 2.35726 171.971 3.2336L171.147 4.80324C171.007 5.06947 170.99 5.38562 171.107 5.66294L171.775 7.30469C172.15 8.21986 171.169 9.10174 170.283 8.64693Z" fill="#F9CF70"/>
<path d="M29.2346 19.601C29.2346 29.2852 24.1267 34.8482 14.8977 34.8482C5.66863 34.8482 0 29.2852 0 19.601V6.57798H7.96187V19.601C7.96187 25.0698 10.4906 28.1259 14.8977 28.1259C19.3047 28.1259 21.4578 25.0698 21.4578 19.601C21.4578 15.7074 20.286 12.9287 17.2414 12.9287C15.4584 12.9287 14.7575 13.3003 13.5408 13.8106L11.5727 7.92577C13.3502 6.95514 15.5088 6.21191 18.2226 6.21191C24.5472 6.21191 29.2346 10.1055 29.2346 19.6066V19.601Z" fill="#3E404C"/>
<path d="M41.884 6.57812V22.2912L33.9165 23.4948V6.57812H41.884Z" fill="#3E404C"/>
<path d="M73.7426 27.6601V34.3824H47.132V27.6601H62.5903V20.5717C62.5903 15.7075 60.2971 12.7401 56.1704 12.7401C53.4062 12.7401 50.8774 13.855 48.8589 14.9642L46.2349 9.12384C49.7953 7.03837 53.7314 6.01782 57.4768 6.01782C66.5657 6.01782 70.5466 10.8377 70.5466 20.0115V27.6601H73.7314H73.7426Z" fill="#3E404C"/>
<path d="M84.239 6.57812V22.2912L76.2715 23.4948V6.57812H84.239Z" fill="#3E404C"/>
<path d="M97.6843 6.57812V22.2912L89.7168 23.4948V6.57812H97.6843Z" fill="#3E404C"/>
<path d="M125.747 34.3823H118.066V20.3387C118.066 15.4245 115.632 12.6014 111.32 12.6014C108.461 12.6014 105.932 13.7106 103.729 14.8255L101.104 9.21802C105.226 6.94952 109.066 6.2063 112.677 6.2063C120.078 6.2063 125.747 10.3772 125.747 20.017V34.3823Z" fill="#3E404C"/>
<path d="M154.376 6.57812V13.3004C150.3 13.3004 148.708 15.6188 148.708 20.1115V34.388H140.746V20.3943C140.746 17.011 141.777 14.7869 143.51 13.306H128.281V6.58367H154.376V6.57812Z" fill="#3E404C"/>
</g>
<defs>
<clipPath id="clip0_467_16893">
<rect width="200" height="44" fill="white"/>
</clipPath>
</defs>
</svg>
