<svg width="90" height="90" viewBox="0 0 90 90" fill="none" xmlns="http://www.w3.org/2000/svg">
<rect width="90" height="90" rx="45" fill="white"/>
<path d="M23.2604 48.4957H28.2691V51H20.3243V38.9102H23.2604V48.4957ZM35.1044 51.2073C31.5638 51.2073 28.8522 48.5302 28.8522 44.9551C28.8522 41.38 31.5638 38.7029 35.1044 38.7029C38.645 38.7029 41.3565 41.38 41.3565 44.9551C41.3565 48.5302 38.645 51.2073 35.1044 51.2073ZM35.1044 48.4439C36.9869 48.4439 38.4205 46.9585 38.4205 44.9551C38.4205 42.9516 36.9869 41.4663 35.1044 41.4663C33.2218 41.4663 31.7883 42.9516 31.7883 44.9551C31.7883 46.9585 33.2218 48.4439 35.1044 48.4439ZM55.1367 43.7634C55.6721 48.133 53.116 51.2073 49.2818 51.2073C45.6549 51.2073 43.0124 48.582 43.0124 44.9551C43.0124 41.3282 45.6549 38.7202 49.2818 38.7202C51.0262 38.7202 52.8742 39.5838 53.9278 40.8964L51.9934 42.6062C51.3544 41.8636 50.249 41.3627 49.3336 41.3627C47.4165 41.3627 46.0003 42.8135 46.0003 44.9551C46.0003 47.0967 47.4165 48.4784 49.3336 48.4784C50.9053 48.4784 52.1316 47.5112 52.3906 46.0604H49.5236V43.7634H55.1367ZM63.1122 51.2073C59.5716 51.2073 56.86 48.5302 56.86 44.9551C56.86 41.38 59.5716 38.7029 63.1122 38.7029C66.6528 38.7029 69.3644 41.38 69.3644 44.9551C69.3644 48.5302 66.6528 51.2073 63.1122 51.2073ZM63.1122 48.4439C64.9948 48.4439 66.4283 46.9585 66.4283 44.9551C66.4283 42.9516 64.9948 41.4663 63.1122 41.4663C61.2296 41.4663 59.7961 42.9516 59.7961 44.9551C59.7961 46.9585 61.2296 48.4439 63.1122 48.4439Z" fill="black"/>
</svg>
