<svg width="22" height="22" viewBox="0 0 22 22" fill="none" xmlns="http://www.w3.org/2000/svg">
<g clip-path="url(#clip0_2387_13117)">
<path d="M2.18752 16.8332L4.65198 14.3688C4.86678 14.154 4.86678 13.805 4.65198 13.5902C4.43718 13.3754 4.08821 13.3754 3.87341 13.5902L1.07044 16.3932C0.523679 16.9399 0.523679 17.8286 1.07044 18.3753L3.87256 21.1775L3.87301 21.1779C3.98056 21.2843 4.12142 21.3383 4.26227 21.3383C4.40254 21.3383 4.54385 21.2856 4.65198 21.1774C4.86678 20.9626 4.86678 20.6137 4.65198 20.3989L2.18752 17.9344H14.8298C18.4194 17.9344 21.3387 15.0151 21.3387 11.4255C21.3387 11.1215 21.0921 10.8749 20.7881 10.8749C20.4842 10.8749 20.2375 11.1215 20.2375 11.4255C20.2375 14.4071 17.8114 16.8332 14.8298 16.8332H2.18752ZM7.16909 5.16657H19.8114L17.3469 7.63102C17.1321 7.84582 17.1321 8.19479 17.3469 8.40959C17.455 8.51771 17.5963 8.57048 17.7366 8.57048C17.8775 8.57048 18.0183 8.51649 18.1259 8.41004L18.1263 8.40959L20.9293 5.60662C21.4761 5.05986 21.4761 4.17123 20.9293 3.62447L20.9293 3.62446L18.1255 0.821499C18.1255 0.821494 18.1255 0.82149 18.1255 0.821485C17.9107 0.606701 17.5617 0.606705 17.3469 0.821499C17.1321 1.0363 17.1321 1.38527 17.3469 1.60007L19.8114 4.06452H7.16909H7.16905C3.57952 4.06539 0.660156 6.98474 0.660156 10.5743C0.660156 10.8783 0.906787 11.1249 1.21075 11.1249C1.51472 11.1249 1.76135 10.8783 1.76135 10.5743C1.76135 7.59267 4.18745 5.16657 7.16909 5.16657Z" fill="#4F525F" stroke="#4F525F" stroke-width="0.25"/>
</g>
<defs>
<clipPath id="clip0_2387_13117">
<rect width="22" height="22" fill="white"/>
</clipPath>
</defs>
</svg>
