<svg width="26" height="24" viewBox="0 0 26 24" fill="none" xmlns="http://www.w3.org/2000/svg">
<path d="M19.5936 13.0936L19.5937 13.0936C20.4211 12.2671 20.875 11.1689 20.875 10C20.875 8.83115 20.4202 7.73294 19.5936 6.90639C19.3498 6.66257 19.3498 6.26643 19.5936 6.02261C19.8374 5.7788 20.2336 5.7788 20.4774 6.02261C21.5398 7.08505 22.125 8.49785 22.125 10C22.125 11.5021 21.5399 12.9159 20.4774 13.9774L19.5936 13.0936ZM19.5936 13.0936C19.3498 13.3374 19.3498 13.7336 19.5936 13.9774C19.8374 14.2212 20.2335 14.2212 20.4773 13.9774L19.5936 13.0936ZM9.11968 15.125H12.001C14.1115 15.125 15.3221 15.4213 16.0074 15.9767C16.6829 16.5242 16.876 17.3482 16.876 18.5C16.876 18.845 17.156 19.125 17.501 19.125C17.846 19.125 18.126 18.845 18.126 18.5V1.5C18.126 1.15464 17.8447 0.875 17.5 0.875C17.155 0.875 16.875 1.15496 16.875 1.5C16.875 2.30249 16.7346 3.13488 16.0752 3.77091C15.4134 4.40936 14.2027 4.875 12 4.875H4.5C2.50096 4.875 0.875 6.50096 0.875 8.5V11.5C0.875 12.933 1.71548 14.1644 2.92324 14.7526L2.92374 14.7537L5.92173 21.5097C5.92173 21.5097 5.92174 21.5097 5.92174 21.5097C6.35679 22.4909 7.33158 23.125 8.405 23.125C9.31894 23.125 10.166 22.67 10.6712 21.9081L10.6712 21.908C11.1754 21.146 11.2634 20.1889 10.9081 19.3483L10.9081 19.3483L9.11968 15.125ZM9.75689 19.8357L9.75692 19.8358C9.95257 20.2972 9.90657 20.7999 9.62889 21.2178L9.62878 21.218C9.35195 21.636 8.9071 21.875 8.405 21.875C7.82548 21.875 7.29921 21.5322 7.06423 21.0033L4.4557 15.1237C4.47013 15.1245 4.48492 15.125 4.5 15.125H7.76219L9.75689 19.8357ZM2.125 11.5V8.5C2.125 7.19104 3.19104 6.125 4.5 6.125H6.875V13.875H4.5C3.19104 13.875 2.125 12.809 2.125 11.5ZM12 13.875H8.125V6.125H12C14.2233 6.125 15.853 5.64524 16.875 4.68728V15.0907C15.7885 14.1285 14.0719 13.875 12 13.875ZM21.7156 16.0984C21.9594 16.3422 22.3556 16.3422 22.5994 16.0984C25.9622 12.7356 25.9622 7.26443 22.5994 3.90161C22.3556 3.6578 21.9594 3.6578 21.7156 3.90161C21.4718 4.14543 21.4718 4.54157 21.7156 4.78539C24.5908 7.66057 24.5908 12.3394 21.7156 15.2146C21.4718 15.4584 21.4718 15.8546 21.7156 16.0984Z" fill="#3E404C" stroke="#3E404C" stroke-width="0.25"/>
</svg>
