<svg width="26" height="25" viewBox="0 0 26 25" fill="none" xmlns="http://www.w3.org/2000/svg">
<path d="M4.875 8.63743H2.21254C2.1547 9.09171 2.125 9.55083 2.125 10.0124C2.125 11.3214 3.19104 12.3874 4.5 12.3874H6.5C6.84504 12.3874 7.125 12.6674 7.125 13.0124V14.5124C7.125 15.6845 6.17204 16.6374 5 16.6374C3.82796 16.6374 2.875 15.6845 2.875 14.5124V13.2524C1.68973 12.6556 0.875 11.4284 0.875 10.0124C0.875 8.61311 1.11346 7.23588 1.58429 5.91836L2.46328 3.4574C2.46328 3.45739 2.46328 3.45739 2.46328 3.45738C3.11904 1.62066 4.86915 0.387428 6.819 0.388428H12.181C14.1308 0.388428 15.8809 1.62162 16.5367 3.45738L16.5367 3.45742L17.3737 5.80333L4.875 8.63743ZM4.875 8.63743V10.0124C4.875 10.3575 5.15496 10.6374 5.5 10.6374C5.84504 10.6374 6.125 10.3575 6.125 10.0124V8.63743H9.5C9.84504 8.63743 10.125 8.35746 10.125 8.01243C10.125 7.66739 9.84504 7.38743 9.5 7.38743H2.44545C2.53275 7.03417 2.63816 6.68423 2.76167 6.3396L2.76172 6.33947L3.6407 3.87851C4.11994 2.5382 5.39685 1.63843 6.819 1.63843H12.181C13.6032 1.63843 14.881 2.53921 15.3593 3.87846L16.1962 6.22313C16.1962 6.2232 16.1962 6.22327 16.1962 6.22334L16.1963 6.22345L16.314 6.18143C16.406 6.44143 16.693 6.57743 16.953 6.48443C17.213 6.39143 17.349 6.10543 17.256 5.84543L17.3737 5.80342L4.875 8.63743ZM23.5367 11.4574L23.5367 11.4574C22.8809 9.62162 21.1308 8.38843 19.181 8.38843H13.819C11.8702 8.38843 10.119 9.62162 9.46328 11.4584L8.58429 13.9194C8.58429 13.9194 8.58429 13.9194 8.58428 13.9194C8.11346 15.2369 7.875 16.6141 7.875 18.0134C7.875 19.4284 8.6907 20.6565 9.875 21.2534V22.5134C9.875 23.6855 10.828 24.6384 12 24.6384C13.172 24.6384 14.125 23.6855 14.125 22.5134V21.6384H18.875V22.5134C18.875 23.6855 19.828 24.6384 21 24.6384C22.172 24.6384 23.125 23.6855 23.125 22.5134V21.2534C24.3093 20.6565 25.125 19.4274 25.125 18.0124C25.125 16.6131 24.8865 15.2359 24.4157 13.9194C24.4157 13.9194 24.4157 13.9194 24.4157 13.9193L23.5367 11.4574ZM23.2383 14.3406C23.3618 14.685 23.4664 15.035 23.5543 15.3884H9.44545C9.53275 15.0352 9.63816 14.6852 9.76167 14.3406L9.769 14.3202V14.3191L10.6407 11.8785C10.6407 11.8785 10.6407 11.8785 10.6407 11.8785C11.12 10.5382 12.3969 9.63843 13.819 9.63843H19.181C20.6032 9.63843 21.881 10.5392 22.3593 11.8785L23.2383 14.3405L23.2383 14.3406ZM12.875 22.5124C12.875 22.9944 12.482 23.3874 12 23.3874C11.518 23.3874 11.125 22.9944 11.125 22.5124V21.6177C11.2479 21.6304 11.373 21.6374 11.5 21.6374H12.875V22.5124ZM21.875 22.5124C21.875 22.9944 21.482 23.3874 21 23.3874C20.518 23.3874 20.125 22.9944 20.125 22.5124V21.6374H21.5C21.6266 21.6374 21.7517 21.631 21.875 21.6181V22.5124ZM21.5 20.3874H11.5C10.191 20.3874 9.125 19.3214 9.125 18.0124C9.125 17.5508 9.1547 17.0917 9.21254 16.6374H11.875V18.0124C11.875 18.3575 12.155 18.6374 12.5 18.6374C12.845 18.6374 13.125 18.3575 13.125 18.0124V16.6374H19.875V18.0124C19.875 18.3575 20.155 18.6374 20.5 18.6374C20.845 18.6374 21.125 18.3575 21.125 18.0124V16.6374H23.7875C23.8453 17.0917 23.875 17.5508 23.875 18.0124C23.875 19.3214 22.809 20.3874 21.5 20.3874ZM5.875 14.5124C5.875 14.9944 5.48196 15.3874 5 15.3874C4.51804 15.3874 4.125 14.9944 4.125 14.5124V13.6176C4.24808 13.6304 4.37285 13.6374 4.5 13.6374H5.875V14.5124Z" fill="#F6F7F9" stroke="#F6F7F9" stroke-width="0.25"/>
</svg>
