<svg width="22" height="16" viewBox="0 0 22 16" fill="none" xmlns="http://www.w3.org/2000/svg">
<path d="M18.5375 0.787598H3.425C1.74346 0.787598 0.375 2.15606 0.375 3.8376V12.2001C0.375 13.8816 1.74346 15.2501 3.425 15.2501H18.5375C20.2555 15.2501 21.625 13.8827 21.625 12.2001V3.8376C21.625 2.15503 20.2555 0.787598 18.5375 0.787598ZM3.425 1.7876H18.5375C19.6698 1.7876 20.625 2.74551 20.625 3.8376V5.0626H1.375V3.8376C1.375 2.70663 2.29404 1.7876 3.425 1.7876ZM18.5375 14.2126H3.425C2.29404 14.2126 1.375 13.2936 1.375 12.1626V6.0251H20.625V12.1626C20.625 13.2908 19.6713 14.2126 18.5375 14.2126Z" fill="#4F525F" stroke="#4F525F" stroke-width="0.25"/>
<path d="M9.80039 11.7375H3.83789C3.69698 11.7375 3.56985 11.7851 3.47763 11.8773C3.3854 11.9695 3.33789 12.0966 3.33789 12.2375C3.33789 12.3785 3.3854 12.5056 3.47763 12.5978C3.56985 12.69 3.69698 12.7375 3.83789 12.7375H9.76289C9.9038 12.7375 10.0309 12.69 10.1232 12.5978C10.2154 12.5056 10.2629 12.3785 10.2629 12.2375C10.2629 11.9524 10.0655 11.7375 9.80039 11.7375Z" fill="#4F525F" stroke="#4F525F" stroke-width="0.25"/>
</svg>
