<svg width="26" height="26" viewBox="0 0 26 26" fill="none" xmlns="http://www.w3.org/2000/svg">
<g clip-path="url(#clip0_400_16946)">
<path d="M12.998 11.9V11.9H13.015C13.9275 11.9 14.78 11.5465 15.4233 10.9043L12.998 11.9ZM12.998 11.9L12.9955 11.9M12.998 11.9L12.9955 11.9M12.9955 11.9C12.0634 11.9233 11.2252 11.5518 10.5767 10.9043L12.9955 11.9ZM24.4798 18.0167C25.2811 17.2143 25.3041 15.9231 24.5487 15.0927L24.5515 15.09L24.4807 15.0192C23.677 14.2167 22.2746 14.2271 21.4943 15.0083L15.1253 21.0253L15.0526 21.094L15.1214 21.1667L15.8094 21.8937L15.878 21.9663L15.9507 21.8977L22.3307 15.8707L22.3307 15.8707L22.3327 15.8687C22.6777 15.5237 23.2864 15.5228 23.6323 15.8687C23.9906 16.227 23.9896 16.8099 23.6432 17.1573L17.2643 23.1833L17.2643 23.1833L17.2623 23.1853C16.3123 24.1353 14.7666 24.1372 13.8147 23.1853C13.3545 22.725 13.101 22.1135 13.101 21.462C13.101 20.8106 13.3534 20.1995 13.8038 19.7486L19.4128 14.4356L19.4854 14.3668L19.4166 14.2942L18.7286 13.5682L18.6598 13.4956L18.5872 13.5644L12.9672 18.8884L12.9672 18.8884L12.9653 18.8903C12.2785 19.577 11.9 20.4905 11.9 21.462C11.9 22.4335 12.2785 23.347 12.9653 24.0337L12.9653 24.0338C13.6769 24.7443 14.6097 25.098 15.541 25.098C16.4687 25.098 17.3951 24.7478 18.0987 24.0447L24.4777 18.0187L24.4777 18.0187L24.4798 18.0167ZM24.9504 13.1579L25.1 13.2432V13.071V3.5C25.1 2.0668 23.9343 0.9 22.5 0.9H3.5C2.06575 0.9 0.9 2.0668 0.9 3.5V20V20.1H1H10.22H10.2965L10.3165 20.0262C10.4087 19.6868 10.5343 19.3599 10.6915 19.0446L10.7636 18.9H10.602H2.1V4.12444L9.72729 11.7527L9.798 11.682L9.72729 11.7527C10.597 12.6224 11.7525 13.1 12.975 13.1H12.9751H12.9752H12.9752H12.9753H12.9754H12.9755H12.9756H12.9757H12.9757H12.9758H12.9759H12.976H12.9761H12.9761H12.9762H12.9763H12.9764H12.9765H12.9766H12.9766H12.9767H12.9768H12.9769H12.977H12.977H12.9771H12.9772H12.9773H12.9774H12.9774H12.9775H12.9776H12.9777H12.9778H12.9778H12.9779H12.978H12.9781H12.9782H12.9782H12.9783H12.9784H12.9785H12.9786H12.9787H12.9787H12.9788H12.9789H12.979H12.9791H12.9791H12.9792H12.9793H12.9794H12.9795H12.9795H12.9796H12.9797H12.9798H12.9799H12.9799H12.98H12.9801H12.9802H12.9803H12.9803H12.9804H12.9805H12.9806H12.9807H12.9807H12.9808H12.9809H12.981H12.981H12.9811H12.9812H12.9813H12.9814H12.9814H12.9815H12.9816H12.9817H12.9818H12.9818H12.9819H12.982H12.9821H12.9822H12.9822H12.9823H12.9824H12.9825H12.9826H12.9826H12.9827H12.9828H12.9829H12.983H12.983H12.9831H12.9832H12.9833H12.9834H12.9834H12.9835H12.9836H12.9837H12.9837H12.9838H12.9839H12.984H12.9841H12.9841H12.9842H12.9843H12.9844H12.9845H12.9845H12.9846H12.9847H12.9848H12.9849H12.9849H12.985H12.9851H12.9852H12.9853H12.9853H12.9854H12.9855H12.9856H12.9856H12.9857H12.9858H12.9859H12.986H12.986H12.9861H12.9862H12.9863H12.9864H12.9864H12.9865H12.9866H12.9867H12.9868H12.9868H12.9869H12.987H12.9871H12.9871H12.9872H12.9873H12.9874H12.9875H12.9875H12.9876H12.9877H12.9878H12.9879H12.9879H12.988H12.9881H12.9882H12.9883H12.9883H12.9884H12.9885H12.9886H12.9887H12.9887H12.9888H12.9889H12.989H12.9891H12.9891H12.9892H12.9893H12.9894H12.9895H12.9895H12.9896H12.9897H12.9898H12.9899H12.9899H12.99H12.9901H12.9902H12.9902H12.9903H12.9904H12.9905H12.9906H12.9906H12.9907H12.9908H12.9909H12.991H12.991H12.9911H12.9912H12.9913H12.9914H12.9914H12.9915H12.9916H12.9917H12.9918H12.9918H12.9919H12.992H12.9921H12.9922H12.9923H12.9923H12.9924H12.9925H12.9926H12.9927H12.9927H12.9928H12.9929H12.993H12.9931H12.9931H12.9932H12.9933H12.9934H12.9935H12.9935H12.9936H12.9937H12.9938H12.9939H12.9939H12.994H12.9941H12.9942H12.9943H12.9944H12.9944H12.9945H12.9946H12.9947H12.9948H12.9948H12.9949H12.995H12.9951H12.9952H12.9953H12.9953H12.9954H12.9955H12.9956H12.9957H12.9957H12.9958H12.9959H12.996H12.9961H12.9962H12.9962H12.9963H12.9964H12.9965H12.9966H12.9967H12.9967H12.9968H12.9969H12.997H12.9971H12.9972H12.9972H12.9973H12.9974H12.9975H12.9976H12.9976H12.9977H12.9978H12.9979H12.998H12.9981H12.9982H12.9982H12.9983H12.9984H12.9985H12.9986H12.9987H12.9987H12.9988H12.9989H12.999H12.9991H12.9992H12.9992H12.9993H12.9994H12.9995H12.9996H12.9997H12.9998H12.9998H12.9999H13H13.0001H13.0002H13.0003H13.0003H13.0004H13.0005H13.0006H13.0007H13.0008H13.0009H13.0009H13.001H13.0011H13.0012H13.0013H13.0014H13.0015H13.0015H13.0016H13.0017H13.0018H13.0019H13.002H13.0021H13.0022H13.0022H13.0023H13.0024H13.0025H13.0026H13.0027H13.0028H13.0028H13.0029H13.003H13.0031H13.0032H13.0033H13.0034H13.0035H13.0036H13.0036H13.0037H13.0038H13.0039H13.004H13.0041H13.0042H13.0043H13.0043H13.0044H13.0045H13.0046H13.0047H13.0048H13.0049H13.005H13.0051H13.0051H13.0052H13.0053H13.0054H13.0055H13.0056H13.0057H13.0058H13.0059H13.006H13.006H13.0061H13.0062H13.0063H13.0064H13.0065H13.0066H13.0067H13.0068H13.0069H13.007H13.007H13.0071H13.0072H13.0073H13.0074H13.0075H13.0076H13.0077H13.0078H13.0079H13.008H13.0081H13.0082H13.0082H13.0083H13.0084H13.0085H13.0086H13.0087H13.0088H13.0089H13.009H13.0091H13.0092H13.0093H13.0094H13.0095H13.0095H13.0096H13.0097H13.0098H13.0099H13.01H13.0101H13.0102H13.0103H13.0104H13.0105H13.0106H13.0107H13.0108H13.0109H13.011H13.0111H13.0112H13.0113H13.0114H13.0115H13.0115H13.0116H13.0117H13.0118H13.0119H13.012H13.0121H13.0122H13.0123H13.0124H13.0125H13.0126H13.0127H13.0128H13.0129H13.013H13.0131H13.0132H13.0133H13.0134H13.0135H13.0136H13.0137H13.0138H13.0139H13.014H13.0141H13.0142H13.0143H13.0144H13.0145H13.0146H13.0147H13.0148H13.0149H13.015H13.0151H13.0152H13.0153H13.0154H13.0155H13.0156H13.0157H13.0158H13.0159H13.016H13.0161H13.0162H13.0163H13.0164H13.0165H13.0166H13.0167H13.0168H13.0169H13.017H13.0171H13.0172H13.0173H13.0174H13.0175H13.0176H13.0177H13.0178H13.018H13.0181H13.0182H13.0183H13.0184H13.0185H13.0186H13.0187H13.0188H13.0189H13.019C14.2475 13.1 15.4019 12.6225 16.2717 11.7527L23.9 4.12442V12.666V12.7435L23.975 12.7628C24.3195 12.8516 24.6462 12.9843 24.9504 13.1579ZM23.6372 2.69042L15.4233 10.9042L10.5767 10.9042L2.36285 2.69042C2.61709 2.33359 3.03068 2.1 3.5 2.1H22.5C22.9693 2.1 23.3829 2.33359 23.6372 2.69042Z" fill="#585858" stroke="#585858" stroke-width="0.2"/>
</g>
<defs>
<clipPath id="clip0_400_16946">
<rect width="26" height="26" fill="white"/>
</clipPath>
</defs>
</svg>
