<svg width="29" height="30" viewBox="0 0 29 30" fill="none" xmlns="http://www.w3.org/2000/svg">
<path d="M23.6078 6.48828H5.34688C3.3294 6.48828 1.6875 8.13018 1.6875 10.1477V20.2523C1.6875 22.2698 3.3294 23.9117 5.34688 23.9117H23.6078C25.6696 23.9117 27.3125 22.2709 27.3125 20.2523V10.1477C27.3125 8.12915 25.6696 6.48828 23.6078 6.48828ZM5.34688 7.64453H23.6078C24.9902 7.64453 26.1562 8.81338 26.1562 10.1477V11.6539H2.84375V10.1477C2.84375 8.76669 3.96591 7.64453 5.34688 7.64453ZM23.6078 22.7102H5.34688C3.96591 22.7102 2.84375 21.588 2.84375 20.207V12.7648H26.1562V20.207C26.1562 21.5852 24.9916 22.7102 23.6078 22.7102Z" fill="#F6F7F9" stroke="#F6F7F9" stroke-width="0.25"/>
<path d="M13.05 19.7195H5.84531C5.68096 19.7195 5.5343 19.7748 5.4284 19.8807C5.32251 19.9866 5.26718 20.1333 5.26718 20.2976C5.26718 20.462 5.32251 20.6086 5.4284 20.7145C5.5343 20.8204 5.68096 20.8757 5.84531 20.8757H13.0047C13.169 20.8757 13.3157 20.8204 13.4216 20.7145C13.5275 20.6086 13.5828 20.462 13.5828 20.2976C13.5828 19.9656 13.3542 19.7195 13.05 19.7195Z" fill="#F6F7F9" stroke="#F6F7F9" stroke-width="0.25"/>
</svg>
