<svg width="19" height="21" viewBox="0 0 19 21" fill="none" xmlns="http://www.w3.org/2000/svg">
<path d="M15.6598 16.9019L15.7095 16.9082C15.7099 16.9043 15.7101 16.9007 15.7103 16.8989L15.7105 16.8958L15.7105 16.8958L15.7107 16.8935L16.6661 4.69271C16.6903 4.38203 16.4586 4.11075 16.1478 4.0865C15.8372 4.06226 15.5659 4.29403 15.5416 4.60474L14.5868 16.7987C14.4258 18.3404 13.1364 19.5022 11.5855 19.5022H7.41412C5.86324 19.5022 4.57387 18.3409 4.41281 16.7987L3.45801 4.60475C3.45801 4.60474 3.45801 4.60474 3.45801 4.60474C3.43375 4.29396 3.16297 4.06283 2.85192 4.0865L2.85182 4.0865C2.5411 4.11075 2.30933 4.38203 2.33357 4.6927L2.33358 4.69271L3.28881 16.8919M15.6598 16.9019L15.7096 16.907C15.4922 19.0293 13.7193 20.63 11.5855 20.63H7.41412C5.2806 20.63 3.50782 19.0296 3.29013 16.9076M15.6598 16.9019C15.445 18.9987 13.6936 20.58 11.5855 20.58H7.41412C5.30605 20.58 3.55463 18.9987 3.33982 16.9019M15.6598 16.9019C15.6601 16.8999 15.6602 16.8978 15.6604 16.8958C15.6605 16.8937 15.6606 16.8917 15.6609 16.8896L16.6162 4.68881C16.6383 4.40564 16.4271 4.15845 16.144 4.13635C15.8608 4.11425 15.6136 4.32547 15.5915 4.60864L14.6366 16.8033L3.33879 16.8896M3.29013 16.9076C3.29011 16.9074 3.2901 16.9072 3.29008 16.907L3.33982 16.9019M3.29013 16.9076C3.29016 16.9078 3.29018 16.908 3.2902 16.9081L3.33982 16.9019M3.29013 16.9076C3.28971 16.9043 3.28897 16.8984 3.28881 16.8919M3.33982 16.9019C3.3393 16.8978 3.33879 16.8937 3.33879 16.8896M3.28881 16.8919L3.28894 16.8935L3.33879 16.8896M3.28881 16.8919L3.33879 16.8896M2.38342 4.68881C2.36133 4.40564 2.57254 4.15845 2.85571 4.13635C3.13939 4.11477 3.38607 4.32547 3.40817 4.60864L2.38342 4.68881Z" fill="#585858" stroke="#585858" stroke-width="0.1"/>
<path d="M0.79797 5.16132H18.2021C18.5139 5.16132 18.7666 4.90874 18.7666 4.59741C18.7666 4.28611 18.5139 4.0335 18.2027 4.0335H0.79797C0.486676 4.0335 0.234058 4.28611 0.234058 4.59741C0.234058 4.9087 0.486676 5.16132 0.79797 5.16132Z" fill="#585858" stroke="#585858" stroke-width="0.1"/>
<path d="M10.7091 3.26122C10.7091 3.57251 10.9618 3.82513 11.273 3.82513C11.5843 3.82513 11.837 3.57251 11.837 3.26122C11.837 1.98685 10.8001 0.95 9.52574 0.95C8.25138 0.95 7.21453 1.98685 7.21453 3.26122C7.21453 3.57251 7.46715 3.82513 7.77844 3.82513C8.08973 3.82513 8.34235 3.57251 8.34235 3.26122C8.34235 2.60892 8.87345 2.07783 9.52574 2.07783C10.178 2.07783 10.7091 2.60892 10.7091 3.26122Z" fill="#585858" stroke="#585858" stroke-width="0.1"/>
<path d="M6.95757 15.2097C6.95757 15.521 7.21019 15.7736 7.52148 15.7736C7.83278 15.7736 8.08539 15.521 8.08539 15.2097V8.63159C8.08539 8.32029 7.83278 8.06768 7.52148 8.06768C7.21019 8.06768 6.95757 8.32029 6.95757 8.63159V15.2097Z" fill="#585858" stroke="#585858" stroke-width="0.1"/>
<path d="M10.8633 15.2097C10.8633 15.521 11.1159 15.7736 11.4272 15.7736C11.7385 15.7736 11.9912 15.521 11.9912 15.2097V8.63159C11.9912 8.32029 11.7385 8.06768 11.4272 8.06768C11.1159 8.06768 10.8633 8.32029 10.8633 8.63159V15.2097Z" fill="#585858" stroke="#585858" stroke-width="0.1"/>
</svg>
