<svg width="19" height="22" viewBox="0 0 19 22" fill="none" xmlns="http://www.w3.org/2000/svg">
<path d="M4.62602 21.2768L4.62519 21.2767C4.32393 21.2493 4.1013 20.983 4.12872 20.6814M4.62602 21.2768L13.9789 21.1513C14.2116 21.1302 14.3834 20.9246 14.3622 20.6919L14.4867 20.6806C14.4867 20.6806 14.4867 20.6806 14.4867 20.6806C14.2431 17.9846 12.017 15.9511 9.30813 15.9511H9.25639L9.25529 15.9522C6.57001 15.978 4.37078 18.0027 4.12872 20.6814M4.62602 21.2768C4.92424 21.3019 5.19297 21.0826 5.22046 20.7802L5.22047 20.7801M4.62602 21.2768L5.22047 20.7801M4.12872 20.6814L4.2532 20.6927L4.12871 20.6815C4.12871 20.6815 4.12871 20.6814 4.12872 20.6814ZM5.22047 20.7801C5.29234 19.981 5.59265 19.2617 6.04547 18.6671M5.22047 20.7801L6.04547 18.6671M6.04547 18.6671L7.70913 20.3307L6.04547 18.6671ZM17.8716 20.6902L17.8716 20.6902C17.6264 16.1364 13.8657 12.5682 9.30728 12.5682C4.74854 12.5682 0.986777 16.136 0.74292 20.6911L0.742903 20.6915C0.727568 20.9938 0.959743 21.2513 1.26116 21.2677L1.26116 21.2677L1.26423 21.2678C1.55295 21.2765 1.82122 21.0556 1.83787 20.7494L1.83787 20.7493C2.05093 16.776 5.33174 13.6635 9.30728 13.6635C13.2828 13.6635 16.5645 16.7761 16.7767 20.7493L16.7767 20.7497C16.7931 21.0409 17.034 21.2679 17.3237 21.2679V21.2681L17.331 21.2677C17.5098 21.2573 17.6533 21.1935 17.7492 21.0826C17.8441 20.9727 17.8793 20.8315 17.8716 20.6902ZM10.132 19.5542C9.88431 19.4224 9.60616 19.3366 9.30728 19.3366C9.0084 19.3366 8.73024 19.4224 8.48258 19.5542L6.82287 17.8945C7.5135 17.3669 8.36982 17.0481 9.30728 17.0481C10.2447 17.0481 11.1011 17.3669 11.7917 17.8945L10.132 19.5542ZM9.30728 11.125C12.1762 11.125 14.5092 8.79207 14.5092 5.92311C14.5092 3.05416 12.1762 0.721191 9.30728 0.721191C6.43832 0.721191 4.10536 3.05416 4.10536 5.92311C4.10536 8.79207 6.43832 11.125 9.30728 11.125ZM9.30728 1.81735C11.5711 1.81735 13.413 3.6593 13.413 5.92311C13.413 8.18693 11.5711 10.0289 9.30728 10.0289C7.04347 10.0289 5.20151 8.18693 5.20151 5.92311C5.20151 3.6593 7.04347 1.81735 9.30728 1.81735Z" fill="#4F525F" stroke="#4F525F" stroke-width="0.25"/>
</svg>
