<svg width="23" height="23" viewBox="0 0 23 23" fill="none" xmlns="http://www.w3.org/2000/svg">
<path d="M19.4781 5.14625L17.8538 3.52188C16.9913 2.65937 15.5897 2.65937 14.7272 3.52188L12.0031 6.25312L3.96031 14.2887C3.25594 14.9931 2.875 15.9203 2.875 16.9122V19.4062C2.875 19.8016 3.19844 20.125 3.59375 20.125H6.08781C7.07969 20.125 8.00688 19.7369 8.71125 19.0397L16.7541 11.0041L19.4781 8.27281C19.895 7.85594 20.125 7.3025 20.125 6.71313C20.125 6.12375 19.895 5.57031 19.4781 5.15344V5.14625ZM7.69062 18.0191C7.25937 18.4503 6.69156 18.6875 6.08781 18.6875H4.3125V16.9122C4.3125 16.3084 4.54969 15.7334 4.98094 15.3094L12.5134 7.78406L15.2303 10.5009L7.69781 18.0334L7.69062 18.0191ZM18.4647 7.25219L16.2509 9.47313L13.5341 6.75625L15.7478 4.53531C16.0497 4.23344 16.5384 4.23344 16.8403 4.53531L18.4647 6.15969C18.6084 6.30344 18.6875 6.4975 18.6875 6.70594C18.6875 6.91437 18.6084 7.10125 18.4647 7.25219Z" fill="#585858"/>
<path d="M18.6875 18.6875H11.5C11.1047 18.6875 10.7812 19.0109 10.7812 19.4062C10.7812 19.8016 11.1047 20.125 11.5 20.125H18.6875C19.0828 20.125 19.4062 19.8016 19.4062 19.4062C19.4062 19.0109 19.0828 18.6875 18.6875 18.6875Z" fill="#585858"/>
</svg>
