<svg width="19" height="22" viewBox="0 0 19 22" fill="none" xmlns="http://www.w3.org/2000/svg">
<path d="M6.83625 17.55C6.92375 17.6167 7.02 17.65 7.125 17.65C7.2475 17.65 7.37 17.6083 7.4575 17.5083L6.83625 17.55ZM6.83625 17.55C6.6525 17.4 6.635 17.1333 6.7925 16.9667L9.1725 14.325L6.83625 17.55ZM9.75 13.5421L7.53187 11.0748L7.53189 11.0748L7.53 11.0728C7.32798 10.8601 6.99758 10.8392 6.77301 11.0225C6.54441 11.2091 6.52298 11.5334 6.71817 11.7502L6.71821 11.7503L9.0379 14.325L6.71894 16.8989C6.5215 17.1089 6.54573 17.4419 6.77301 17.6275L6.77298 17.6275L6.77565 17.6295C6.87967 17.7088 6.99701 17.75 7.125 17.75C7.26955 17.75 7.4219 17.7005 7.5323 17.5747C7.53245 17.5745 7.5326 17.5744 7.53276 17.5742L9.75 15.1079L11.9681 17.5752L11.9681 17.5752L11.9702 17.5774C12.0771 17.6894 12.226 17.75 12.375 17.75C12.4997 17.75 12.6284 17.7107 12.7277 17.6269C12.9556 17.4402 12.9768 17.1164 12.7818 16.8998L12.7818 16.8997L10.4621 14.325L12.781 11.7511C12.9785 11.5411 12.9543 11.2081 12.727 11.0225C12.5036 10.8402 12.1628 10.8585 11.9682 11.0748L11.9681 11.0748L9.75 13.5421ZM12.375 17.65C12.2525 17.65 12.13 17.6 12.0425 17.5083L12.7075 16.9667C12.865 17.1417 12.8475 17.4 12.6637 17.55C12.585 17.6167 12.48 17.65 12.375 17.65ZM18.6 9.325V9.225H18.5903C18.564 7.78471 17.9686 6.43917 16.8977 5.41925L13.8528 2.51102L13.8524 2.51064C12.7573 1.47616 11.3064 0.9 9.75875 0.9H4.9375C2.71693 0.9 0.9 2.62356 0.9 4.75V17.25C0.9 19.3764 2.71693 21.1 4.9375 21.1H14.5625C16.7831 21.1 18.6 19.3764 18.6 17.25V9.325ZM13.0935 3.25575L13.1625 3.32143L13.1712 3.31319L16.1472 6.15565L16.1473 6.15575C16.5812 6.56898 16.9198 7.04355 17.1508 7.56667H12.8125C12.1368 7.56667 11.6 7.04856 11.6 6.41667V2.29561C12.1486 2.51634 12.6577 2.84071 13.0935 3.25575ZM17.4628 8.6C17.5043 8.84181 17.525 9.08346 17.525 9.325V17.25C17.525 18.7986 16.2007 20.0667 14.5625 20.0667H4.9375C3.29932 20.0667 1.975 18.7986 1.975 17.25V4.75C1.975 3.20144 3.29932 1.93333 4.9375 1.93333H9.75875C10.0214 1.93333 10.2768 1.9532 10.525 1.99284V6.41667C10.525 7.62644 11.5544 8.6 12.8125 8.6H17.4628Z" fill="#3E404C" stroke="#3E404C" stroke-width="0.2"/>
</svg>
