<svg width="26" height="26" viewBox="0 0 26 26" fill="none" xmlns="http://www.w3.org/2000/svg">
<path d="M19.0475 22.7312L19.0474 22.7311L19.0449 22.734C18.4037 23.4627 17.4709 23.89 16.5 23.89H5.5C3.62523 23.89 2.1 22.3648 2.1 20.49V5.49004C2.1 3.61527 3.62523 2.09004 5.5 2.09004H11.01C11.3066 2.09004 11.6032 2.11472 11.9 2.16412V7.49004C11.9 8.92527 13.0648 10.09 14.5 10.09H19.8263C19.8754 10.3782 19.9 10.6748 19.9 10.98V11.49C19.9 11.8253 20.1648 12.09 20.5 12.09C20.8352 12.09 21.1 11.8253 21.1 11.49V10.98C21.1 9.21337 20.4094 7.55814 19.171 6.30961L19.1707 6.30933L15.6907 2.82933C14.4418 1.58043 12.7863 0.900037 11.02 0.900037H5.5002C2.96467 0.889923 0.9 2.95495 0.9 5.49004V20.49C0.9 23.0253 2.96477 25.09 5.5 25.09H16.5C17.819 25.09 19.0759 24.5175 19.9545 23.5368L19.9559 23.5351C20.1715 23.2836 20.1465 22.9132 19.9089 22.6875L19.8799 22.66H19.8652C19.615 22.4708 19.2644 22.5028 19.0475 22.7312ZM21.9169 21.4744L21.917 21.4744L21.92 21.4714L24.4898 18.9517C24.4899 18.9516 24.4899 18.9515 24.49 18.9515C24.9002 18.5516 25.1 18.0254 25.1 17.5V17.48C25.1 16.954 24.8898 16.4184 24.4907 16.0193L24.4899 16.0185L21.9207 13.5093C21.9206 13.5092 21.9205 13.5091 21.9203 13.509C21.6826 13.2716 21.2988 13.2688 21.0684 13.5102C20.8314 13.7482 20.8289 14.1319 21.0706 14.3621C21.0708 14.3622 21.071 14.3624 21.0711 14.3625L23.6393 16.8707C23.6394 16.8709 23.6395 16.871 23.6397 16.8711C23.646 16.8775 23.6522 16.8838 23.6582 16.89H14.5C14.1648 16.89 13.9 17.1548 13.9 17.49C13.9 17.8253 14.1648 18.09 14.5 18.09H23.6484C23.6455 18.093 23.6426 18.096 23.6396 18.099C23.6395 18.0991 23.6394 18.0992 23.6393 18.0993L21.0701 20.6085L21.0701 20.6084L21.0675 20.6112C20.8408 20.8498 20.8408 21.2203 21.0675 21.4589L21.0675 21.4589L21.0693 21.4607C21.1886 21.58 21.3442 21.64 21.5 21.64C21.6572 21.64 21.8005 21.5792 21.9169 21.4744ZM18.3193 7.16075C18.8236 7.66509 19.2165 8.25489 19.4821 8.89004H14.5C13.7252 8.89004 13.1 8.26481 13.1 7.49004V2.50726C13.7424 2.77264 14.3241 3.1656 14.8293 3.67075L18.3093 7.15075L18.3193 7.16075Z" fill="#585858" stroke="#585858" stroke-width="0.2"/>
</svg>
