<svg width="22" height="23" viewBox="0 0 22 23" fill="none" xmlns="http://www.w3.org/2000/svg">
<g clip-path="url(#clip0_872_6707)">
<path d="M19.7584 3.24992C19.7584 1.95685 18.7098 0.908252 17.4167 0.908252H17.3981H17.3794H17.3606H17.3417H17.3228H17.3038H17.2847H17.2655H17.2463H17.227H17.2076H17.1882H17.1687H17.1491H17.1294H17.1097H17.0898H17.07H17.05H17.03H17.0099H16.9897H16.9695H16.9492H16.9288H16.9084H16.8879H16.8673H16.8467H16.826H16.8052H16.7844H16.7635H16.7425H16.7215H16.7004H16.6792H16.658H16.6367H16.6153H16.5939H16.5724H16.5508H16.5292H16.5075H16.4858H16.464H16.4421H16.4202H16.3982H16.3762H16.354H16.3319H16.3096H16.2874H16.265H16.2426H16.2201H16.1976H16.175H16.1524H16.1297H16.1069H16.0841H16.0612H16.0383H16.0153H15.9923H15.9692H15.946H15.9228H15.8996H15.8763H15.8529H15.8295H15.806H15.7825H15.7589H15.7352H15.7116H15.6878H15.664H15.6402H15.6163H15.5923H15.5683H15.5443H15.5202H15.4961H15.4719H15.4476H15.4233H15.399H15.3746H15.3502H15.3257H15.3011H15.2766H15.2519H15.2273H15.2025H15.1778H15.153H15.1281H15.1032H15.0783H15.0533H15.0282H15.0032H14.978H14.9529H14.9277H14.9024H14.8771H14.8518H14.8264H14.801H14.7755H14.75H14.7245H14.6989H14.6733H14.6476H14.6219H14.5962H14.5704H14.5446H14.5187H14.4928H14.4669H14.4409H14.4149H14.3889H14.3628H14.3367H14.3106H14.2844H14.2582H14.2319H14.2056H14.1793H14.1529H14.1265H14.1001H14.0737H14.0472H14.0206H13.9941H13.9675H13.9409H13.9142H13.8876H13.8608H13.8341H13.8073H13.7805H13.7537H13.7268H13.6999H13.673H13.6461H13.6191H13.5921H13.5651H13.538H13.5109H13.4838H13.4567H13.4295H13.4023H13.3751H13.3478H13.3206H13.2933H13.266H13.2386H13.2113H13.1839H13.1565H13.129H13.1016H13.0741H13.0466H13.0191H12.9916H12.964H12.9364H12.9088H12.8812H12.8535H12.8259H12.7982H12.7705H12.7428H12.715H12.6873H12.6595H12.6317H12.6039H12.5761H12.5482H12.5204H12.4925H12.4646H12.4367H12.4088H12.3809H12.3529H12.3249H12.297H12.269H12.241H12.213H12.1849H12.1569H12.1288H12.1008H12.0727H12.0446H12.0165H11.9884H11.9603H11.9321H11.904H11.8758H11.8477H11.8195H11.7913H11.7631H11.735H11.7068H11.6785H11.6503H11.6221H11.5939H11.5656H11.5374H11.5092H11.4809H11.4526H11.4244H11.3961H11.3678H11.3396H11.3113H11.283H11.2547H11.2264H11.1981H11.1699H11.1416H11.1133H11.085H11.0567H11.0284H11.0001H10.9718H10.9435H10.9152H10.8869H10.8586H10.8303H10.802H10.7737H10.7454H10.7172H10.6889H10.6606H10.6323H10.6041H10.5758H10.5475H10.5193H10.491H10.4628H10.4345H10.4063H10.3781H10.3498H10.3216H10.2934H10.2652H10.237H10.2088H10.1807H10.1525H10.1243H10.0962H10.068H10.0399H10.0118H9.98367H9.95557H9.92748H9.8994H9.87133H9.84328H9.81524H9.78721H9.75919H9.73118H9.70319H9.67522H9.64725H9.6193H9.59137H9.56345H9.53554H9.50765H9.47978H9.45192H9.42408H9.39625H9.36844H9.34065H9.31288H9.28512H9.25739H9.22967H9.20197H9.17428H9.14662H9.11898H9.09135H9.06375H9.03617H9.00861H8.98106H8.95354H8.92605H8.89857H8.87112H8.84368H8.81628H8.78889H8.76153H8.73419H8.70687H8.67958H8.65232H8.62508H8.59786H8.57067H8.54351H8.51637H8.48925H8.46217H8.43511H8.40808H8.38107H8.3541H8.32715H8.30023H8.27334H8.24648H8.21965H8.19284H8.16607H8.13933H8.11261H8.08593H8.05928H8.03266H8.00607H7.97952H7.953H7.9265H7.90005H7.87362H7.84723H7.82087H7.79455H7.76826H7.74201H7.71579H7.6896H7.66345H7.63734H7.61126H7.58522H7.55922H7.53325H7.50732H7.48143H7.45557H7.42976H7.40398H7.37824H7.35254H7.32688H7.30126H7.27568H7.25014H7.22464H7.19918H7.17376H7.14839H7.12305H7.09776H7.07251H7.0473H7.02213H6.99701H6.97193H6.9469H6.92191H6.89696H6.87206H6.84721H6.82239H6.79763H6.77291H6.74824H6.72361H6.69903H6.6745H6.65001H6.62557H6.60118H6.57684H6.55255H6.5283H6.50411H6.47996H6.45586H6.43182H6.40782H6.38388H6.35998H6.33614H6.31235H6.28861H6.26492H6.24128H6.2177H6.19417H6.17069H6.14727H6.1239H6.10059H6.07733H6.05412H6.03097H6.00787H5.98483H5.96185H5.93892H5.91605H5.89324H5.87048H5.84778H5.82514H5.80255H5.78003H5.75756H5.73515H5.7128H5.69051H5.66828H5.64611H5.62401H5.60196H5.57997H5.55804H5.53618H5.51437H5.49263H5.47096H5.44934H5.42779H5.4063H5.38487H5.36351H5.34221H5.32098H5.29981H5.27871H5.25767H5.2367H5.21579H5.19495H5.17418H5.15347H5.13283H5.11226H5.09176H5.07132H5.05096H5.03066H5.01043H4.99027H4.97017H4.95015H4.9302H4.91032H4.89051H4.87077H4.85111H4.83151H4.81199H4.79253H4.77315H4.75385H4.73461H4.71546H4.69637H4.67736H4.65842H4.63955H4.62077H4.60205H4.58342C3.29034 0.908252 2.24175 1.95685 2.24175 3.24992V19.7499C2.24175 21.043 3.29034 22.0916 4.58342 22.0916H17.4167C18.7098 22.0916 19.7584 21.043 19.7584 19.7499V3.24992ZM18.7418 19.7499C18.7418 20.4818 18.1486 21.0749 17.4167 21.0749H4.58342C3.85157 21.0749 3.25841 20.4818 3.25841 19.7499V19.7274V19.7048V19.682V19.6591V19.6362V19.6131V19.5899V19.5665V19.5431V19.5196V19.4959V19.4722V19.4483V19.4243V19.4003V19.3761V19.3518V19.3274V19.3029V19.2783V19.2535V19.2287V19.2038V19.1787V19.1536V19.1284V19.103V19.0776V19.052V19.0264V19.0006V18.9748V18.9488V18.9228V18.8966V18.8704V18.844V18.8176V18.7911V18.7644V18.7377V18.7109V18.6839V18.6569V18.6298V18.6026V18.5753V18.5479V18.5204V18.4928V18.4651V18.4374V18.4095V18.3816V18.3535V18.3254V18.2972V18.2689V18.2405V18.212V18.1834V18.1548V18.126V18.0972V18.0683V18.0393V18.0102V17.981V17.9518V17.9224V17.893V17.8635V17.8339V17.8043V17.7745V17.7447V17.7148V17.6848V17.6547V17.6246V17.5943V17.564V17.5336V17.5032V17.4727V17.442V17.4114V17.3806V17.3497V17.3188V17.2878V17.2568V17.2256V17.1944V17.1632V17.1318V17.1004V17.0689V17.0373V17.0057V16.974V16.9422V16.9104V16.8785V16.8465V16.8144V16.7823V16.7501V16.7179V16.6856V16.6532V16.6208V16.5882V16.5557V16.523V16.4903V16.4576V16.4248V16.3919V16.3589V16.3259V16.2929V16.2597V16.2266V16.1933V16.16V16.1267V16.0932V16.0598V16.0262V15.9926V15.959V15.9253V15.8915V15.8577V15.8239V15.79V15.756V15.722V15.6879V15.6538V15.6196V15.5854V15.5511V15.5168V15.4824V15.448V15.4135V15.379V15.3444V15.3098V15.2751V15.2404V15.2056V15.1708V15.136V15.1011V15.0661V15.0312V14.9961V14.9611V14.926V14.8908V14.8556V14.8204V14.7851V14.7498V14.7144V14.679V14.6436V14.6081V14.5726V14.5371V14.5015V14.4659V14.4302V14.3945V14.3588V14.323V14.2872V14.2514V14.2155V14.1796V14.1437V14.1077V14.0717V14.0357V13.9996V13.9636V13.9274V13.8913V13.8551V13.8189V13.7827V13.7464V13.7101V13.6738V13.6375V13.6011V13.5647V13.5283V13.4919V13.4554V13.4189V13.3824V13.3459V13.3093V13.2727V13.2361V13.1995V13.1629V13.1262V13.0895V13.0528V13.0161V12.9794V12.9426V12.9058V12.869V12.8322V12.7954V12.7586V12.7217V12.6848V12.648V12.6111V12.5741V12.5372V12.5003V12.4633V12.4264V12.3894V12.3524V12.3154V12.2784V12.2414V12.2044V12.1674V12.1303V12.0933V12.0562V12.0192V11.9821V11.9451V11.908V11.8709V11.8338V11.7967V11.7596V11.7225V11.6854V11.6483V11.6112V11.5741V11.537V11.4999V11.4628V11.4257V11.3886V11.3515V11.3144V11.2773V11.2402V11.2031V11.166V11.1289V11.0919V11.0548V11.0177V10.9807V10.9436V10.9065V10.8695V10.8325V10.7954V10.7584V10.7214V10.6844V10.6474V10.6104V10.5735V10.5365V10.4996V10.4626V10.4257V10.3888V10.3519V10.315V10.2781V10.2413V10.2044V10.1676V10.1308V10.094V10.0572V10.0205V9.98375V9.94703V9.91033V9.87365V9.83698V9.80034V9.76372V9.72712V9.69054V9.65398V9.61745V9.58093V9.54444V9.50798V9.47154V9.43512V9.39873V9.36236V9.32602V9.28971V9.25342V9.21716V9.18093V9.14472V9.10855V9.0724V9.03628V9.00019V8.96414V8.92811V8.89212V8.85615V8.82022V8.78432V8.74846V8.71263V8.67683V8.64107V8.60534V8.56964V8.53399V8.49836V8.46278V8.42723V8.39172V8.35625V8.32081V8.28542V8.25006V8.21475V8.17947V8.14424V8.10904V8.07389V8.03878V8.00371V7.96869V7.9337V7.89876V7.86387V7.82902V7.79422V7.75946V7.72475V7.69008V7.65546V7.62089V7.58636V7.55189V7.51746V7.48308V7.44875V7.41448V7.38025V7.34607V7.31194V7.27787V7.24385V7.20988V7.17596V7.1421V7.10829V7.07454V7.04084V7.0072V6.97361V6.94008V6.9066V6.87319V6.83983V6.80652V6.77328V6.7401V6.70697V6.67391V6.6409V6.60796V6.57507V6.54225V6.50949V6.4768V6.44416V6.41159V6.37909V6.34664V6.31427V6.28196V6.24971V6.21753V6.18542V6.15337V6.12139V6.08948V6.05763V6.02586V5.99415V5.96252V5.93095V5.89946V5.86804V5.83668V5.8054V5.77419V5.74306V5.712V5.68101V5.65009V5.61926V5.58849V5.5578V5.52719V5.49665V5.46619V5.43581V5.4055V5.37528V5.34513V5.31506V5.28507V5.25516V5.22533V5.19558V5.16592V5.13633V5.10683V5.07741V5.04807V5.01881V4.98964V4.96056V4.93156V4.90264V4.87381V4.84507V4.81641V4.78784V4.75936V4.73097V4.70266V4.67444V4.64631V4.61828V4.59033V4.56247V4.53471V4.50703V4.47945V4.45196V4.42456V4.39726V4.37005V4.34293V4.31591V4.28899V4.26216V4.23542V4.20878V4.18224V4.1558V4.12945V4.10321V4.07706V4.05101V4.02506V3.99921V3.97346V3.94781V3.92226V3.89682V3.87148V3.84624V3.8211V3.79606V3.77113V3.74631V3.72159V3.69698V3.67247V3.64806V3.62377V3.59958V3.5755V3.55153V3.52766V3.50391V3.48026V3.45673V3.4333V3.40998V3.38678V3.36369V3.34071V3.31784V3.29509V3.27245V3.24992C3.25841 2.51807 3.85157 1.92492 4.58342 1.92492H17.4167C18.1486 1.92492 18.7418 2.51807 18.7418 3.24992V19.7499Z" fill="#585858" stroke="#585858" stroke-width="0.1"/>
<path d="M6.41675 4.575C5.63013 4.575 4.99175 5.21339 4.99175 6C4.99175 6.78661 5.63013 7.425 6.41675 7.425C7.20336 7.425 7.84175 6.78661 7.84175 6C7.84175 5.21339 7.20336 4.575 6.41675 4.575ZM6.41675 5.59167C6.64213 5.59167 6.82508 5.77461 6.82508 6C6.82508 6.22539 6.64213 6.40833 6.41675 6.40833C6.19136 6.40833 6.00841 6.22539 6.00841 6C6.00841 5.77461 6.19136 5.59167 6.41675 5.59167Z" fill="#585858" stroke="#585858" stroke-width="0.1"/>
<path d="M6.41675 10.075C5.63013 10.075 4.99175 10.7134 4.99175 11.5C4.99175 12.2866 5.63013 12.925 6.41675 12.925C7.20336 12.925 7.84175 12.2866 7.84175 11.5C7.84175 10.7134 7.20336 10.075 6.41675 10.075ZM6.41675 11.0917C6.64213 11.0917 6.82508 11.2746 6.82508 11.5C6.82508 11.7254 6.64213 11.9083 6.41675 11.9083C6.19136 11.9083 6.00841 11.7254 6.00841 11.5C6.00841 11.2746 6.19136 11.0917 6.41675 11.0917Z" fill="#585858" stroke="#585858" stroke-width="0.1"/>
<path d="M6.41675 15.575C5.63013 15.575 4.99175 16.2134 4.99175 17C4.99175 17.7866 5.63013 18.425 6.41675 18.425C7.20336 18.425 7.84175 17.7866 7.84175 17C7.84175 16.2134 7.20336 15.575 6.41675 15.575ZM6.41675 16.5917C6.64213 16.5917 6.82508 16.7746 6.82508 17C6.82508 17.2254 6.64213 17.4083 6.41675 17.4083C6.19136 17.4083 6.00841 17.2254 6.00841 17C6.00841 16.7746 6.19136 16.5917 6.41675 16.5917Z" fill="#585858" stroke="#585858" stroke-width="0.1"/>
<path d="M9.16683 5.59167H16.5002C16.7808 5.59167 17.0085 5.36395 17.0085 5.08333C17.0085 4.80272 16.7808 4.575 16.5002 4.575H9.16683C8.88622 4.575 8.6585 4.80272 8.6585 5.08333C8.6585 5.36395 8.88622 5.59167 9.16683 5.59167Z" fill="#585858" stroke="#585858" stroke-width="0.1"/>
<path d="M9.16683 11.0917H16.5002C16.7808 11.0917 17.0085 10.8639 17.0085 10.5833C17.0085 10.3027 16.7808 10.075 16.5002 10.075H9.16683C8.88622 10.075 8.6585 10.3027 8.6585 10.5833C8.6585 10.8639 8.88622 11.0917 9.16683 11.0917Z" fill="#585858" stroke="#585858" stroke-width="0.1"/>
<path d="M9.16683 16.5917H16.5002C16.7808 16.5917 17.0085 16.3639 17.0085 16.0833C17.0085 15.8027 16.7808 15.575 16.5002 15.575H9.16683C8.88622 15.575 8.6585 15.8027 8.6585 16.0833C8.6585 16.3639 8.88622 16.5917 9.16683 16.5917Z" fill="#585858" stroke="#585858" stroke-width="0.1"/>
<path d="M9.16683 7.42492H13.7502C14.0308 7.42492 14.2585 7.1972 14.2585 6.91659C14.2585 6.63597 14.0308 6.40825 13.7502 6.40825H9.16683C8.88622 6.40825 8.6585 6.63597 8.6585 6.91659C8.6585 7.1972 8.88622 7.42492 9.16683 7.42492Z" fill="#585858" stroke="#585858" stroke-width="0.1"/>
<path d="M9.16683 12.9249H13.7502C14.0308 12.9249 14.2585 12.6972 14.2585 12.4166C14.2585 12.136 14.0308 11.9083 13.7502 11.9083H9.16683C8.88622 11.9083 8.6585 12.136 8.6585 12.4166C8.6585 12.6972 8.88622 12.9249 9.16683 12.9249Z" fill="#585858" stroke="#585858" stroke-width="0.1"/>
<path d="M9.16683 18.4249H13.7502C14.0308 18.4249 14.2585 18.1972 14.2585 17.9166C14.2585 17.636 14.0308 17.4083 13.7502 17.4083H9.16683C8.88622 17.4083 8.6585 17.636 8.6585 17.9166C8.6585 18.1972 8.88622 18.4249 9.16683 18.4249Z" fill="#585858" stroke="#585858" stroke-width="0.1"/>
<path d="M16.5 6.40825H15.5833C15.3027 6.40825 15.075 6.63597 15.075 6.91659C15.075 7.1972 15.3027 7.42492 15.5833 7.42492H16.5C16.7806 7.42492 17.0083 7.1972 17.0083 6.91659C17.0083 6.63597 16.7806 6.40825 16.5 6.40825Z" fill="#585858" stroke="#585858" stroke-width="0.1"/>
<path d="M16.5 11.9083H15.5833C15.3027 11.9083 15.075 12.136 15.075 12.4166C15.075 12.6972 15.3027 12.9249 15.5833 12.9249H16.5C16.7806 12.9249 17.0083 12.6972 17.0083 12.4166C17.0083 12.136 16.7806 11.9083 16.5 11.9083Z" fill="#585858" stroke="#585858" stroke-width="0.1"/>
<path d="M16.5 17.4083H15.5833C15.3027 17.4083 15.075 17.636 15.075 17.9166C15.075 18.1972 15.3027 18.4249 15.5833 18.4249H16.5C16.7806 18.4249 17.0083 18.1972 17.0083 17.9166C17.0083 17.636 16.7806 17.4083 16.5 17.4083Z" fill="#585858" stroke="#585858" stroke-width="0.1"/>
</g>
<defs>
<clipPath id="clip0_872_6707">
<rect width="22" height="22" fill="white" transform="translate(0 0.5)"/>
</clipPath>
</defs>
</svg>
