<svg width="19" height="19" viewBox="0 0 19 19" fill="none" xmlns="http://www.w3.org/2000/svg">
<path d="M0.59375 4.95827H10.2612C10.5279 6.03571 11.5025 6.83701 12.6612 6.83701C13.8199 6.83701 14.7945 6.03571 15.0612 4.95827H18.4062C18.7341 4.95827 19 4.69242 19 4.36452C19 4.03662 18.7341 3.77077 18.4062 3.77077H15.0611C14.7945 2.69334 13.8199 1.892 12.6612 1.892C11.5025 1.892 10.5278 2.69334 10.2612 3.77077H0.59375C0.265852 3.77077 0 4.03662 0 4.36452C0 4.69242 0.265852 4.95827 0.59375 4.95827ZM12.6612 3.0795C13.3698 3.0795 13.9462 3.65596 13.9462 4.36448C13.9462 5.07305 13.3698 5.64951 12.6612 5.64951C11.9526 5.64951 11.3762 5.07305 11.3762 4.36448C11.3762 3.65596 11.9526 3.0795 12.6612 3.0795ZM0.59375 10.0938H3.93886C4.20553 11.1712 5.18013 11.9725 6.33884 11.9725C7.49754 11.9725 8.47215 11.1712 8.73881 10.0938H18.4062C18.7341 10.0938 19 9.82791 19 9.50001C19 9.17212 18.7341 8.90626 18.4062 8.90626H8.73878C8.47211 7.82883 7.4975 7.02749 6.3388 7.02749C5.1801 7.02749 4.20549 7.82883 3.93883 8.90626H0.59375C0.265852 8.90626 0 9.17212 0 9.50001C0 9.82791 0.265814 10.0938 0.59375 10.0938ZM6.3388 8.21499C7.04737 8.21499 7.62382 8.79145 7.62382 9.50001C7.62382 10.2085 7.04737 10.785 6.3388 10.785C5.63023 10.785 5.05378 10.2085 5.05378 9.50001C5.05378 8.79145 5.63023 8.21499 6.3388 8.21499ZM18.4062 14.0418H15.0611C14.7945 12.9643 13.8199 12.163 12.6612 12.163C11.5025 12.163 10.5279 12.9643 10.2612 14.0418H0.59375C0.265852 14.0418 0 14.3076 0 14.6355C0 14.9634 0.265852 15.2293 0.59375 15.2293H10.2612C10.5279 16.3067 11.5025 17.108 12.6612 17.108C13.8199 17.108 14.7945 16.3067 15.0612 15.2293H18.4062C18.7341 15.2293 19 14.9634 19 14.6355C19 14.3076 18.7342 14.0418 18.4062 14.0418ZM12.6612 15.9205C11.9526 15.9205 11.3762 15.3441 11.3762 14.6355C11.3762 13.9269 11.9526 13.3505 12.6612 13.3505C13.3698 13.3505 13.9462 13.9269 13.9462 14.6355C13.9462 15.3441 13.3698 15.9205 12.6612 15.9205Z" fill="#585858"/>
</svg>
