<svg width="22" height="22" viewBox="0 0 22 22" fill="none" xmlns="http://www.w3.org/2000/svg">
<mask id="path-1-outside-1_2002_11157" maskUnits="userSpaceOnUse" x="0.0438385" y="-0.166992" width="21" height="22" fill="black">
<rect fill="white" x="0.0438385" y="-0.166992" width="21" height="22"/>
<path d="M19.6883 1.45208C18.8633 0.627075 17.5213 0.626229 16.6972 1.45208L15.3501 2.80169C15.3501 2.80169 15.3433 2.80508 15.3408 2.80761C15.3382 2.81015 15.3374 2.81438 15.3348 2.81692L10.4238 7.739C9.71469 8.44808 9.30854 9.42877 9.30854 10.4315V11.4232C9.30854 11.6567 9.49807 11.8462 9.73161 11.8462H10.7233C11.726 11.8462 12.7067 11.4401 13.4158 10.731L19.6891 4.44323C20.0894 4.043 20.3085 3.51161 20.3085 2.94723C20.3085 2.38284 20.0885 1.85061 19.6891 1.45123L19.6883 1.45208ZM12.8167 10.1328C12.2658 10.6836 11.5018 11.0001 10.7225 11.0001H10.1538V10.4315C10.1538 9.65215 10.4703 8.88892 11.0212 8.33723L15.6412 3.70708L17.4358 5.50177L12.8158 10.1319L12.8167 10.1328ZM19.0901 3.845L18.0341 4.90269L16.2394 3.108L17.2954 2.05031C17.7895 1.55615 18.5959 1.55615 19.0901 2.05031C19.3295 2.28977 19.4615 2.60792 19.4615 2.94808C19.4615 3.28823 19.3295 3.60554 19.0901 3.84584V3.845ZM19.1874 14.3965C19.3388 14.9415 19.2686 15.5118 18.9894 16.0034C18.7118 16.495 18.2583 16.8487 17.7134 17.0002C17.1676 17.1508 16.599 17.0814 16.1065 16.8013L15.4711 16.4417C14.5716 17.3225 13.4758 17.9614 12.2701 18.31V19.0385C12.2701 20.2054 11.3215 21.1539 10.1547 21.1539C8.98784 21.1539 8.0393 20.2054 8.0393 19.0385V18.31C6.83354 17.9614 5.73777 17.3225 4.8383 16.4417L4.202 16.8022C3.70953 17.0814 3.13753 17.1482 2.596 17.0002C2.05107 16.8487 1.59753 16.495 1.31915 16.0025C1.04077 15.5118 0.970535 14.9406 1.122 14.3965C1.27261 13.8516 1.62715 13.3981 2.11877 13.1197L2.75169 12.7618C2.61123 12.1771 2.54015 11.5848 2.54015 11.0001C2.54015 10.4154 2.61123 9.82308 2.75169 9.23838L2.11877 8.88046C1.62715 8.60123 1.27261 8.14854 1.122 7.60361C0.970535 7.05869 1.04077 6.48838 1.32 5.99677C1.59753 5.50515 2.05107 5.15146 2.596 5C3.14177 4.85108 3.71038 4.91877 4.20284 5.19884L4.8383 5.55846C5.73777 4.67761 6.83354 4.03877 8.0393 3.69015V2.96161C8.0393 1.79477 8.98784 0.846229 10.1547 0.846229C11.3215 0.846229 12.2701 1.79477 12.2701 2.96161V3.80777C12.2701 4.04131 12.0805 4.23084 11.847 4.23084C11.6135 4.23084 11.4239 4.04131 11.4239 3.80777V2.96161C11.4239 2.26184 10.8545 1.69238 10.1547 1.69238C9.45492 1.69238 8.88546 2.26184 8.88546 2.96161V4.01592C8.88546 4.21054 8.75177 4.38146 8.56138 4.42715C7.28115 4.73684 6.12615 5.41038 5.22161 6.37584C5.08707 6.518 4.87469 6.54931 4.70461 6.45538L3.78569 5.93584C3.49038 5.76831 3.14769 5.72769 2.82107 5.81569C2.49446 5.90623 2.22284 6.11861 2.05615 6.41392C1.88861 6.70923 1.8463 7.05107 1.93684 7.37769C2.02653 7.70515 2.23892 7.97677 2.53507 8.14431L3.45061 8.66215C3.62069 8.75861 3.70277 8.95915 3.64861 9.14615C3.47346 9.76131 3.38461 10.3849 3.38461 10.9992C3.38461 11.6135 3.47261 12.238 3.64861 12.8523C3.70192 13.0402 3.62069 13.2398 3.45061 13.3363L2.53423 13.855C2.23892 14.0217 2.02653 14.2942 1.93684 14.6199C1.8463 14.9474 1.88777 15.2892 2.0553 15.5837C2.22284 15.8798 2.4953 16.0922 2.82107 16.1828C3.14769 16.2725 3.48953 16.231 3.78484 16.0635L4.70461 15.5431C4.87553 15.45 5.08792 15.4805 5.22161 15.6226C6.12615 16.5881 7.282 17.2616 8.56138 17.5713C8.75177 17.6178 8.88546 17.7879 8.88546 17.9825V19.0368C8.88546 19.7366 9.45492 20.3061 10.1547 20.3061C10.8545 20.3061 11.4239 19.7366 11.4239 19.0368V17.9825C11.4239 17.7879 11.5576 17.617 11.748 17.5713C13.0282 17.2616 14.1832 16.5881 15.0878 15.6226C15.2215 15.4796 15.4338 15.4483 15.6048 15.5431L16.5237 16.0626C16.8198 16.2302 17.1625 16.2725 17.4883 16.1828C17.8149 16.0922 18.0865 15.8798 18.2532 15.5845C18.4208 15.2892 18.4631 14.9474 18.3725 14.6199C18.2828 14.2933 18.0705 14.0217 17.7752 13.855L16.8588 13.3363C16.6887 13.2398 16.6066 13.0393 16.6608 12.8523C16.8359 12.2372 16.9248 11.6135 16.9248 10.9992C16.9248 10.6007 16.8875 10.2005 16.8156 9.807C16.7725 9.57769 16.9248 9.35684 17.1541 9.31454C17.38 9.26884 17.6042 9.42284 17.6465 9.653C17.7295 10.0964 17.7701 10.5499 17.7701 10.9992C17.7701 11.5839 17.699 12.1762 17.5585 12.7609L18.1915 13.1188C18.6831 13.3972 19.0376 13.8508 19.1882 14.3957L19.1874 14.3965ZM7.00446 9.75961C6.62877 10.7141 6.70915 11.7921 7.23207 12.7973C7.48084 13.2745 7.88107 13.6748 8.3583 13.9235C9.36269 14.4456 10.4407 14.526 11.396 14.1512C12.309 13.7907 13.0206 13.0537 13.3472 12.1288C13.4268 11.9088 13.6679 11.7938 13.8879 11.8708C14.1079 11.9495 14.223 12.1906 14.146 12.4115C13.7373 13.5673 12.848 14.4879 11.7065 14.9372C11.2098 15.1335 10.6878 15.2308 10.1589 15.2308C9.42615 15.2308 8.68069 15.0438 7.96907 14.6741C7.33784 14.3466 6.80984 13.8186 6.48238 13.1874C5.84438 11.963 5.7513 10.6345 6.21838 9.44992C6.66769 8.30846 7.5883 7.42 8.74415 7.01046C8.965 6.93177 9.2053 7.04769 9.28484 7.26854C9.36269 7.48938 9.24677 7.73054 9.02677 7.80923C8.10192 8.13584 7.36492 8.84661 7.00446 9.75961Z"/>
</mask>
<path d="M19.6883 1.45208C18.8633 0.627075 17.5213 0.626229 16.6972 1.45208L15.3501 2.80169C15.3501 2.80169 15.3433 2.80508 15.3408 2.80761C15.3382 2.81015 15.3374 2.81438 15.3348 2.81692L10.4238 7.739C9.71469 8.44808 9.30854 9.42877 9.30854 10.4315V11.4232C9.30854 11.6567 9.49807 11.8462 9.73161 11.8462H10.7233C11.726 11.8462 12.7067 11.4401 13.4158 10.731L19.6891 4.44323C20.0894 4.043 20.3085 3.51161 20.3085 2.94723C20.3085 2.38284 20.0885 1.85061 19.6891 1.45123L19.6883 1.45208ZM12.8167 10.1328C12.2658 10.6836 11.5018 11.0001 10.7225 11.0001H10.1538V10.4315C10.1538 9.65215 10.4703 8.88892 11.0212 8.33723L15.6412 3.70708L17.4358 5.50177L12.8158 10.1319L12.8167 10.1328ZM19.0901 3.845L18.0341 4.90269L16.2394 3.108L17.2954 2.05031C17.7895 1.55615 18.5959 1.55615 19.0901 2.05031C19.3295 2.28977 19.4615 2.60792 19.4615 2.94808C19.4615 3.28823 19.3295 3.60554 19.0901 3.84584V3.845ZM19.1874 14.3965C19.3388 14.9415 19.2686 15.5118 18.9894 16.0034C18.7118 16.495 18.2583 16.8487 17.7134 17.0002C17.1676 17.1508 16.599 17.0814 16.1065 16.8013L15.4711 16.4417C14.5716 17.3225 13.4758 17.9614 12.2701 18.31V19.0385C12.2701 20.2054 11.3215 21.1539 10.1547 21.1539C8.98784 21.1539 8.0393 20.2054 8.0393 19.0385V18.31C6.83354 17.9614 5.73777 17.3225 4.8383 16.4417L4.202 16.8022C3.70953 17.0814 3.13753 17.1482 2.596 17.0002C2.05107 16.8487 1.59753 16.495 1.31915 16.0025C1.04077 15.5118 0.970535 14.9406 1.122 14.3965C1.27261 13.8516 1.62715 13.3981 2.11877 13.1197L2.75169 12.7618C2.61123 12.1771 2.54015 11.5848 2.54015 11.0001C2.54015 10.4154 2.61123 9.82308 2.75169 9.23838L2.11877 8.88046C1.62715 8.60123 1.27261 8.14854 1.122 7.60361C0.970535 7.05869 1.04077 6.48838 1.32 5.99677C1.59753 5.50515 2.05107 5.15146 2.596 5C3.14177 4.85108 3.71038 4.91877 4.20284 5.19884L4.8383 5.55846C5.73777 4.67761 6.83354 4.03877 8.0393 3.69015V2.96161C8.0393 1.79477 8.98784 0.846229 10.1547 0.846229C11.3215 0.846229 12.2701 1.79477 12.2701 2.96161V3.80777C12.2701 4.04131 12.0805 4.23084 11.847 4.23084C11.6135 4.23084 11.4239 4.04131 11.4239 3.80777V2.96161C11.4239 2.26184 10.8545 1.69238 10.1547 1.69238C9.45492 1.69238 8.88546 2.26184 8.88546 2.96161V4.01592C8.88546 4.21054 8.75177 4.38146 8.56138 4.42715C7.28115 4.73684 6.12615 5.41038 5.22161 6.37584C5.08707 6.518 4.87469 6.54931 4.70461 6.45538L3.78569 5.93584C3.49038 5.76831 3.14769 5.72769 2.82107 5.81569C2.49446 5.90623 2.22284 6.11861 2.05615 6.41392C1.88861 6.70923 1.8463 7.05107 1.93684 7.37769C2.02653 7.70515 2.23892 7.97677 2.53507 8.14431L3.45061 8.66215C3.62069 8.75861 3.70277 8.95915 3.64861 9.14615C3.47346 9.76131 3.38461 10.3849 3.38461 10.9992C3.38461 11.6135 3.47261 12.238 3.64861 12.8523C3.70192 13.0402 3.62069 13.2398 3.45061 13.3363L2.53423 13.855C2.23892 14.0217 2.02653 14.2942 1.93684 14.6199C1.8463 14.9474 1.88777 15.2892 2.0553 15.5837C2.22284 15.8798 2.4953 16.0922 2.82107 16.1828C3.14769 16.2725 3.48953 16.231 3.78484 16.0635L4.70461 15.5431C4.87553 15.45 5.08792 15.4805 5.22161 15.6226C6.12615 16.5881 7.282 17.2616 8.56138 17.5713C8.75177 17.6178 8.88546 17.7879 8.88546 17.9825V19.0368C8.88546 19.7366 9.45492 20.3061 10.1547 20.3061C10.8545 20.3061 11.4239 19.7366 11.4239 19.0368V17.9825C11.4239 17.7879 11.5576 17.617 11.748 17.5713C13.0282 17.2616 14.1832 16.5881 15.0878 15.6226C15.2215 15.4796 15.4338 15.4483 15.6048 15.5431L16.5237 16.0626C16.8198 16.2302 17.1625 16.2725 17.4883 16.1828C17.8149 16.0922 18.0865 15.8798 18.2532 15.5845C18.4208 15.2892 18.4631 14.9474 18.3725 14.6199C18.2828 14.2933 18.0705 14.0217 17.7752 13.855L16.8588 13.3363C16.6887 13.2398 16.6066 13.0393 16.6608 12.8523C16.8359 12.2372 16.9248 11.6135 16.9248 10.9992C16.9248 10.6007 16.8875 10.2005 16.8156 9.807C16.7725 9.57769 16.9248 9.35684 17.1541 9.31454C17.38 9.26884 17.6042 9.42284 17.6465 9.653C17.7295 10.0964 17.7701 10.5499 17.7701 10.9992C17.7701 11.5839 17.699 12.1762 17.5585 12.7609L18.1915 13.1188C18.6831 13.3972 19.0376 13.8508 19.1882 14.3957L19.1874 14.3965ZM7.00446 9.75961C6.62877 10.7141 6.70915 11.7921 7.23207 12.7973C7.48084 13.2745 7.88107 13.6748 8.3583 13.9235C9.36269 14.4456 10.4407 14.526 11.396 14.1512C12.309 13.7907 13.0206 13.0537 13.3472 12.1288C13.4268 11.9088 13.6679 11.7938 13.8879 11.8708C14.1079 11.9495 14.223 12.1906 14.146 12.4115C13.7373 13.5673 12.848 14.4879 11.7065 14.9372C11.2098 15.1335 10.6878 15.2308 10.1589 15.2308C9.42615 15.2308 8.68069 15.0438 7.96907 14.6741C7.33784 14.3466 6.80984 13.8186 6.48238 13.1874C5.84438 11.963 5.7513 10.6345 6.21838 9.44992C6.66769 8.30846 7.5883 7.42 8.74415 7.01046C8.965 6.93177 9.2053 7.04769 9.28484 7.26854C9.36269 7.48938 9.24677 7.73054 9.02677 7.80923C8.10192 8.13584 7.36492 8.84661 7.00446 9.75961Z" fill="black"/>
<path d="M19.6883 1.45208C18.8633 0.627075 17.5213 0.626229 16.6972 1.45208L15.3501 2.80169C15.3501 2.80169 15.3433 2.80508 15.3408 2.80761C15.3382 2.81015 15.3374 2.81438 15.3348 2.81692L10.4238 7.739C9.71469 8.44808 9.30854 9.42877 9.30854 10.4315V11.4232C9.30854 11.6567 9.49807 11.8462 9.73161 11.8462H10.7233C11.726 11.8462 12.7067 11.4401 13.4158 10.731L19.6891 4.44323C20.0894 4.043 20.3085 3.51161 20.3085 2.94723C20.3085 2.38284 20.0885 1.85061 19.6891 1.45123L19.6883 1.45208ZM12.8167 10.1328C12.2658 10.6836 11.5018 11.0001 10.7225 11.0001H10.1538V10.4315C10.1538 9.65215 10.4703 8.88892 11.0212 8.33723L15.6412 3.70708L17.4358 5.50177L12.8158 10.1319L12.8167 10.1328ZM19.0901 3.845L18.0341 4.90269L16.2394 3.108L17.2954 2.05031C17.7895 1.55615 18.5959 1.55615 19.0901 2.05031C19.3295 2.28977 19.4615 2.60792 19.4615 2.94808C19.4615 3.28823 19.3295 3.60554 19.0901 3.84584V3.845ZM19.1874 14.3965C19.3388 14.9415 19.2686 15.5118 18.9894 16.0034C18.7118 16.495 18.2583 16.8487 17.7134 17.0002C17.1676 17.1508 16.599 17.0814 16.1065 16.8013L15.4711 16.4417C14.5716 17.3225 13.4758 17.9614 12.2701 18.31V19.0385C12.2701 20.2054 11.3215 21.1539 10.1547 21.1539C8.98784 21.1539 8.0393 20.2054 8.0393 19.0385V18.31C6.83354 17.9614 5.73777 17.3225 4.8383 16.4417L4.202 16.8022C3.70953 17.0814 3.13753 17.1482 2.596 17.0002C2.05107 16.8487 1.59753 16.495 1.31915 16.0025C1.04077 15.5118 0.970535 14.9406 1.122 14.3965C1.27261 13.8516 1.62715 13.3981 2.11877 13.1197L2.75169 12.7618C2.61123 12.1771 2.54015 11.5848 2.54015 11.0001C2.54015 10.4154 2.61123 9.82308 2.75169 9.23838L2.11877 8.88046C1.62715 8.60123 1.27261 8.14854 1.122 7.60361C0.970535 7.05869 1.04077 6.48838 1.32 5.99677C1.59753 5.50515 2.05107 5.15146 2.596 5C3.14177 4.85108 3.71038 4.91877 4.20284 5.19884L4.8383 5.55846C5.73777 4.67761 6.83354 4.03877 8.0393 3.69015V2.96161C8.0393 1.79477 8.98784 0.846229 10.1547 0.846229C11.3215 0.846229 12.2701 1.79477 12.2701 2.96161V3.80777C12.2701 4.04131 12.0805 4.23084 11.847 4.23084C11.6135 4.23084 11.4239 4.04131 11.4239 3.80777V2.96161C11.4239 2.26184 10.8545 1.69238 10.1547 1.69238C9.45492 1.69238 8.88546 2.26184 8.88546 2.96161V4.01592C8.88546 4.21054 8.75177 4.38146 8.56138 4.42715C7.28115 4.73684 6.12615 5.41038 5.22161 6.37584C5.08707 6.518 4.87469 6.54931 4.70461 6.45538L3.78569 5.93584C3.49038 5.76831 3.14769 5.72769 2.82107 5.81569C2.49446 5.90623 2.22284 6.11861 2.05615 6.41392C1.88861 6.70923 1.8463 7.05107 1.93684 7.37769C2.02653 7.70515 2.23892 7.97677 2.53507 8.14431L3.45061 8.66215C3.62069 8.75861 3.70277 8.95915 3.64861 9.14615C3.47346 9.76131 3.38461 10.3849 3.38461 10.9992C3.38461 11.6135 3.47261 12.238 3.64861 12.8523C3.70192 13.0402 3.62069 13.2398 3.45061 13.3363L2.53423 13.855C2.23892 14.0217 2.02653 14.2942 1.93684 14.6199C1.8463 14.9474 1.88777 15.2892 2.0553 15.5837C2.22284 15.8798 2.4953 16.0922 2.82107 16.1828C3.14769 16.2725 3.48953 16.231 3.78484 16.0635L4.70461 15.5431C4.87553 15.45 5.08792 15.4805 5.22161 15.6226C6.12615 16.5881 7.282 17.2616 8.56138 17.5713C8.75177 17.6178 8.88546 17.7879 8.88546 17.9825V19.0368C8.88546 19.7366 9.45492 20.3061 10.1547 20.3061C10.8545 20.3061 11.4239 19.7366 11.4239 19.0368V17.9825C11.4239 17.7879 11.5576 17.617 11.748 17.5713C13.0282 17.2616 14.1832 16.5881 15.0878 15.6226C15.2215 15.4796 15.4338 15.4483 15.6048 15.5431L16.5237 16.0626C16.8198 16.2302 17.1625 16.2725 17.4883 16.1828C17.8149 16.0922 18.0865 15.8798 18.2532 15.5845C18.4208 15.2892 18.4631 14.9474 18.3725 14.6199C18.2828 14.2933 18.0705 14.0217 17.7752 13.855L16.8588 13.3363C16.6887 13.2398 16.6066 13.0393 16.6608 12.8523C16.8359 12.2372 16.9248 11.6135 16.9248 10.9992C16.9248 10.6007 16.8875 10.2005 16.8156 9.807C16.7725 9.57769 16.9248 9.35684 17.1541 9.31454C17.38 9.26884 17.6042 9.42284 17.6465 9.653C17.7295 10.0964 17.7701 10.5499 17.7701 10.9992C17.7701 11.5839 17.699 12.1762 17.5585 12.7609L18.1915 13.1188C18.6831 13.3972 19.0376 13.8508 19.1882 14.3957L19.1874 14.3965ZM7.00446 9.75961C6.62877 10.7141 6.70915 11.7921 7.23207 12.7973C7.48084 13.2745 7.88107 13.6748 8.3583 13.9235C9.36269 14.4456 10.4407 14.526 11.396 14.1512C12.309 13.7907 13.0206 13.0537 13.3472 12.1288C13.4268 11.9088 13.6679 11.7938 13.8879 11.8708C14.1079 11.9495 14.223 12.1906 14.146 12.4115C13.7373 13.5673 12.848 14.4879 11.7065 14.9372C11.2098 15.1335 10.6878 15.2308 10.1589 15.2308C9.42615 15.2308 8.68069 15.0438 7.96907 14.6741C7.33784 14.3466 6.80984 13.8186 6.48238 13.1874C5.84438 11.963 5.7513 10.6345 6.21838 9.44992C6.66769 8.30846 7.5883 7.42 8.74415 7.01046C8.965 6.93177 9.2053 7.04769 9.28484 7.26854C9.36269 7.48938 9.24677 7.73054 9.02677 7.80923C8.10192 8.13584 7.36492 8.84661 7.00446 9.75961Z" stroke="black" stroke-width="0.3" mask="url(#path-1-outside-1_2002_11157)"/>
</svg>
