<svg width="17" height="19" viewBox="0 0 17 19" fill="none" xmlns="http://www.w3.org/2000/svg">
<g clip-path="url(#clip0_467_16841)">
<path d="M1.78507 4.02014C1.88884 3.89064 1.99261 3.76029 2.09638 3.63079L2.09395 3.62743C2.10368 3.61818 2.11341 3.60809 2.12395 3.59884C2.40689 3.2776 2.70361 2.96982 3.01655 2.67886C3.03439 2.67382 3.04574 2.66205 3.04655 2.64186L3.04574 2.64523C3.09924 2.6015 3.15275 2.55861 3.20626 2.51488C3.21437 2.50816 3.22329 2.50059 3.23139 2.49302C3.29544 2.46022 3.34327 2.4064 3.39597 2.35931C3.48596 2.28867 3.57514 2.21888 3.66513 2.14824C3.7081 2.1331 3.74296 2.10619 3.77376 2.07256C4.0032 1.92455 4.23263 1.77739 4.46207 1.62939C4.5853 1.57137 4.70609 1.50998 4.8204 1.43514C4.83824 1.43261 4.85932 1.43682 4.86743 1.41159C4.96958 1.36198 5.07254 1.3132 5.17469 1.26359C5.41953 1.1652 5.66437 1.06681 5.91001 0.968422C6.03243 0.933944 6.15728 0.907035 6.27484 0.853216C6.38185 0.823783 6.48887 0.794351 6.59588 0.765759C6.6729 0.774169 6.73938 0.734645 6.81072 0.716986C6.87072 0.686712 6.94287 0.714463 7.00124 0.67494C7.12042 0.650553 7.24527 0.656439 7.35796 0.600097C7.4439 0.590006 7.52983 0.579915 7.61577 0.569824C7.74467 0.594211 7.8679 0.542914 7.99519 0.545437C8.12733 0.510118 8.26354 0.532823 8.39649 0.52105C8.41109 0.524414 8.41838 0.516846 8.42082 0.503391L8.43217 0.501709L8.44352 0.504232C8.45162 0.516005 8.45973 0.519368 8.47027 0.506755C8.60323 0.506755 8.737 0.506755 8.86995 0.506755C8.89428 0.531982 8.92184 0.526937 8.9494 0.516846C8.98427 0.516846 9.01994 0.518527 9.0548 0.519368C9.06534 0.52105 9.07507 0.522732 9.08561 0.525255C9.23478 0.534505 9.38395 0.544596 9.53393 0.554687C9.63284 0.601779 9.7431 0.554687 9.84282 0.596734C9.93038 0.612711 10.0179 0.62953 10.1047 0.645507C10.3625 0.664848 10.6089 0.748941 10.8619 0.792669C10.9778 0.836397 11.0946 0.876762 11.2186 0.891057C11.3435 0.938149 11.4618 1.00626 11.5972 1.0172C11.6288 1.05167 11.6661 1.0727 11.714 1.06933C11.7813 1.10886 11.8534 1.13745 11.928 1.15595C12.0488 1.2022 12.1534 1.28797 12.2847 1.30984C12.5206 1.4385 12.7557 1.56716 12.9917 1.69582C12.999 1.72189 13.0184 1.72946 13.0427 1.7303C13.0598 1.75385 13.0841 1.76057 13.1108 1.76226L13.1084 1.75973C13.1716 1.82785 13.2503 1.87326 13.3281 1.91867C13.5624 2.09442 13.7959 2.27017 14.0302 2.44593C14.0691 2.48041 14.108 2.51488 14.1461 2.54852L14.1502 2.54684C14.1672 2.56282 14.1842 2.57963 14.2004 2.59561L14.1988 2.59393C14.224 2.61748 14.2491 2.64102 14.275 2.66457C14.3034 2.7083 14.3415 2.74025 14.3853 2.76548C14.4007 2.80837 14.4623 2.81846 14.4558 2.87564C14.3196 2.98832 14.2021 3.12119 14.0837 3.25237L14.0351 3.30283C13.8145 3.53156 13.5932 3.76113 13.3727 3.98987C13.3565 4.00668 13.3403 4.0235 13.3241 4.04032C13.23 4.13787 13.1352 4.23626 13.0411 4.3338C13.0249 4.35062 13.0087 4.36744 12.9925 4.38426C12.8903 4.49022 12.7882 4.59617 12.6852 4.70297C12.6544 4.72063 12.6301 4.74586 12.6131 4.77781C12.519 4.87536 12.4242 4.97375 12.3301 5.0713C12.2993 5.08895 12.275 5.11418 12.258 5.14614C12.2134 5.19071 12.1607 5.22939 12.125 5.27984C12.061 5.37235 11.9993 5.37655 11.9272 5.29414C11.7399 5.08895 11.5161 4.9317 11.2867 4.7837C11.2405 4.75511 11.1935 4.72736 11.1473 4.69877C11.0581 4.63317 10.9649 4.57347 10.8603 4.53647C10.8222 4.51881 10.7833 4.50283 10.746 4.48349C10.6462 4.43219 10.5522 4.36576 10.4355 4.35819C10.3617 4.29008 10.2628 4.2926 10.176 4.2598C10.0625 4.20682 9.94092 4.18244 9.8185 4.16141C9.69608 4.11769 9.5688 4.10171 9.4407 4.08825C9.3499 4.03696 9.24451 4.08825 9.15209 4.04453C9.0021 4.05209 8.85455 4.00332 8.70457 4.02014C8.63322 4.02687 8.56269 4.02939 8.49054 4.01846C8.45243 4.01341 8.40379 3.99323 8.37055 4.0378C8.25137 4.03107 8.13382 4.05378 8.01545 4.06555C7.89304 4.05294 7.78116 4.11937 7.65955 4.11769C7.54118 4.15048 7.42363 4.18328 7.30526 4.21607C7.18284 4.2413 7.06448 4.2783 6.9526 4.33633C6.85612 4.34726 6.77748 4.40865 6.68749 4.43724C6.38023 4.58019 6.08108 4.73829 5.80867 4.946C5.75111 4.96366 5.7122 5.00823 5.66923 5.04775L5.48763 5.18987C5.40737 5.25041 5.32711 5.31096 5.26225 5.39001L5.23793 5.41439C5.19577 5.4371 5.16577 5.47326 5.1374 5.51278C5.06605 5.56492 5.0012 5.62462 4.95417 5.70283C4.93553 5.72133 4.91769 5.74067 4.89904 5.75917C4.89337 5.76506 4.88769 5.77095 4.88283 5.77599C4.85202 5.81299 4.82122 5.84999 4.79122 5.88699C4.71015 5.97445 4.6307 6.06359 4.57395 6.17123C4.52773 6.23345 4.48233 6.29568 4.43612 6.35791C4.40532 6.405 4.37532 6.45209 4.34451 6.49919C4.18885 6.75903 4.02184 7.01299 3.93023 7.30731C3.86619 7.41411 3.82646 7.53184 3.79728 7.65378C3.78511 7.679 3.77376 7.70339 3.7616 7.72862C3.70891 7.69498 3.65216 7.66555 3.60351 7.62603C3.20788 7.30479 2.81468 6.97935 2.41743 6.65896C1.92208 6.25868 1.42349 5.86261 0.926514 5.46401C0.928135 5.44887 0.929757 5.43373 0.931378 5.41776C1.0084 5.33282 1.02299 5.21173 1.08866 5.12007C1.24026 4.86695 1.39187 4.61299 1.54347 4.35987C1.58239 4.33044 1.60995 4.2926 1.61319 4.24046C1.69102 4.18496 1.73237 4.09919 1.78101 4.02014H1.78507Z" fill="#E94334"/>
<path d="M0.929007 5.46398C1.42598 5.86173 1.92457 6.25865 2.41992 6.65893C2.81637 6.97932 3.20956 7.30476 3.60601 7.62599C3.65465 7.66552 3.7114 7.69495 3.7641 7.72859C3.68627 7.97918 3.61979 8.2323 3.56385 8.48962L3.54034 8.68724C3.50142 8.89831 3.48197 9.11023 3.49007 9.3255C3.46413 9.38941 3.45764 9.45501 3.469 9.52228C3.4771 9.62908 3.48521 9.73503 3.49251 9.84183C3.48683 9.98395 3.49818 10.1235 3.53953 10.2598C3.54358 10.4103 3.56952 10.5566 3.61411 10.6996C3.63925 10.8913 3.7114 11.0704 3.74869 11.2588C3.72275 11.2764 3.69519 11.2924 3.67086 11.3118C3.36522 11.5615 3.06201 11.8138 2.75556 12.0619C2.34209 12.3966 1.92619 12.7279 1.51029 13.0601C1.31653 13.2148 1.12034 13.3661 0.925765 13.5192C0.870636 13.4082 0.814696 13.2972 0.759567 13.1862C0.665523 12.9406 0.57229 12.6951 0.478247 12.4495C0.437711 12.3259 0.397175 12.2031 0.356639 12.0795C0.337992 11.9601 0.299888 11.8474 0.261784 11.7339C0.23422 11.6532 0.25692 11.5573 0.195305 11.4858C0.18963 11.4219 0.209898 11.3538 0.170173 11.2941C0.147473 11.1865 0.124773 11.0788 0.102072 10.9712C0.0988296 10.8459 0.0834259 10.7223 0.0566721 10.5995C0.0461328 10.4784 0.0355934 10.3565 0.0242433 10.2354C0.0161361 10.1202 0.00802891 10.005 0.000732422 9.88976C0.0145147 9.85697 0.00559674 9.82417 0.000732422 9.79138C0.000732422 9.57862 0.000732422 9.36503 0.000732422 9.15227C0.00235386 9.05473 0.00478602 8.95802 0.00640747 8.86047C0.0412684 8.71415 0.0388363 8.56363 0.0485649 8.41478C0.0672115 8.29285 0.0858581 8.17175 0.104505 8.04982C0.125583 7.92536 0.146662 7.80091 0.16693 7.67645C0.183955 7.60665 0.202602 7.5377 0.218816 7.4679C0.259352 7.29215 0.299078 7.11639 0.338803 6.94064C0.401228 6.81702 0.432846 6.68248 0.468518 6.54877L0.741731 5.83398C0.791185 5.71709 0.866582 5.61198 0.903875 5.4892L0.929818 5.46313L0.929007 5.46398Z" fill="#FABB05"/>
<path d="M0.924952 13.5192C1.12034 13.3661 1.31572 13.2148 1.50948 13.0601C1.92538 12.7287 2.34128 12.3966 2.75475 12.0619C3.0612 11.8138 3.36522 11.5615 3.67005 11.3118C3.69437 11.2916 3.72194 11.2764 3.74788 11.2588C3.77139 11.3025 3.7949 11.3471 3.81841 11.3908C3.89138 11.6507 4.00974 11.8886 4.13297 12.1249C4.19216 12.246 4.25215 12.3671 4.33727 12.4722C4.37781 12.5378 4.41835 12.6026 4.45888 12.6682C4.48077 12.7262 4.52455 12.7682 4.56184 12.8145C4.64129 12.9255 4.71912 13.0373 4.81479 13.1349C4.82127 13.1593 4.8383 13.1736 4.85857 13.1845C4.86749 13.1938 4.8764 13.2022 4.88532 13.2114L4.88289 13.2097C4.96883 13.3182 5.05314 13.4292 5.16907 13.5083C5.18367 13.5234 5.19826 13.5385 5.21285 13.5537L5.24123 13.5797L5.2388 13.5781C5.3223 13.6748 5.41959 13.7555 5.52498 13.8253C5.55984 13.8816 5.61092 13.917 5.66767 13.9455C5.73658 13.9985 5.79819 14.0624 5.88008 14.0961C5.9879 14.1877 6.10465 14.2643 6.23517 14.3164C6.2449 14.3391 6.26517 14.3366 6.283 14.3408C6.35273 14.4215 6.45731 14.4366 6.54243 14.4888C6.6608 14.5384 6.77268 14.6065 6.89915 14.6343C6.93482 14.6603 6.97455 14.6771 7.01833 14.683C7.09697 14.7066 7.16669 14.7621 7.25425 14.7579C7.40666 14.8243 7.56718 14.8579 7.72933 14.8798L7.89472 14.905C7.99525 14.9412 8.09821 14.9647 8.20522 14.9496C8.3771 14.9757 8.55059 14.9866 8.72408 14.974C8.82786 14.974 8.93244 14.9967 9.03378 14.9538C9.16025 14.9504 9.28835 14.9639 9.41157 14.9244C9.5575 14.9227 9.69938 14.8958 9.83963 14.8554C9.94422 14.8394 10.0472 14.8193 10.1469 14.7806C10.2353 14.7612 10.3285 14.7587 10.4088 14.7074C10.4631 14.6889 10.5174 14.6704 10.5717 14.6519C10.6731 14.6284 10.7712 14.5939 10.8595 14.5359C11.1206 14.4358 11.3622 14.2987 11.5916 14.1356C11.6159 14.1221 11.6394 14.1087 11.6638 14.0952C11.8348 14.2348 12.0059 14.3744 12.1778 14.5132C12.5888 14.847 13.0006 15.1817 13.4117 15.5156C13.74 15.7813 14.0684 16.047 14.3967 16.3127C14.3302 16.3834 14.2629 16.454 14.1964 16.5247C14.1251 16.5423 14.0919 16.6113 14.0367 16.65C13.9249 16.7391 13.8138 16.8291 13.7019 16.9182L12.9917 17.3866C12.7704 17.501 12.5491 17.6153 12.3269 17.7297C12.3075 17.7314 12.288 17.7314 12.2783 17.7541C12.0343 17.8458 11.791 17.9391 11.547 18.0316C11.4278 18.0703 11.3078 18.109 11.1887 18.1476C11.0865 18.1737 10.9836 18.1998 10.8814 18.2267C10.8433 18.2334 10.8052 18.2401 10.7671 18.2469C10.5206 18.2956 10.2734 18.3444 10.0269 18.3932C9.94989 18.4142 9.87125 18.4209 9.7918 18.4226C9.64344 18.4588 9.48778 18.4209 9.33942 18.4672C9.2924 18.4689 9.24538 18.4706 9.19835 18.4722C9.06378 18.479 8.9292 18.4857 8.79543 18.4933C8.64625 18.4949 8.49627 18.4958 8.3471 18.4975C8.17523 18.4571 8.00092 18.4428 7.82418 18.4487C7.80067 18.447 7.77716 18.4453 7.75365 18.4437C7.59718 18.4075 7.43828 18.3856 7.27857 18.3747C7.13588 18.3486 6.99401 18.3226 6.85132 18.2965C6.83348 18.2687 6.80754 18.2729 6.7816 18.2771L6.6381 18.2469C6.62107 18.2191 6.59351 18.2242 6.56757 18.2225C6.46055 18.1762 6.34705 18.1552 6.23436 18.1283C6.1241 18.0938 6.01384 18.0593 5.9044 18.0249C5.86954 17.9946 5.82657 17.987 5.7836 17.9803C5.69118 17.9391 5.60038 17.8954 5.50066 17.8752C5.4058 17.8079 5.29474 17.7785 5.19015 17.7348C4.93072 17.6019 4.67129 17.469 4.41186 17.3353C4.21323 17.2067 4.0138 17.078 3.81517 16.9493C3.80869 16.9451 3.8022 16.9418 3.79409 16.9401L3.79571 16.9418L3.67411 16.8459C3.58736 16.7803 3.50061 16.7147 3.41305 16.6491C3.35063 16.5995 3.2882 16.5499 3.22497 16.5003C3.18119 16.4372 3.1139 16.4019 3.05715 16.354C2.96148 16.2715 2.88122 16.1715 2.77339 16.1042C2.77339 16.0739 2.7588 16.0579 2.72881 16.0579C2.53099 15.8444 2.33317 15.6316 2.13536 15.418C2.1159 15.3524 2.06483 15.3129 2.01699 15.2717C1.94484 15.1809 1.8735 15.0892 1.80134 14.9984C1.7608 14.9067 1.69108 14.8361 1.63433 14.7562C1.60353 14.7141 1.57272 14.6721 1.54191 14.6301L1.54353 14.6317C1.54191 14.6242 1.53867 14.6174 1.53461 14.6107C1.39436 14.3803 1.2541 14.1499 1.11466 13.9195C1.0498 13.7858 0.985756 13.6512 0.920898 13.5175L0.924952 13.5192Z" fill="#34A753"/>
<path d="M14.3984 16.3153C14.07 16.0496 13.7417 15.7847 13.4133 15.5181C13.0015 15.1843 12.5904 14.8504 12.1794 14.5157C12.0083 14.3761 11.8365 14.2374 11.6654 14.0978C11.7197 14.0549 11.7741 14.012 11.8292 13.97C11.864 13.9414 11.8989 13.9128 11.9338 13.885C12.0554 13.7976 12.1648 13.6958 12.2621 13.5798C12.271 13.5672 12.2808 13.5537 12.2897 13.5411C12.4072 13.4629 12.4802 13.3418 12.5653 13.2325C12.5896 13.2005 12.6148 13.1677 12.6391 13.1358C12.7031 13.0382 12.7883 12.955 12.8288 12.8406C12.9666 12.6253 13.0817 12.3983 13.1612 12.1527C13.2244 12.019 13.2779 11.8828 13.299 11.734C13.329 11.5977 13.3995 11.4674 13.3509 11.3211C12.9877 11.3211 12.6237 11.3211 12.2605 11.3211H10.1275C9.64591 11.3194 9.16434 11.3177 8.68277 11.3152C8.68277 10.2051 8.68115 9.09429 8.68115 7.98427C8.68115 7.87887 8.73196 7.82617 8.83357 7.82617C11.4603 7.82617 14.087 7.82617 16.7138 7.82617C16.7535 7.82617 16.7924 7.82785 16.8321 7.82869C16.8338 7.8657 16.8297 7.90354 16.837 7.93886C16.9286 8.3795 16.9537 8.82855 16.9813 9.27677C16.9813 9.35077 16.9813 9.42477 16.9813 9.49877C16.9627 9.58286 17.0089 9.66107 17.0008 9.74348C16.9659 9.86541 16.9862 9.99071 16.9813 10.1143C16.97 10.3489 16.9578 10.5844 16.9464 10.819C16.8913 11.1882 16.8362 11.5565 16.7811 11.9257C16.7016 12.167 16.6489 12.4159 16.5905 12.6632C16.5695 12.7304 16.5249 12.791 16.5265 12.8658C16.4892 12.9735 16.4519 13.0811 16.4146 13.1888C16.3652 13.3191 16.3157 13.4494 16.2663 13.5789C16.2371 13.6454 16.2071 13.7118 16.1779 13.7782C16.1025 13.9389 16.0263 14.0995 15.9509 14.2609C15.8901 14.3694 15.8301 14.4787 15.7693 14.5872C15.7433 14.6057 15.7369 14.6351 15.7271 14.6629C15.5707 14.9244 15.3955 15.1717 15.2204 15.4197H15.222C15.2066 15.4365 15.192 15.4542 15.1766 15.4719C15.1507 15.4878 15.1304 15.5089 15.128 15.5425C15.0656 15.6173 15.0023 15.6922 14.9399 15.767C14.8945 15.8166 14.8491 15.8663 14.8037 15.9167C14.7932 15.9318 14.7818 15.947 14.7713 15.9621H14.7721C14.7008 16.0353 14.6294 16.1093 14.5581 16.1833C14.5419 16.2001 14.5264 16.2161 14.5102 16.2329C14.4981 16.2438 14.4867 16.2539 14.4746 16.2649C14.4494 16.2817 14.4243 16.2985 14.4 16.3153H14.3984Z" fill="#0085EB"/>
</g>
<defs>
<clipPath id="clip0_467_16841">
<rect width="17" height="18" fill="white" transform="translate(0 0.5)"/>
</clipPath>
</defs>
</svg>
