<svg width="24" height="24" viewBox="0 0 24 24" fill="none" xmlns="http://www.w3.org/2000/svg">
<g clip-path="url(#clip0_2387_13152)">
<path d="M2.74784 6.24138L2.74784 6.24138C1.57491 7.03278 0.875 8.34944 0.875 9.76325V18.874C0.875 21.2173 2.78171 23.124 5.125 23.124H18.875C21.2183 23.124 23.125 21.2173 23.125 18.874V9.76417C23.125 8.35043 22.4252 7.03187 21.2521 6.24134L14.3772 1.60308C12.9343 0.628552 11.0676 0.627608 9.62284 1.60305C9.62283 1.60306 9.62282 1.60306 9.6228 1.60307L2.74784 6.24138ZM13.7249 2.56925L13.7249 2.56929L20.5999 7.20854C21.451 7.78294 21.9583 8.73869 21.9583 9.76417V18.8749C21.9583 20.575 20.5751 21.9583 18.875 21.9583H5.125C3.42487 21.9583 2.04167 20.575 2.04167 18.8749V9.76417C2.04167 8.73877 2.54989 7.783 3.40009 7.20854C3.40011 7.20852 3.40013 7.20851 3.40015 7.20849L10.275 2.56933C10.7996 2.21576 11.3995 2.03884 12 2.03884C12.6006 2.03884 13.2004 2.21491 13.7249 2.56925ZM15.6667 11.8749H13.9583V10.1666C13.9583 9.08647 13.0801 8.20825 12 8.20825C10.9199 8.20825 10.0417 9.08647 10.0417 10.1666V11.8749H8.33333C7.25321 11.8749 6.375 12.7531 6.375 13.8333C6.375 14.9134 7.25321 15.7916 8.33333 15.7916H10.0417V17.4999C10.0417 18.58 10.9199 19.4583 12 19.4583C13.0801 19.4583 13.9583 18.58 13.9583 17.4999V15.7916H15.6667C16.7468 15.7916 17.625 14.9134 17.625 13.8333C17.625 12.7531 16.7468 11.8749 15.6667 11.8749ZM15.6667 14.6249H13.375C13.053 14.6249 12.7917 14.8862 12.7917 15.2083V17.4999C12.7917 17.9368 12.4361 18.2916 12 18.2916C11.5639 18.2916 11.2083 17.9368 11.2083 17.4999V15.2083C11.2083 14.8862 10.947 14.6249 10.625 14.6249H8.33333C7.8972 14.6249 7.54167 14.2701 7.54167 13.8333C7.54167 13.3964 7.8972 13.0416 8.33333 13.0416H10.625C10.947 13.0416 11.2083 12.7803 11.2083 12.4583V10.1666C11.2083 9.7297 11.5639 9.37492 12 9.37492C12.4361 9.37492 12.7917 9.7297 12.7917 10.1666V12.4583C12.7917 12.7803 13.053 13.0416 13.375 13.0416H15.6667C16.1028 13.0416 16.4583 13.3964 16.4583 13.8333C16.4583 14.2701 16.1028 14.6249 15.6667 14.6249Z" fill="#4F525F" stroke="#4F525F" stroke-width="0.25"/>
</g>
<defs>
<clipPath id="clip0_2387_13152">
<rect width="24" height="24" fill="white"/>
</clipPath>
</defs>
</svg>
