<svg width="24" height="24" viewBox="0 0 24 24" fill="none" xmlns="http://www.w3.org/2000/svg">
<g clip-path="url(#clip0_2387_13136)">
<path d="M3.34021 7.17433L3.34015 7.17437C2.48299 7.75202 1.9719 8.71376 1.9719 9.74856V18.923C1.9719 20.6355 3.36517 22.0288 5.07767 22.0288H13.3503C13.6741 22.0288 13.9368 22.2915 13.9368 22.6153C13.9368 22.9391 13.6741 23.2019 13.3503 23.2019H5.07767C2.71848 23.2019 0.798828 21.2822 0.798828 18.923V9.74856C0.798828 8.32431 1.50342 6.99776 2.68438 6.20186L3.34021 7.17433ZM3.34021 7.17433L10.2633 2.50264L10.2633 2.50261M3.34021 7.17433L10.2633 2.50261M10.2633 2.50261C11.3186 1.78993 12.6829 1.78993 13.7382 2.50261L13.7382 2.50264M10.2633 2.50261L13.7382 2.50264M13.7382 2.50264L20.6613 7.17433L20.6614 7.17437M13.7382 2.50264L20.6614 7.17437M20.6614 7.17437C21.5185 7.75201 22.0296 8.71466 22.0296 9.74856M20.6614 7.17437L22.0296 9.74856M22.0296 9.74856C22.0296 10.0724 22.2923 10.3351 22.6161 10.3351M22.0296 9.74856L22.6161 10.3351M22.6161 10.3351C22.9399 10.3351 23.2027 10.0724 23.2027 9.74856M22.6161 10.3351L23.2027 9.74856M23.2027 9.74856C23.2027 8.32337 22.4981 6.99775 21.3171 6.20187L23.2027 9.74856ZM9.60834 1.5302L2.68443 6.20183H21.3171L14.3941 1.53018C12.9404 0.549044 11.0602 0.549978 9.60838 1.53017C9.60837 1.53018 9.60835 1.53019 9.60834 1.5302ZM21.4321 14.0602L21.4322 14.0605L21.4402 14.0564C21.9195 13.8143 22.2314 13.3493 22.2746 12.814L22.2746 12.8138C22.317 12.2767 22.0801 11.7692 21.6015 11.4266L21.6019 11.426L21.5899 11.4192L17.7582 9.26939L17.7583 9.26927L17.753 9.2666C17.2802 9.03021 16.7322 9.05654 16.2839 9.3319L16.2837 9.33207C15.836 9.60871 15.5681 10.0893 15.5681 10.6163V22.6153C15.5681 22.9391 15.8308 23.2019 16.1546 23.2019C16.4784 23.2019 16.7411 22.9391 16.7411 22.6153V16.0247L21.4321 14.0602ZM21.5288 11.5283C21.9737 11.8467 22.1888 12.3129 22.15 12.8039L16.6161 22.6153C16.6161 22.8701 16.4094 23.0769 16.1546 23.0769C15.8998 23.0769 15.6931 22.8701 15.6931 22.6153V10.6163C15.6931 10.1326 15.9386 9.69225 16.3494 9.43841C16.7611 9.18548 17.2632 9.16148 17.6971 9.37841L21.5288 11.5283ZM16.7411 14.7539V10.6172C16.7411 10.4483 16.8503 10.3624 16.9008 10.3311L16.9008 10.3311L16.9022 10.3302C16.9309 10.3119 16.9907 10.2824 17.0613 10.2769C17.067 10.2796 17.0738 10.283 17.0819 10.2871C17.1123 10.3022 17.156 10.3248 17.2117 10.3542C17.3229 10.4127 17.4791 10.4965 17.6654 10.5974C18.0379 10.7991 18.5295 11.0682 19.0195 11.3374C19.5095 11.6065 19.9978 11.8756 20.3636 12.0775L20.8052 12.3214L20.9288 12.3898L20.9614 12.4078L20.9655 12.41C21.1046 12.5143 21.11 12.6588 21.1051 12.7211C21.0996 12.7902 21.0678 12.9284 20.9439 12.9944L16.7411 14.7539ZM23.2027 18.923V15.6923C23.2027 15.3685 22.9399 15.1057 22.6161 15.1057C22.2923 15.1057 22.0296 15.3685 22.0296 15.6923V18.923C22.0296 20.6355 20.6363 22.0288 18.9238 22.0288C18.6 22.0288 18.3373 22.2915 18.3373 22.6153C18.3373 22.9391 18.6 23.2019 18.9238 23.2019C21.283 23.2019 23.2027 21.2822 23.2027 18.923Z" fill="#4F525F" stroke="#4F525F" stroke-width="0.25"/>
</g>
<defs>
<clipPath id="clip0_2387_13136">
<rect width="24" height="24" fill="white"/>
</clipPath>
</defs>
</svg>
