<svg width="9" height="9" viewBox="0 0 9 9" fill="none" xmlns="http://www.w3.org/2000/svg">
<g clip-path="url(#clip0_3001_9117)">
<path d="M1.47097 4.67547V4.83719C1.47097 5.80356 1.47097 6.76972 1.47051 7.73611L1.47097 4.67547ZM1.47097 4.67547L1.47054 4.67568M1.47097 4.67547L1.47054 4.67568M1.47054 4.67568C1.47059 4.34639 1.47054 4.01717 1.47049 3.68797C1.47041 3.1134 1.47033 2.53894 1.47074 1.96439L1.47074 1.96438C1.47085 1.80178 1.5204 1.68142 1.59995 1.60183C1.6795 1.52224 1.7998 1.47266 1.96222 1.47245L1.47054 4.67568ZM1.45645 7.88762L1.45644 7.88764C1.42604 8.01402 1.31138 8.09545 1.1904 8.09791L1.19034 8.09791C1.06287 8.10042 0.945532 8.0149 0.913388 7.88652L1.45645 7.88762ZM1.45645 7.88762C1.46933 7.83402 1.47051 7.77981 1.47051 7.73616L1.45645 7.88762ZM0.900235 1.96172L0.900235 1.9617C0.900486 1.65546 1.00891 1.3894 1.19954 1.19958C1.39013 1.0098 1.65706 0.902018 1.96375 0.901388L0.900235 1.96172ZM0.900235 1.96172C0.899082 3.89429 0.899544 5.82709 0.900005 7.75984L0.900005 7.75985C0.900005 7.75986 0.900005 7.75987 0.900005 7.75987M0.900235 1.96172L0.900005 7.75987M5.88894 2.7106V2.71067C5.89019 3.52937 5.89006 4.34808 5.88994 5.1667C5.8899 5.41219 5.88987 5.65767 5.88987 5.90314C5.88987 5.99535 5.87279 6.08207 5.82511 6.14858C5.77379 6.22017 5.69713 6.25446 5.61093 6.25663L5.61086 6.25663C5.52161 6.25882 5.44158 6.22555 5.38762 6.15335C5.33746 6.08624 5.3188 5.9974 5.31867 5.90305V5.90291C5.31867 5.59639 5.31878 5.2899 5.31889 4.98341C5.31917 4.21719 5.31946 3.45105 5.31797 2.68497V2.68496C5.3169 2.09586 4.94618 1.62694 4.38817 1.50088L4.38813 1.50087C4.29827 1.48054 4.20099 1.47383 4.10195 1.47361L4.10182 1.47361C3.38874 1.47107 2.67563 1.47176 1.96225 1.47245L5.88894 2.7106ZM5.88894 2.7106C5.88871 2.60529 5.88404 2.49384 5.8646 2.38438C5.70888 1.50204 4.999 0.903834 4.10431 0.901389L5.88894 2.7106ZM0.900005 7.75987C0.900006 7.79713 0.902153 7.84183 0.913368 7.88644L0.900005 7.75987ZM4.10429 0.901389C3.39072 0.899314 2.67721 0.899775 1.96377 0.901388L4.10429 0.901389Z" fill="#585858" stroke="#585858" stroke-width="0.2"/>
<path d="M7.82053 0.902544L7.82059 0.902545C7.90709 0.904732 7.98349 0.939825 8.03462 1.01115C8.08227 1.07763 8.09974 1.1642 8.09974 1.25627C8.09974 1.8976 8.09979 2.53891 8.09984 3.18022C8.09995 4.46282 8.10005 5.74541 8.09974 7.02809M7.82053 0.902544L3.13517 6.61783L3.13519 6.6179C3.2936 7.50421 4.00425 8.09783 4.90571 8.09929C5.61342 8.10044 6.32114 8.10021 7.02885 8.09859L7.02891 8.09859C7.11288 8.09835 7.20242 8.09259 7.28979 8.07347L7.2899 8.07344C7.78726 7.96398 8.09974 7.55326 8.09974 7.02809M7.82053 0.902544C7.73112 0.90033 7.65143 0.934582 7.59781 1.00661C7.5478 1.07379 7.52877 1.16263 7.52877 1.25719V1.26287V1.26855V1.27422V1.2799V1.28558V1.29126V1.29694V1.30262V1.3083V1.31397V1.31965V1.32533V1.33101V1.33669V1.34237V1.34805V1.35372V1.3594V1.36508V1.37076V1.37644V1.38212V1.3878V1.39347V1.39915V1.40483V1.41051V1.41619V1.42187V1.42755V1.43323V1.4389V1.44458V1.45026V1.45594V1.46162V1.4673V1.47298V1.47865V1.48433V1.49001V1.49569V1.50137V1.50705V1.51273V1.5184V1.52408V1.52976V1.53544V1.54112V1.5468V1.55248V1.55815V1.56383V1.56951V1.57519V1.58087V1.58655V1.59223V1.5979V1.60358V1.60926V1.61494V1.62062V1.6263V1.63198V1.63766V1.64333V1.64901V1.65469V1.66037V1.66605V1.67173V1.67741V1.68308V1.68876V1.69444V1.70012V1.7058V1.71148V1.71716V1.72283V1.72851V1.73419V1.73987V1.74555V1.75123V1.75691V1.76258V1.76826V1.77394V1.77962V1.7853V1.79098V1.79666V1.80233V1.80801V1.81369V1.81937V1.82505V1.83073V1.83641V1.84208V1.84776V1.85344V1.85912V1.8648V1.87048V1.87616V1.88184V1.88751V1.89319V1.89887V1.90455V1.91023V1.91591V1.92159V1.92726V1.93294V1.93862V1.9443V1.94998V1.95566V1.96134V1.96701V1.97269V1.97837V1.98405V1.98973V1.99541V2.00109V2.00676V2.01244V2.01812V2.0238V2.02948V2.03516V2.04084V2.04651V2.05219V2.05787V2.06355V2.06923V2.07491V2.08059V2.08627V2.09194V2.09762V2.1033V2.10898V2.11466V2.12034V2.12602V2.13169V2.13737V2.14305V2.14873V2.15441V2.16009V2.16577V2.17144V2.17712V2.1828V2.18848V2.19416V2.19984V2.20552V2.21119V2.21687V2.22255V2.22823V2.23391V2.23959V2.24527V2.25094V2.25662V2.2623V2.26798V2.27366V2.27934V2.28502V2.29069V2.29637V2.30205V2.30773V2.31341V2.31909V2.32477V2.33045V2.33612V2.3418V2.34748V2.35316V2.35884V2.36452V2.3702V2.37587V2.38155V2.38723V2.39291V2.39859V2.40427V2.40995V2.41562V2.4213V2.42698V2.43266V2.43834V2.44402V2.4497V2.45537V2.46105V2.46673V2.47241V2.47809V2.48377V2.48945V2.49512V2.5008V2.50648V2.51216V2.51784V2.52352V2.5292V2.53488V2.54055V2.54623V2.55191V2.55759V2.56327V2.56895V2.57463V2.5803V2.58598V2.59166V2.59734V2.60302V2.6087V2.61438V2.62005V2.62573V2.63141V2.63709V2.64277V2.64845V2.65413V2.6598V2.66548V2.67116V2.67684V2.68252V2.6882V2.69388V2.69955V2.70523V2.71091V2.71659V2.72227V2.72795V2.73363V2.73931V2.74498V2.75066V2.75634V2.76202V2.7677V2.77338V2.77906V2.78473V2.79041V2.79609V2.80177V2.80745V2.81313V2.81881V2.82448V2.83016V2.83584V2.84152V2.8472V2.85288V2.85856V2.86423V2.86991V2.87559V2.88127V2.88695V2.89263V2.89831V2.90398V2.90966V2.91534V2.92102V2.9267V2.93238V2.93806V2.94373V2.94941V2.95509V2.96077V2.96645V2.97213V2.97781V2.98349V2.98916V2.99484V3.00052V3.0062V3.01188V3.01756V3.02324V3.02891V3.03459V3.04027V3.04595V3.05163V3.05731V3.06299V3.06866V3.07434V3.08002V3.0857V3.09138V3.09706V3.10274V3.10841V3.11409V3.11977V3.12545V3.13113V3.13681V3.14249V3.14816V3.15384V3.15952V3.1652V3.17088V3.17656V3.18224V3.18792V3.19359V3.19927V3.20495V3.21063V3.21631V3.22199V3.22767V3.23334V3.23902V3.2447V3.25038V3.25606V3.26174V3.26742V3.27309V3.27877V3.28445V3.29013V3.29581V3.30149V3.30717V3.31284V3.31852V3.3242V3.32988V3.33556V3.34124V3.34692V3.35259V3.35827V3.36395V3.36963V3.37531V3.38099V3.38667V3.39234V3.39802V3.4037V3.40938V3.41506V3.42074V3.42642V3.4321V3.43777V3.44345V3.44913V3.45481V3.46049V3.46617V3.47185V3.47752V3.4832V3.48888V3.49456V3.50024V3.50592V3.5116V3.51727V3.52295V3.52863V3.53431V3.53999V3.54567V3.55135V3.55702V3.5627V3.56838V3.57406V3.57974V3.58542V3.5911V3.59677V3.60245V3.60813V3.61381V3.61949V3.62517V3.63085V3.63653V3.6422V3.64788V3.65356V3.65924V3.66492V3.6706V3.67628V3.68195V3.68763V3.69331V3.69899V3.70467V3.71035V3.71603V3.7217V3.72738V3.73306V3.73874V3.74442V3.7501V3.75578V3.76145V3.76713V3.77281V3.77849V3.78417V3.78985V3.79553V3.8012V3.80688V3.81256V3.81824V3.82392V3.8296V3.83528V3.84096V3.84663V3.85231V3.85799V3.86367V3.86935V3.87503V3.88071V3.88638V3.89206V3.89774V3.90342V3.9091V3.91478V3.92046V3.92613V3.93181V3.93749V3.94317V3.94885V3.95453V3.96021V3.96588V3.97156V3.97724V3.98292V3.9886V3.99428V3.99996V4.00563V4.01131V4.01699V4.02267V4.02835V4.03403V4.03971V4.04538V4.05106V4.05674V4.06242V4.0681V4.07378V4.07946V4.08514V4.09081V4.09649V4.10217V4.10785V4.11353V4.11921V4.12321L7.52854 4.12345V4.16487C7.52854 4.48319 7.52859 4.80148 7.52864 5.11974C7.52875 5.75622 7.52885 6.39262 7.52854 7.02915M7.82053 0.902544L4.90424 7.5273M8.09974 7.02809L7.99974 7.02806L8.09974 7.02809ZM4.90424 7.5273L4.90438 7.5273C5.52861 7.52954 6.15284 7.52908 6.77732 7.52863C6.86045 7.52857 6.94358 7.52851 7.02672 7.52845H7.02678C7.1963 7.52845 7.31879 7.47896 7.39881 7.39928C7.47878 7.31965 7.52844 7.19782 7.52854 7.02915M4.90424 7.5273C4.80207 7.52708 4.70211 7.52034 4.6096 7.49936C4.05389 7.37324 3.68238 6.90441 3.68131 6.32287C3.68008 5.60988 3.68028 4.89687 3.68049 4.18372M4.90424 7.5273L3.68049 4.18372M7.52854 7.02915L7.62854 7.02922M7.52854 7.02915L7.62854 7.02922M7.62854 7.02922C7.62831 7.40604 7.4049 7.62845 7.02678 7.62845L7.62854 7.02922ZM3.68049 4.18372C3.68059 3.82708 3.68069 3.4704 3.68062 3.11367L3.68049 4.18372ZM3.11003 3.83083C3.10991 4.6537 3.10979 5.47678 3.11103 6.29984L3.68062 3.11365C3.68062 3.10971 3.68063 3.10557 3.68065 3.10126C3.68079 3.06906 3.68097 3.02692 3.67423 2.98574L3.67423 2.98572C3.65125 2.84549 3.53991 2.74641 3.39978 2.74425L3.39824 2.84424L3.39999 2.74426C3.25486 2.74172 3.139 2.84574 3.11558 2.98821L3.11558 2.98824C3.10993 3.02266 3.11003 3.05768 3.11009 3.08286C3.1101 3.08548 3.11011 3.08799 3.11011 3.09039C3.11011 3.33718 3.11007 3.584 3.11003 3.83083Z" fill="#585858" stroke="#585858" stroke-width="0.2"/>
</g>
<defs>
<clipPath id="clip0_3001_9117">
<rect width="9" height="9" fill="white"/>
</clipPath>
</defs>
</svg>
