<svg width="26" height="27" viewBox="0 0 26 27" fill="none" xmlns="http://www.w3.org/2000/svg">
<g clip-path="url(#clip0_2002_11144)">
<path d="M23.8776 6.52241L23.8706 6.50323C23.8286 6.38828 23.7183 6.31128 23.597 6.31128H20.846C20.5822 6.31128 20.346 6.14511 20.2573 5.89628L20.2573 5.89627L19.2838 3.16663C19.2837 3.16642 19.2836 3.1662 19.2835 3.16598C19.2499 3.07617 19.1462 3.0138 19.014 3.0139C18.8828 3.014 18.7767 3.07585 18.7404 3.17221C18.7403 3.17245 18.7402 3.17269 18.7401 3.17293L17.7698 5.89722L17.7697 5.89728C17.681 6.14611 17.4448 6.31228 17.181 6.31228H14.431C14.3092 6.31228 14.1993 6.3888 14.1574 6.50223C14.1155 6.61661 14.1495 6.74601 14.242 6.82525L16.4116 8.59108C16.4116 8.5911 16.4116 8.59112 16.4117 8.59114C16.6143 8.75508 16.693 9.02766 16.6105 9.27392C16.6105 9.27394 16.6105 9.27396 16.6105 9.27399L15.749 11.8635C15.7155 11.9723 15.7552 12.1015 15.8533 12.1748C15.9534 12.2478 16.0912 12.2508 16.1921 12.185C16.1922 12.1849 16.1924 12.1848 16.1925 12.1847L18.6745 10.5234L18.675 10.5231C18.8826 10.3855 19.1532 10.3845 19.3626 10.5191L19.3632 10.5195L21.887 12.1634C21.9904 12.2305 22.1266 12.225 22.2246 12.1493L22.2251 12.149C22.3224 12.0746 22.3624 11.9458 22.3237 11.8286C22.3236 11.8284 22.3235 11.8281 22.3234 11.8278L21.4301 9.27894C21.4301 9.27885 21.4301 9.27875 21.43 9.27866L21.43 9.27862L21.548 9.23728L23.8776 6.52241ZM23.8776 6.52241C23.9098 6.63199 23.8733 6.75226 23.7921 6.8211C23.7919 6.8213 23.7917 6.82149 23.7915 6.82168L23.8776 6.52241ZM24.588 7.78421L24.5895 7.78293C25.0835 7.36726 25.2675 6.68097 25.0454 6.07536C24.8234 5.46821 24.2426 5.06128 23.597 5.06128H21.2872L20.4598 2.73932L20.4592 2.73776C20.236 2.13673 19.6552 1.73328 19.014 1.73328C18.3723 1.73328 17.7929 2.13714 17.5669 2.74361L17.5663 2.74531L16.7408 5.06128H14.431C13.7866 5.06128 13.2058 5.46695 12.9837 6.07109C12.7613 6.675 12.9427 7.35999 13.4409 7.78443L13.4409 7.78446L13.4431 7.78621L15.2871 9.28771L14.5584 11.4768L14.5584 11.4768L14.5577 11.4789C14.362 12.104 14.5813 12.7851 15.1028 13.1741C15.3715 13.3765 15.6919 13.4833 16.028 13.4833C16.3347 13.4833 16.6319 13.393 16.8855 13.2231L16.8856 13.2231L19.025 11.7901L21.2035 13.2088C21.2036 13.2089 21.2036 13.2089 21.2037 13.209C21.7503 13.5671 22.4662 13.5386 22.985 13.1395C23.5059 12.7407 23.7142 12.0548 23.5056 11.4259L23.5057 11.4259L23.505 11.4239L22.753 9.27876L24.5879 7.7842L24.588 7.78421ZM18.744 10.6273C18.91 10.5173 19.127 10.5163 19.295 10.6243L18.744 10.6273ZM5.5 7.06128C5.15496 7.06128 4.875 7.34124 4.875 7.68628C4.875 8.03131 5.15496 8.31128 5.5 8.31128H10.5C10.845 8.31128 11.125 8.03131 11.125 7.68628C11.125 7.34124 10.845 7.06128 10.5 7.06128H5.5ZM12.5 11.0613H5.5C5.15496 11.0613 4.875 11.3412 4.875 11.6863C4.875 12.0313 5.15496 12.3113 5.5 12.3113H12.5C12.845 12.3113 13.125 12.0313 13.125 11.6863C13.125 11.3412 12.845 11.0613 12.5 11.0613ZM12.5 15.0613H5.5C5.15496 15.0613 4.875 15.3412 4.875 15.6863C4.875 16.0313 5.15496 16.3113 5.5 16.3113H12.5C12.845 16.3113 13.125 16.0313 13.125 15.6863C13.125 15.3412 12.845 15.0613 12.5 15.0613ZM19.001 25.3113C20.724 25.3113 22.126 23.9093 22.126 22.1863C22.126 20.5051 20.7903 19.1296 19.125 19.0637V14.6863C19.125 14.3412 18.845 14.0613 18.5 14.0613C18.155 14.0613 17.875 14.3412 17.875 14.6863V19.0613H9C7.27696 19.0613 5.875 20.4632 5.875 22.1863C5.875 23.2202 5.03396 24.0613 4 24.0613C2.96604 24.0613 2.125 23.2202 2.125 22.1863V5.68628C2.125 3.82531 3.63904 2.31128 5.5 2.31128H15.5C15.845 2.31128 16.125 2.03131 16.125 1.68628C16.125 1.34124 15.845 1.06128 15.5 1.06128H5.5C2.94996 1.06128 0.875 3.13624 0.875 5.68628V22.1863C0.875 23.9093 2.27696 25.3113 4 25.3113H19.001ZM19.001 20.3113C20.035 20.3113 20.876 21.1523 20.876 22.1863C20.876 23.2202 20.035 24.0613 19.001 24.0613H6.4994C6.89251 23.5389 7.126 22.8895 7.126 22.1863C7.126 21.1523 7.96704 20.3113 9.001 20.3113H19.001Z" fill="#F6F7F9" stroke="#F6F7F9" stroke-width="0.25"/>
</g>
<defs>
<clipPath id="clip0_2002_11144">
<rect width="26" height="26" fill="white" transform="translate(0 0.186279)"/>
</clipPath>
</defs>
</svg>
