<svg width="36" height="36" viewBox="0 0 36 36" fill="none" xmlns="http://www.w3.org/2000/svg">
<circle cx="18" cy="18" r="18" fill="#2EBD32" fill-opacity="0.15"/>
<path d="M15.9151 26.169L15.9151 26.1689C14.2287 24.1167 12.904 22.1883 12.0017 20.4999C11.0975 18.808 10.6243 17.3702 10.6243 16.2954C10.6243 12.1328 13.936 8.74998 17.9993 8.74998C22.0635 8.74998 25.3743 12.132 25.3743 16.2954C25.3743 17.3702 24.9014 18.8081 23.9973 20.4999C23.0951 22.1883 21.7704 24.1167 20.0836 26.1689C19.5405 26.8288 18.7182 27.2491 17.9993 27.2491C17.2804 27.2491 16.4573 26.8295 15.9151 26.169ZM15.0836 26.8757C15.8289 27.7825 16.9427 28.3522 17.9993 28.3522C19.0559 28.3522 20.1705 27.7825 20.9151 26.8757C22.6966 24.7082 24.0806 22.6871 25.0197 20.8986C25.9575 19.1126 26.4577 17.5476 26.4577 16.2954C26.4577 11.5296 22.666 7.64771 17.9993 7.64771C13.3327 7.64771 9.54102 11.5296 9.54102 16.2954C9.54102 17.5476 10.0412 19.1126 10.979 20.8986C11.9181 22.6871 13.3021 24.7082 15.0836 26.8757Z" fill="#2EBD32" stroke="#2EBD32" stroke-width="0.25"/>
<path d="M14.541 16.2956C14.541 18.2421 16.0893 19.8297 17.9993 19.8297C19.9094 19.8297 21.4577 18.2421 21.4577 16.2956C21.4577 14.3491 19.9094 12.7615 17.9993 12.7615C16.0893 12.7615 14.541 14.3491 14.541 16.2956ZM15.6243 16.2956C15.6243 14.9523 16.6927 13.8637 17.9993 13.8637C19.306 13.8637 20.3743 14.9523 20.3743 16.2956C20.3743 17.6389 19.306 18.7274 17.9993 18.7274C16.6927 18.7274 15.6243 17.6389 15.6243 16.2956Z" fill="#2EBD32" stroke="#2EBD32" stroke-width="0.25"/>
</svg>
