<svg width="31" height="36" viewBox="0 0 31 36" fill="none" xmlns="http://www.w3.org/2000/svg">
<path d="M15.1739 18.511C17.1359 18.511 18.7265 16.9506 18.7265 15.0258C18.7265 13.101 17.1359 11.5406 15.1739 11.5406C13.2119 11.5406 11.6213 13.101 11.6213 15.0258C11.6213 16.9506 13.2119 18.511 15.1739 18.511Z" fill="#F9CF70"/>
<path d="M29.5971 10.7419C29.5046 10.4333 29.3982 10.1247 29.2779 9.8116C28.7413 8.38213 27.992 7.02526 27.0391 5.81815C24.6938 2.83215 21.1644 0.758279 17.3759 0.14111C16.0113 -0.0812523 14.5403 -0.103942 13.333 0.544993C12.3246 1.08502 11.5845 2.09245 11.4133 3.2088C11.2422 4.32515 11.6631 5.51865 12.5235 6.26288C13.8187 7.38831 15.6736 7.36561 17.2695 7.74227C19.0782 8.16884 20.6509 9.36234 21.6408 10.9053C22.219 11.8038 22.5891 12.8294 22.7371 13.8822C22.9268 15.2073 22.7649 16.5823 22.2422 17.8212C20.5723 21.7602 15.6921 23.5799 11.788 21.7012C9.90997 20.7981 8.39274 19.1054 7.79139 17.1314C7.69888 16.8319 7.62949 16.5278 7.58323 16.2147C7.22705 13.8913 6.81536 11.3318 3.75775 11.3046C1.8612 11.2865 0.172798 12.6887 0.0340254 14.4404C-0.262022 18.216 1.40787 21.7329 3.71611 24.6554C6.54243 28.2359 9.7712 31.6122 12.8704 34.9612C14.235 36.4361 16.3351 36.2954 17.6488 34.7706C23.69 27.7594 32.738 20.9161 29.6017 10.7374L29.5971 10.7419Z" fill="#F9CF70"/>
<path d="M29.5971 10.7419C29.5046 10.4333 29.3982 10.1247 29.2779 9.8116C28.7413 8.38213 27.992 7.02526 27.0391 5.81815C24.6938 2.83215 21.1644 0.758279 17.3759 0.14111C16.0113 -0.0812523 14.5403 -0.103942 13.333 0.544993C12.3246 1.08502 11.5845 2.09245 11.4133 3.2088C11.2422 4.32515 11.6631 5.51865 12.5235 6.26288C13.8187 7.38831 15.6736 7.36561 17.2695 7.74227C19.0782 8.16884 20.6509 9.36234 21.6408 10.9053C22.219 11.8038 22.5891 12.8294 22.7371 13.8822C22.9268 15.2073 22.7649 16.5823 22.2422 17.8212C20.5723 21.7602 15.6921 23.5799 11.788 21.7012C9.90997 20.7981 8.39274 19.1054 7.79139 17.1314C7.69888 16.8319 7.62949 16.5278 7.58323 16.2147C7.22705 13.8913 6.81536 11.3318 3.75775 11.3046C1.8612 11.2865 0.172798 12.6887 0.0340254 14.4404C-0.262022 18.216 1.40787 21.7329 3.71611 24.6554C6.54243 28.2359 9.7712 31.6122 12.8704 34.9612C14.235 36.4361 16.3351 36.2954 17.6488 34.7706C23.69 27.7594 32.738 20.9161 29.6017 10.7374L29.5971 10.7419Z" fill="#F9CF70"/>
<path d="M5.72363 7.07065L4.41454 6.40357C4.1925 6.29012 3.92884 6.2765 3.69756 6.3718L2.32833 6.91182C1.56508 7.21587 0.829599 6.42172 1.20891 5.70471L1.88889 4.42046C2.00454 4.20263 2.01842 3.94397 1.92128 3.71707L1.37081 2.37382C1.06089 1.62505 1.87039 0.903504 2.60126 1.27562L3.91034 1.94271C4.13237 2.05616 4.39603 2.06977 4.62732 1.97447L5.99655 1.43445C6.75979 1.1304 7.49528 1.92455 7.11597 2.64156L6.43598 3.92582C6.32034 4.14364 6.30647 4.40231 6.40361 4.62921L6.95406 5.97246C7.26399 6.72123 6.4545 7.44277 5.72363 7.07065Z" fill="#F9CF70"/>
</svg>
