<svg width="26" height="26" viewBox="0 0 26 26" fill="none" xmlns="http://www.w3.org/2000/svg">
<g clip-path="url(#clip0_400_16593)">
<path d="M21.125 4.33089H19.4697C19.1999 1.89664 17.1297 -0.00244141 14.625 -0.00244141H4.875C2.18725 -0.00244141 0 2.18481 0 4.87256V19.8811C0 20.5408 0.36075 21.1442 0.943583 21.4551C1.20792 21.5971 1.49717 21.6664 1.78533 21.6664C2.13092 21.6664 2.4765 21.5656 2.7755 21.3663L6.59317 18.8216C7.03625 21.0565 9.01225 22.7465 11.375 22.7465H18.7948L23.2245 25.6996C23.5235 25.9001 23.868 25.9997 24.2147 25.9997C24.5028 25.9997 24.7921 25.9304 25.0564 25.7885C25.6382 25.4776 26 24.8741 26 24.2144V9.20589C26 6.51814 23.8127 4.33089 21.125 4.33089ZM2.17425 20.4661C1.95433 20.6123 1.68675 20.6264 1.45383 20.5007C1.222 20.3772 1.08333 20.1454 1.08333 19.8821V4.87256C1.08333 2.78173 2.78417 1.08089 4.875 1.08089H14.625C16.7158 1.08089 18.4167 2.78173 18.4167 4.87256V13.5392C18.4167 15.6301 16.7158 17.3309 14.625 17.3309H7.10992C6.94308 17.3309 6.80117 17.3894 6.73617 17.4251L2.17425 20.4661ZM24.9167 24.2155C24.9167 24.4787 24.778 24.7106 24.5462 24.8341C24.3143 24.9586 24.0446 24.9446 23.8258 24.7994L19.2595 21.7552C19.1707 21.6956 19.0656 21.6642 18.9594 21.6642H11.3761C9.46942 21.6642 7.88667 20.2494 7.62342 18.4142H14.6261C17.3138 18.4142 19.5011 16.227 19.5011 13.5392V5.41423H21.1261C23.2169 5.41423 24.9177 7.11506 24.9177 9.20589V24.2144L24.9167 24.2155Z" fill="#585858"/>
</g>
<defs>
<clipPath id="clip0_400_16593">
<rect width="26" height="26" fill="white"/>
</clipPath>
</defs>
</svg>
