<svg width="24" height="15" viewBox="0 0 24 15" fill="none" xmlns="http://www.w3.org/2000/svg">
<g clip-path="url(#clip0_467_16849)">
<path d="M23.0249 7.22036L23.0249 7.22034C21.9257 5.32046 20.3454 3.72703 18.4544 2.61232C16.5058 1.46362 14.2739 0.856543 12 0.856543C9.72604 0.856543 7.49409 1.46362 5.54546 2.61232L5.59624 2.69847L5.54546 2.61232C3.6545 3.72708 2.07411 5.32046 0.975026 7.22034L0.975013 7.22036C0.874996 7.39335 0.874996 7.60655 0.975013 7.77954L0.975025 7.77956C2.07411 9.67948 3.6545 11.2729 5.54546 12.3876C7.49413 13.5363 9.72604 14.1434 12 14.1434C14.2739 14.1434 16.5058 13.5363 18.4544 12.3876C20.3454 11.2729 21.9257 9.67948 23.0249 7.77956L23.0249 7.77952C23.1249 7.6065 23.1249 7.39335 23.0249 7.22036ZM17.8873 11.4256C16.1105 12.473 14.0747 13.0267 11.9999 13.0267C9.92508 13.0267 7.88924 12.473 6.11252 11.4256C4.48048 10.4635 3.1018 9.11059 2.10861 7.4999C3.1018 5.88926 4.48048 4.53632 6.11252 3.57423C7.88924 2.52687 9.92508 1.97315 11.9999 1.97315C14.0747 1.97315 16.1105 2.52687 17.8873 3.57423C19.5193 4.53632 20.898 5.88921 21.8912 7.4999C20.898 9.11059 19.5193 10.4635 17.8873 11.4256Z" fill="#585858" stroke="#585858" stroke-width="0.2"/>
<path d="M12.0001 3.28159C9.67386 3.28159 7.78159 5.17386 7.78159 7.50005C7.78159 9.82624 9.67386 11.7186 12.0001 11.7186C14.3262 11.7186 16.2186 9.82624 16.2186 7.50005C16.2186 5.17391 14.3262 3.28159 12.0001 3.28159ZM12.0001 10.6019C10.2898 10.6019 8.89824 9.21035 8.89824 7.50005C8.89824 5.7898 10.2898 4.39824 12.0001 4.39824C13.7104 4.39824 15.1019 5.7898 15.1019 7.50005C15.1019 9.21035 13.7104 10.6019 12.0001 10.6019Z" fill="#585858" stroke="#585858" stroke-width="0.2"/>
</g>
<defs>
<clipPath id="clip0_467_16849">
<rect width="24" height="15" fill="white"/>
</clipPath>
</defs>
</svg>
