<svg width="19" height="23" viewBox="0 0 19 23" fill="none" xmlns="http://www.w3.org/2000/svg">
<path d="M16.9085 5.64583L16.9082 5.64554L13.8545 2.59179C12.7593 1.49664 11.3076 0.9 9.75875 0.9H4.9375C2.71227 0.9 0.9 2.71227 0.9 4.9375V18.0625C0.9 20.2877 2.71227 22.1 4.9375 22.1H14.5625C16.7877 22.1 18.6 20.2877 18.6 18.0625V9.74125C18.6 8.19209 17.9944 6.74061 16.9085 5.64583ZM9.85 12.2864V12.275H9.75H9.74998H9.74995H9.74992H9.74987H9.74982H9.74975H9.74967H9.74959H9.74949H9.74939H9.74927H9.74914H9.74901H9.74886H9.74871H9.74854H9.74837H9.74818H9.74798H9.74778H9.74757H9.74734H9.74711H9.74686H9.74661H9.74635H9.74607H9.74579H9.7455H9.7452H9.74488H9.74456H9.74423H9.74389H9.74354H9.74318H9.74282H9.74244H9.74205H9.74165H9.74125H9.74083H9.74041H9.73997H9.73953H9.73908H9.73862H9.73814H9.73766H9.73717H9.73668H9.73617H9.73565H9.73513H9.73459H9.73405H9.73349H9.73293H9.73236H9.73178H9.73119H9.73059H9.72999H9.72937H9.72875H9.72811H9.72747H9.72682H9.72616H9.72549H9.72482H9.72413H9.72343H9.72273H9.72202H9.7213H9.72057H9.71983H9.71908H9.71833H9.71757H9.71679H9.71601H9.71522H9.71443H9.71362H9.71281H9.71198H9.71115H9.71031H9.70947H9.70861H9.70774H9.70687H9.70599H9.7051H9.70421H9.7033H9.70239H9.70146H9.70053H9.6996H9.69865H9.6977H9.69673H9.69576H9.69479H9.6938H9.69281H9.6918H9.69079H9.68978H9.68875H9.68772H9.68667H9.68563H9.68457H9.6835H9.68243H9.68135H9.68026H9.67917H9.67806H9.67695H9.67583H9.67471H9.67357H9.67243H9.67128H9.67013H9.66896H9.66779H9.66661H9.66543H9.66423H9.66303H9.66182H9.66061H9.65939H9.65815H9.65692H9.65567H9.65442H9.65316H9.65189H9.65062H9.64934H9.64805H9.64676H9.64545H9.64414H9.64283H9.6415H9.64017H9.63883H9.63749H9.63614H9.63478H9.63342H9.63204H9.63066H9.62928H9.62788H9.62648H9.62508H9.62367H9.62225H9.62082H9.61939H9.61794H9.6165H9.61504H9.61358H9.61212H9.61065H9.60917H9.60768H9.60619H9.60469H9.60318H9.60167H9.60015H9.59862H9.59709H9.59555H9.59401H9.59246H9.5909H9.58934H9.58777H9.58619H9.58461H9.58302H9.58143H9.57983H9.57822H9.57661H9.57499H9.57336H9.57173H9.5701H9.56845H9.5668H9.56515H9.56349H9.56182H9.56015H9.55847H9.55678H9.55509H9.5534H9.55169H9.54999H9.54827H9.54655H9.54483H9.5431H9.54136H9.53962H9.53787H9.53611H9.53435H9.53259H9.53082H9.52904H9.52726H9.52547H9.52368H9.52188H9.52008H9.51827H9.51646H9.51464H9.51281H9.51098H9.50914H9.5073H9.50546H9.50361H9.50175H9.49989H9.49802H9.49615H9.49427H9.49239H9.4905H9.48861H9.48671H9.48481H9.4829H9.48098H9.47906H9.47714H9.47521H9.47328H9.47134H9.4694H9.46745H9.4655H9.46354H9.46158H9.45961H9.45764H9.45567H9.45368H9.4517H9.44971H9.44771H9.44571H9.44371H9.4417H9.43969H9.43767H9.43565H9.43362H9.43159H9.42955H9.42751H9.42547H9.42342H9.42136H9.4193H9.41724H9.41518H9.4131H9.41103H9.40895H9.40687H9.40478H9.40268H9.40059H9.39849H9.39638H9.39427H9.39216H9.39004H9.38792H9.3858H9.38367H9.38153H9.3794H9.37726H9.37511H9.37296H9.37081H9.36865H9.36649H9.36433H9.36216H9.35999H9.35781H9.35563H9.35345H9.35126H9.34907H9.34688H9.34468H9.34248H9.34027H9.33806H9.33585H9.33363H9.33141H9.32919H9.32697H9.32474H9.3225H9.32027H9.31803H9.31578H9.31354H9.31129H9.30903H9.30678H9.30451H9.30225H9.29998H9.29772H9.29544H9.29317H9.29089H9.28861H9.28632H9.28403H9.28174H9.27945H9.27715H9.27485H9.27254H9.27024H9.26793H9.26562H9.2633H9.26098H9.25866H9.25634H9.25401H9.25168H9.24935H9.24701H9.24468H9.24234H9.23999H9.23765H9.2353H9.23295H9.23059H9.22824H9.22588H9.22352H9.22115H9.21879H9.21642H9.21405H9.21167H9.2093H9.20692H9.20454H9.20215H9.19977H9.19738H9.19499H9.1926H9.1902H9.18781H9.18541H9.18301H9.1806H9.1782H9.17579H9.17338H9.17097H9.16855H9.16614H9.16372H9.1613H9.15888H9.15645H9.15403H9.1516H9.14917H9.14674H9.1443H9.14187H9.13943H9.13699H9.13455H9.13211H9.12966H9.12722H9.12477H9.12232H9.11987H9.11742H9.11496H9.1125H9.11005H9.10759H9.10513H9.10267H9.1002H9.09774H9.09527H9.0928H9.09033H9.08786H9.08539H9.08292H9.08044H9.07797H9.07549H9.07301H9.07053H9.06805H9.06557H9.06308H9.0606H9.05811H9.05563H9.05314H9.05065H9.04816H9.04567H9.04318H9.04068H9.03819H9.0357H9.0332H9.0307H9.02821H9.02571H9.02321H9.02071H9.01821H9.01571H9.0132H9.0107H9.00819H9.00569H9.00319H9.00068H8.99817H8.99567H8.99316H8.99065H8.98814H8.98563H8.98312H8.98061H8.9781H8.97559H8.97308H8.97056H8.96805H8.96554H8.96302H8.96051H8.958H8.95548H8.95297H8.95045H8.94794H8.94542H8.94291H8.94039H8.93788H8.93536H8.93284H8.93033H8.92781H8.9253H8.92278H8.92026H8.91775H8.91523H8.91272H8.9102H8.90768H8.90517H8.90265H8.90014H8.89762H8.89511H8.89259H8.89008H8.88757H8.88505H8.88254H8.88003H8.87751H8.875C8.33852 12.275 7.9 12.7135 7.9 13.25V16.75C7.9 17.2865 8.33852 17.725 8.875 17.725H8.87746H8.87992H8.88238H8.88485H8.88731H8.88977H8.89223H8.89469H8.89715H8.89962H8.90208H8.90454H8.907H8.90946H8.91193H8.91439H8.91685H8.91931H8.92177H8.92423H8.9267H8.92916H8.93162H8.93408H8.93654H8.939H8.94146H8.94392H8.94638H8.94884H8.95129H8.95375H8.95621H8.95867H8.96112H8.96358H8.96604H8.96849H8.97095H8.9734H8.97586H8.97831H8.98076H8.98321H8.98567H8.98812H8.99057H8.99302H8.99547H8.99791H9.00036H9.00281H9.00525H9.0077H9.01015H9.01259H9.01503H9.01747H9.01991H9.02236H9.02479H9.02723H9.02967H9.03211H9.03454H9.03698H9.03941H9.04184H9.04428H9.04671H9.04913H9.05156H9.05399H9.05642H9.05884H9.06126H9.06369H9.06611H9.06853H9.07095H9.07336H9.07578H9.0782H9.08061H9.08302H9.08543H9.08784H9.09025H9.09266H9.09506H9.09747H9.09987H9.10227H9.10467H9.10707H9.10946H9.11186H9.11425H9.11664H9.11903H9.12142H9.12381H9.12619H9.12857H9.13096H9.13334H9.13571H9.13809H9.14046H9.14284H9.14521H9.14758H9.14994H9.15231H9.15467H9.15703H9.15939H9.16175H9.16411H9.16646H9.16881H9.17116H9.17351H9.17585H9.1782H9.18054H9.18288H9.18521H9.18755H9.18988H9.19221H9.19454H9.19687H9.19919H9.20151H9.20383H9.20615H9.20846H9.21078H9.21309H9.21539H9.2177H9.22H9.2223H9.2246H9.2269H9.22919H9.23148H9.23377H9.23605H9.23834H9.24062H9.24289H9.24517H9.24744H9.24971H9.25198H9.25424H9.2565H9.25876H9.26102H9.26327H9.26552H9.26777H9.27002H9.27226H9.2745H9.27674H9.27897H9.2812H9.28343H9.28565H9.28787H9.29009H9.29231H9.29452H9.29673H9.29894H9.30114H9.30334H9.30554H9.30774H9.30993H9.31212H9.3143H9.31648H9.31866H9.32084H9.32301H9.32518H9.32734H9.3295H9.33166H9.33382H9.33597H9.33812H9.34027H9.34241H9.34455H9.34668H9.34881H9.35094H9.35306H9.35519H9.3573H9.35942H9.36153H9.36363H9.36574H9.36784H9.36993H9.37202H9.37411H9.3762H9.37828H9.38036H9.38243H9.3845H9.38657H9.38863H9.39069H9.39274H9.39479H9.39684H9.39888H9.40092H9.40295H9.40498H9.40701H9.40903H9.41105H9.41307H9.41508H9.41708H9.41909H9.42108H9.42308H9.42507H9.42705H9.42904H9.43101H9.43299H9.43495H9.43692H9.43888H9.44084H9.44279H9.44474H9.44668H9.44862H9.45055H9.45248H9.45441H9.45633H9.45824H9.46016H9.46206H9.46397H9.46587H9.46776H9.46965H9.47153H9.47341H9.47529H9.47716H9.47903H9.48089H9.48274H9.4846H9.48644H9.48829H9.49012H9.49196H9.49378H9.49561H9.49743H9.49924H9.50105H9.50285H9.50465H9.50644H9.50823H9.51002H9.5118H9.51357H9.51534H9.5171H9.51886H9.52062H9.52236H9.52411H9.52585H9.52758H9.52931H9.53103H9.53275H9.53446H9.53617H9.53787H9.53956H9.54125H9.54294H9.54462H9.5463H9.54797H9.54963H9.55129H9.55294H9.55459H9.55623H9.55787H9.5595H9.56113H9.56275H9.56436H9.56597H9.56757H9.56917H9.57076H9.57235H9.57393H9.57551H9.57708H9.57864H9.5802H9.58175H9.5833H9.58484H9.58637H9.5879H9.58942H9.59094H9.59245H9.59396H9.59546H9.59695H9.59844H9.59992H9.6014H9.60287H9.60433H9.60579H9.60724H9.60868H9.61012H9.61155H9.61298H9.6144H9.61582H9.61722H9.61863H9.62002H9.62141H9.62279H9.62417H9.62554H9.6269H9.62826H9.62961H9.63096H9.6323H9.63363H9.63496H9.63627H9.63759H9.63889H9.64019H9.64149H9.64277H9.64405H9.64533H9.64659H9.64785H9.64911H9.65035H9.65159H9.65283H9.65405H9.65527H9.65649H9.65769H9.65889H9.66008H9.66127H9.66245H9.66362H9.66479H9.66594H9.6671H9.66824H9.66938H9.67051H9.67163H9.67275H9.67386H9.67496H9.67605H9.67714H9.67822H9.6793H9.68036H9.68142H9.68248H9.68352H9.68456H9.68559H9.68661H9.68763H9.68864H9.68964H9.69063H9.69162H9.6926H9.69357H9.69454H9.69549H9.69644H9.69739H9.69832H9.69925H9.70017H9.70108H9.70199H9.70288H9.70377H9.70465H9.70553H9.70639H9.70725H9.70811H9.70895H9.70978H9.71061H9.71143H9.71224H9.71305H9.71385H9.71464H9.71542H9.71619H9.71696H9.71771H9.71846H9.7192H9.71994H9.72066H9.72138H9.72209H9.72279H9.72349H9.72417H9.72485H9.72552H9.72618H9.72683H9.72748H9.72812H9.72875H9.72937H9.72998H9.73058H9.73118H9.73176H9.73234H9.73291H9.73348H9.73403H9.73458H9.73511H9.73564H9.73616H9.73667H9.73718H9.73767H9.73816H9.73864H9.73911H9.73957H9.74002H9.74046H9.7409H9.74132H9.74174H9.74215H9.74255H9.74294H9.74332H9.7437H9.74406H9.74442H9.74477H9.74511H9.74544H9.74576H9.74607H9.74637H9.74667H9.74695H9.74723H9.7475H9.74776H9.748H9.74825H9.74848H9.7487H9.74891H9.74912H9.74931H9.7495H9.74967H9.74984H9.75C10.7758 17.725 11.6 16.9021 11.6 15.8925V14.1163C11.6 13.1396 10.8289 12.3378 9.85 12.2864ZM16.1455 6.40821C16.5811 6.84377 16.9214 7.35235 17.153 7.9H12.8125C12.1415 7.9 11.6 7.35852 11.6 6.6875V2.34631C12.1537 2.57774 12.6554 2.9181 13.0918 3.35446L16.1455 6.40821ZM17.525 18.0625C17.525 19.696 16.196 21.025 14.5625 21.025H4.9375C3.30398 21.025 1.975 19.696 1.975 18.0625V4.9375C1.975 3.30398 3.30398 1.975 4.9375 1.975H9.75875C10.0141 1.975 10.2695 1.99596 10.525 2.03793V6.6875C10.525 7.95023 11.5498 8.975 12.8125 8.975H17.4625C17.5041 9.22315 17.525 9.47854 17.525 9.74125V18.0625ZM5.34875 12.275H4.5C3.96352 12.275 3.525 12.7135 3.525 13.25V17.1875C3.525 17.4877 3.76227 17.725 4.0625 17.725C4.36273 17.725 4.6 17.4877 4.6 17.1875V15.975H5.34875C6.37619 15.975 7.2075 15.1243 7.2075 14.1075C7.2075 13.0881 6.37359 12.275 5.34875 12.275ZM5.34875 14.9H4.6V13.35H5.34875C5.78616 13.35 6.1325 13.6928 6.1325 14.1075C6.1325 14.5267 5.77288 14.9 5.34875 14.9ZM10.525 15.8925C10.525 16.2997 10.1944 16.6335 9.78307 16.65H8.975V13.35H9.78307C10.1938 13.3665 10.525 13.7084 10.525 14.1075V15.8837V15.8925ZM15.4375 13.35C15.7377 13.35 15.975 13.1127 15.975 12.8125C15.975 12.5123 15.7377 12.275 15.4375 12.275H13.25C12.7135 12.275 12.275 12.7135 12.275 13.25V17.1875C12.275 17.4877 12.5123 17.725 12.8125 17.725C13.1127 17.725 13.35 17.4877 13.35 17.1875V15.975H14.5625C14.8627 15.975 15.1 15.7377 15.1 15.4375C15.1 15.1373 14.8627 14.9 14.5625 14.9H13.35V13.35H15.4375Z" fill="#3E404C" stroke="#3E404C" stroke-width="0.2"/>
</svg>
