<svg width="27" height="27" viewBox="0 0 27 27" fill="none" xmlns="http://www.w3.org/2000/svg">
<g clip-path="url(#clip0_1928_38212)">
<path d="M13.5 0C6.05602 0 0 6.05602 0 13.5C0 20.944 6.05602 27 13.5 27C20.944 27 27 20.944 27 13.5C27 6.05602 20.944 0 13.5 0ZM13.5 25.3125C6.98678 25.3125 1.6875 20.0132 1.6875 13.5C1.6875 6.98678 6.98678 1.6875 13.5 1.6875C20.0132 1.6875 25.3125 6.98678 25.3125 13.5C25.3125 20.0132 20.0132 25.3125 13.5 25.3125ZM20.9883 13.5C20.9883 13.9662 20.6107 14.3438 20.1445 14.3438H14.3438V20.1445C14.3438 20.6107 13.9662 20.9883 13.5 20.9883C13.0338 20.9883 12.6562 20.6107 12.6562 20.1445V14.3438H6.85547C6.3893 14.3438 6.01172 13.9662 6.01172 13.5C6.01172 13.0338 6.3893 12.6562 6.85547 12.6562H12.6562V6.85547C12.6562 6.3893 13.0338 6.01172 13.5 6.01172C13.9662 6.01172 14.3438 6.3893 14.3438 6.85547V12.6562H20.1445C20.6107 12.6562 20.9883 13.0338 20.9883 13.5Z" fill="#3E404C"/>
</g>
<defs>
<clipPath id="clip0_1928_38212">
<rect width="27" height="27" fill="white"/>
</clipPath>
</defs>
</svg>
