<svg width="26" height="26" viewBox="0 0 26 26" fill="none" xmlns="http://www.w3.org/2000/svg">
<g clip-path="url(#clip0_798_20767)">
<path d="M20.5 6.9H20.1V3.5C20.1 2.0668 18.9343 0.9 17.5 0.9H8.5C7.06677 0.9 5.9 2.06677 5.9 3.5V6.9H5.5C2.96377 6.9 0.9 8.96377 0.9 11.5V17.5C0.9 20.0362 2.96377 22.1 5.5 22.1H5.9V22.5C5.9 23.9332 7.06677 25.1 8.5 25.1H17.5C18.9343 25.1 20.1 23.9332 20.1 22.5V22.1H20.5C23.0362 22.1 25.1 20.0362 25.1 17.5V11.5C25.1 8.96377 23.0362 6.9 20.5 6.9ZM7.1 3.5C7.1 2.72823 7.72823 2.1 8.5 2.1H17.5C18.2718 2.1 18.9 2.72823 18.9 3.5V6.9H7.1V3.5ZM18.9 22.5C18.9 23.2718 18.2718 23.9 17.5 23.9H8.5C7.72823 23.9 7.1 23.2718 7.1 22.5V17.5C7.1 16.7282 7.72823 16.1 8.5 16.1H17.5C18.2718 16.1 18.9 16.7282 18.9 17.5V22.5ZM23.9 17.5C23.9 19.3748 22.3748 20.9 20.5 20.9H20.1V17.5C20.1 16.0668 18.9343 14.9 17.5 14.9H8.5C7.06677 14.9 5.9 16.0668 5.9 17.5V20.9H5.5C3.62523 20.9 2.1 19.3748 2.1 17.5V11.5C2.1 9.62523 3.62523 8.1 5.5 8.1H20.5C22.3748 8.1 23.9 9.62523 23.9 11.5V17.5ZM19.5 12.1C19.8312 12.1 20.1 11.8312 20.1 11.5C20.1 11.1688 19.8312 10.9 19.5 10.9H16.5C16.1688 10.9 15.9 11.1688 15.9 11.5C15.9 11.8312 16.1688 12.1 16.5 12.1H19.5Z" fill="black" stroke="black" stroke-width="0.2"/>
</g>
<defs>
<clipPath id="clip0_798_20767">
<rect width="26" height="26" fill="white"/>
</clipPath>
</defs>
</svg>
