<svg width="24" height="27" viewBox="0 0 24 27" fill="none" xmlns="http://www.w3.org/2000/svg">
<g clip-path="url(#clip0_2002_11124)">
<path d="M11.502 19.1018L9.563 13.9318C9.533 13.8508 9.47 13.8308 9.423 13.8288M11.502 19.1018L11.3849 19.1457L9.44596 13.9757L9.44578 13.9752C9.44271 13.9669 9.43977 13.9628 9.43826 13.9609C9.43678 13.9591 9.4356 13.9582 9.4346 13.9576C9.43282 13.9565 9.42953 13.9552 9.4244 13.9544M11.502 19.1018L11.385 19.1457C11.5662 19.6296 12.0005 19.948 12.5169 19.9765M11.502 19.1018C11.666 19.5398 12.058 19.8268 12.526 19.8518M9.4244 13.9544C9.42774 13.954 9.43146 13.9536 9.43569 13.9532L9.423 13.8288M9.4244 13.9544C9.41737 13.9551 9.41196 13.9558 9.40676 13.9568C9.39966 13.9581 9.39587 13.9594 9.39389 13.9603C9.39231 13.9609 9.39179 13.9614 9.39133 13.9618C9.39083 13.9623 9.38829 13.9648 9.3848 13.9717L8.3368 16.0677L8.33676 16.0678C8.05956 16.6211 7.50129 16.9658 6.882 16.9658H1.5C1.15496 16.9658 0.875 16.6859 0.875 16.3408C0.875 15.9958 1.15496 15.7158 1.5 15.7158H6.882C7.02564 15.7158 7.15337 15.6366 7.2172 15.5089L8.26514 13.413C8.49633 12.9495 8.96083 12.6774 9.48163 12.705L9.48167 12.705C9.9991 12.7326 10.4345 13.0513 10.616 13.5359M9.4244 13.9544L10.616 13.5359M9.423 13.8288L9.42214 13.8289C9.37326 13.8339 9.31078 13.8403 9.273 13.9158L8.225 16.0118L9.423 13.8288ZM10.499 13.5798L12.438 18.7498C12.468 18.8308 12.531 18.8508 12.578 18.8528C12.632 18.8558 12.69 18.8428 12.728 18.7658L13.776 16.6698C14.032 16.1588 14.546 15.8408 15.118 15.8408H19.5C19.776 15.8408 20 16.0648 20 16.3408C20 16.6168 19.776 16.8408 19.5 16.8408H15.118C14.927 16.8408 14.756 16.9468 14.671 17.1168L13.623 19.2128C13.423 19.6118 13.031 19.8538 12.59 19.8538C12.569 19.8538 12.547 19.8538 12.526 19.8518M10.499 13.5798L10.6161 13.536L12.555 18.7059L12.5552 18.7064C12.5583 18.7147 12.5612 18.7189 12.5627 18.7207C12.5642 18.7225 12.5654 18.7234 12.5664 18.724C12.5689 18.7255 12.5742 18.7275 12.5833 18.7279L12.5849 18.728C12.5924 18.7284 12.5974 18.7281 12.6007 18.7276L12.6039 18.727L12.6048 18.7267L12.605 18.7266L12.6063 18.7253C12.6078 18.7238 12.6114 18.7196 12.6159 18.7105L12.6162 18.7099L13.6642 16.6139L13.6642 16.6138C13.9414 16.0606 14.4986 15.7158 15.118 15.7158H19.5C19.845 15.7158 20.125 15.9958 20.125 16.3408C20.125 16.6859 19.845 16.9658 19.5 16.9658H15.118C14.9744 16.9658 14.8466 17.0451 14.7828 17.1727L13.7348 19.2687L13.7347 19.2688C13.5137 19.7098 13.0786 19.9788 12.59 19.9788H12.588C12.5689 19.9788 12.543 19.9788 12.5169 19.9765M10.499 13.5798L10.616 13.5359M10.499 13.5798C10.335 13.1418 9.943 12.8548 9.475 12.8298L10.616 13.5359M12.5169 19.9765C12.5177 19.9766 12.5185 19.9766 12.5193 19.9766L12.526 19.8518M12.5169 19.9765C12.516 19.9764 12.5151 19.9763 12.5141 19.9763L12.526 19.8518M15.126 3.40631V8.34182C15.126 9.09978 15.743 9.71682 16.501 9.71682H21.4357C21.1705 9.09318 20.7934 8.51791 20.3016 8.02521L15.126 3.40631ZM15.126 3.40631C15.7492 3.6707 16.3242 4.04775 16.8166 4.54021L20.3015 8.02513L15.126 3.40631ZM23.125 21.3408V11.8258C23.125 10.0567 22.4358 8.39287 21.1844 7.14143L17.6994 3.65647C16.449 2.40498 14.7841 1.71582 13.015 1.71582H7.5C4.94996 1.71582 2.875 3.79078 2.875 6.34082V13.3408C2.875 13.6859 3.15496 13.9658 3.5 13.9658C3.84504 13.9658 4.125 13.6859 4.125 13.3408V6.34082C4.125 4.47986 5.63904 2.96582 7.5 2.96582H13.015C13.3046 2.96582 13.5908 2.99522 13.875 3.04211V8.34082C13.875 9.78786 15.053 10.9658 16.5 10.9658H21.7988C21.8456 11.2492 21.875 11.5354 21.875 11.8258V21.3408C21.875 23.2018 20.361 24.7158 18.5 24.7158H7.5C5.63904 24.7158 4.125 23.2018 4.125 21.3408V19.3408C4.125 18.9958 3.84504 18.7158 3.5 18.7158C3.15496 18.7158 2.875 18.9958 2.875 19.3408V21.3408C2.875 23.8909 4.94996 25.9658 7.5 25.9658H18.5C21.05 25.9658 23.125 23.8909 23.125 21.3408Z" fill="#F6F7F9" stroke="#F6F7F9" stroke-width="0.25"/>
</g>
<defs>
<clipPath id="clip0_2002_11124">
<rect width="24" height="26" fill="white" transform="translate(0 0.84082)"/>
</clipPath>
</defs>
</svg>
