<svg width="21" height="22" viewBox="0 0 21 22" fill="none" xmlns="http://www.w3.org/2000/svg">
<path d="M9.61544 15.4955L9.7325 15.4517L8.09181 11.077C8.06642 11.0085 8.01312 10.9916 7.97335 10.9899M9.61544 15.4955L7.97477 11.1209L7.97459 11.1205C7.97378 11.1183 7.97305 11.1167 7.97251 11.1157M9.61544 15.4955C9.61544 15.4955 9.61545 15.4955 9.61546 15.4955C9.77145 15.9121 10.1455 16.1863 10.5899 16.211M9.61544 15.4955L6.95965 12.837L7.84642 11.0635C7.87839 10.9996 7.93126 10.9942 7.97262 10.99L7.97335 10.9899M7.97251 11.1157C7.97287 11.1157 7.97323 11.1156 7.97361 11.1156C7.97371 11.1156 7.97377 11.1156 7.97377 11.1156C7.97377 11.1156 7.97373 11.1156 7.97366 11.1156C7.97704 11.1152 7.98103 11.1147 7.98604 11.1142L7.97335 10.9899M7.97251 11.1157C7.97242 11.1155 7.97234 11.1154 7.97226 11.1152C7.97133 11.115 7.96995 11.1149 7.96803 11.1148L7.97335 10.9899M7.97251 11.1157C7.96884 11.1161 7.96589 11.1166 7.96307 11.1171C7.96133 11.1174 7.95999 11.1177 7.95899 11.1179M7.95899 11.1179C7.96044 11.1153 7.96091 11.1153 7.95974 11.1164C7.95853 11.1175 7.95726 11.1183 7.95664 11.1186C7.95655 11.1187 7.95647 11.1187 7.95641 11.1187C7.9564 11.1187 7.95647 11.1187 7.95667 11.1186C7.95702 11.1185 7.95776 11.1183 7.95899 11.1179ZM7.95899 11.1179C7.95876 11.1184 7.9585 11.1188 7.95823 11.1194L7.07146 12.8929L7.07141 12.893C6.8336 13.3677 6.35456 13.6635 5.82327 13.6635H1.26927C0.966694 13.6635 0.721191 13.418 0.721191 13.1154C0.721191 12.8128 0.966694 12.5673 1.26927 12.5673H5.82327C5.93752 12.5673 6.03894 12.5044 6.0897 12.4029L6.97641 10.6295C7.17545 10.2304 7.57564 9.99596 8.02397 10.0198L8.02401 10.0198C8.46945 10.0435 8.84458 10.318 9.00085 10.7353C9.00086 10.7353 9.00086 10.7353 9.00087 10.7354L10.6415 15.1099L10.6417 15.1104C10.6423 15.112 10.6428 15.1132 10.6433 15.1142C10.6436 15.1148 10.6438 15.1152 10.644 15.1156C10.645 15.1158 10.6464 15.116 10.6483 15.1161L10.6499 15.1161C10.6522 15.1163 10.6541 15.1163 10.6555 15.1163C10.6562 15.1152 10.6569 15.1138 10.6578 15.112L10.6581 15.1114L11.5449 13.3379L11.5449 13.3378C11.7827 12.8632 12.2608 12.5673 12.7922 12.5673H16.5C16.8026 12.5673 17.0481 12.8128 17.0481 13.1154C17.0481 13.418 16.8026 13.6635 16.5 13.6635H12.7922C12.6779 13.6635 12.5765 13.7264 12.5258 13.8279L11.639 15.6015L11.6389 15.6016C11.4487 15.9812 11.0739 16.213 10.6531 16.213H10.6512C10.6353 16.213 10.6127 16.213 10.5899 16.211M10.5899 16.211C10.5907 16.211 10.5915 16.211 10.5923 16.2111L10.599 16.0863L10.5871 16.2107C10.588 16.2108 10.589 16.2109 10.5899 16.211ZM10.7699 15.1673L11.6567 13.3938C11.8733 12.9614 12.3082 12.6923 12.7922 12.6923H16.5C16.7336 12.6923 16.9231 12.8819 16.9231 13.1154C16.9231 13.349 16.7336 13.5385 16.5 13.5385H12.7922C12.6306 13.5385 12.4859 13.6282 12.414 13.772L11.5272 15.5456L10.7699 15.1673ZM10.7699 15.1673C10.7377 15.2325 10.6887 15.2435 10.643 15.241L10.7699 15.1673ZM12.8182 2.19998V6.34704C12.8182 6.97777 13.3317 7.49127 13.9624 7.49127H18.1088C17.8859 6.97601 17.572 6.50074 17.1647 6.09273L12.8182 2.19998ZM12.8182 2.19998C13.3331 2.42217 13.8081 2.73609 14.2159 3.14389L17.1646 6.09265L12.8182 2.19998ZM19.5866 17.3462V9.29504C19.5866 7.79296 19.0014 6.38024 17.9389 5.31773L14.9901 2.36892C13.9284 1.30635 12.5148 0.721191 11.0127 0.721191H6.34619C4.17785 0.721191 2.4135 2.48554 2.4135 4.65388V10.577C2.4135 10.8795 2.659 11.125 2.96158 11.125C3.26415 11.125 3.50965 10.8795 3.50965 10.577V4.65388C3.50965 3.08984 4.78215 1.81735 6.34619 1.81735H11.0127C11.251 1.81735 11.4868 1.841 11.7212 1.87901V6.34619C11.7212 7.58123 12.7265 8.58658 13.9616 8.58658H18.4288C18.4668 8.82029 18.4904 9.05606 18.4904 9.29504V17.3462C18.4904 18.9102 17.2179 20.1827 15.6539 20.1827H6.34619C4.78215 20.1827 3.50965 18.9102 3.50965 17.3462V15.6539C3.50965 15.3513 3.26415 15.1058 2.96158 15.1058C2.659 15.1058 2.4135 15.3513 2.4135 15.6539V17.3462C2.4135 19.5145 4.17785 21.2789 6.34619 21.2789H15.6539C17.8222 21.2789 19.5866 19.5145 19.5866 17.3462Z" fill="#585858" stroke="#585858" stroke-width="0.25"/>
</svg>
