<svg width="17" height="18" viewBox="0 0 17 18" fill="none" xmlns="http://www.w3.org/2000/svg">
<path d="M16.8011 16.3005L12.5766 12.0759C15.0548 9.04503 14.6066 4.5793 11.5757 2.1011C8.54523 -0.3771 4.07923 0.0710994 1.60107 3.102C-0.877086 6.1329 -0.428894 10.5986 2.60196 13.0768C5.21249 15.2113 8.96555 15.2113 11.5761 13.0768L15.8006 17.3014C16.0816 17.5728 16.5297 17.5651 16.8014 17.2841C17.0662 17.0098 17.0662 16.5752 16.8014 16.3008L16.8011 16.3005ZM7.10013 13.2623C3.97307 13.2623 1.43819 10.7274 1.43819 7.60024C1.43819 4.47314 3.97341 1.93854 7.10013 1.93854C10.2269 1.93854 12.7621 4.47347 12.7621 7.60058C12.7584 10.726 10.2259 13.259 7.10013 13.2626V13.2623Z" fill="#585858"/>
</svg>
