<svg width="22" height="22" viewBox="0 0 22 22" fill="none" xmlns="http://www.w3.org/2000/svg">
<g clip-path="url(#clip0_2002_11151)">
<path d="M20.7452 12.2861L20.7463 12.285C21.0897 11.9425 21.2789 11.485 21.2789 11V10.9992C21.2789 10.514 21.0896 10.0566 20.7421 9.70999L20.741 9.70892L16.8816 5.95284L16.792 5.86561L16.7048 5.95529L16.1151 6.56198L16.028 6.65155L16.1175 6.73868L19.9321 10.452H5.92308H5.79808V10.577V11.4231V11.5481H5.92308H19.9328L16.1184 15.2605L16.0288 15.3477L16.1159 15.4372L16.7057 16.0439L16.7929 16.1336L16.8825 16.0464L20.7452 12.2861ZM10.0289 8.46158V8.58658H10.1539H11H11.125V8.46158V2.96158C11.125 1.72654 10.1197 0.721191 8.88462 0.721191H2.96155C1.72651 0.721191 0.721161 1.72654 0.721161 2.96158V19.0385C0.721161 20.2744 1.72654 21.2789 2.96155 21.2789H8.88462C10.1196 21.2789 11.125 20.2744 11.125 19.0385V13.5385V13.4135H11H10.1539H10.0289V13.5385V19.0385C10.0289 19.6692 9.51536 20.1827 8.88462 20.1827H2.96155C2.33081 20.1827 1.81731 19.6692 1.81731 19.0385V2.96158C1.81731 2.33084 2.33081 1.81735 2.96155 1.81735H8.88462C9.51536 1.81735 10.0289 2.33084 10.0289 2.96158V8.46158Z" fill="black" stroke="black" stroke-width="0.25"/>
</g>
<defs>
<clipPath id="clip0_2002_11151">
<rect width="22" height="22" fill="white"/>
</clipPath>
</defs>
</svg>
