<svg width="26" height="24" viewBox="0 0 26 24" fill="none" xmlns="http://www.w3.org/2000/svg">
<path d="M19.5794 13.2441L19.5795 13.2441C20.4023 12.4223 20.8535 11.3305 20.8535 10.1682C20.8535 9.00599 20.4013 7.91415 19.5794 7.09228C19.3259 6.8387 19.3259 6.42673 19.5794 6.17315C19.833 5.91957 20.245 5.91957 20.4986 6.17315C21.5657 7.24027 22.1535 8.65943 22.1535 10.1682C22.1535 11.6769 21.5658 13.0971 20.4986 14.1633L19.5794 13.2441ZM19.5794 13.2441C19.3259 13.4977 19.3259 13.9097 19.5794 14.1633C19.833 14.4168 20.2449 14.4169 20.4985 14.1633L19.5794 13.2441ZM9.16093 15.3182H12.0045C14.1144 15.3182 15.3171 15.6148 15.9952 16.1644C16.6614 16.7044 16.8545 17.5181 16.8545 18.6682C16.8545 19.0271 17.1457 19.3182 17.5045 19.3182C17.8633 19.3182 18.1545 19.0271 18.1545 18.6682V1.66821C18.1545 1.30898 17.862 1.01821 17.5035 1.01821C17.1447 1.01821 16.8535 1.30937 16.8535 1.66821C16.8535 2.4683 16.7134 3.29217 16.0614 3.92113C15.4063 4.55299 14.2036 5.01821 12.0035 5.01821H4.50351C2.49067 5.01821 0.85351 6.65537 0.85351 8.66821V11.6682C0.85351 13.108 1.69611 14.3456 2.90759 14.9392L5.90238 21.688C5.90239 21.688 5.9024 21.688 5.9024 21.6881C6.34146 22.6783 7.3252 23.3182 8.40851 23.3182C9.33084 23.3182 10.1858 22.859 10.6955 22.0901L10.6956 22.09C11.2043 21.3211 11.2932 20.3551 10.9347 19.5068L10.9346 19.5067L9.16093 15.3182ZM9.73738 20.0137L9.73741 20.0138C9.92979 20.4675 9.8846 20.9613 9.61157 21.3722L9.61145 21.3724C9.33925 21.7834 8.90223 22.0182 8.40851 22.0182C7.83891 22.0182 7.3216 21.6812 7.09062 21.1614C7.09061 21.1614 7.0906 21.1613 7.09059 21.1613L4.49824 15.3182C4.49999 15.3182 4.50175 15.3182 4.50351 15.3182H7.74913L9.73738 20.0137ZM2.15351 11.6682V8.66821C2.15351 7.37306 3.20835 6.31821 4.50351 6.31821H6.85351V14.0182H4.50351C3.20835 14.0182 2.15351 12.9634 2.15351 11.6682ZM12.0035 14.0182H8.15351V6.31821H12.0035C14.1994 6.31821 15.8226 5.85089 16.8535 4.91262V15.2039C15.7574 14.2648 14.0491 14.0182 12.0035 14.0182ZM21.7014 16.2843C21.955 16.5379 22.367 16.5379 22.6206 16.2843C25.9932 12.9117 25.9932 7.42473 22.6206 4.05215C22.367 3.79857 21.955 3.79857 21.7014 4.05215C21.4479 4.30573 21.4479 4.7177 21.7014 4.97128C24.5669 7.8367 24.5669 12.4997 21.7014 15.3651C21.4479 15.6187 21.4479 16.0307 21.7014 16.2843Z" fill="#F6F7F9" stroke="#F6F7F9" stroke-width="0.3"/>
</svg>
