<svg width="22" height="22" viewBox="0 0 22 22" fill="none" xmlns="http://www.w3.org/2000/svg">
<path d="M3.18825 6.6558L3.18818 6.65585C2.41772 7.17499 1.95833 8.03931 1.95833 8.96932V17.2506C1.95833 18.7896 3.21068 20.0418 4.75 20.0418H12.2183C12.5174 20.0418 12.76 20.2844 12.76 20.5834C12.76 20.8824 12.5174 21.125 12.2183 21.125H4.75C2.61348 21.125 0.875 19.3868 0.875 17.2506V8.96932C0.875 7.67968 1.5131 6.47849 2.58259 5.75783L3.18825 6.6558ZM3.18825 6.6558L9.43825 2.43894L9.43828 2.43891M3.18825 6.6558L9.43828 2.43891M9.43828 2.43891C10.3869 1.79839 11.6131 1.79839 12.5617 2.43891L12.5618 2.43894M9.43828 2.43891L12.5618 2.43894M12.5618 2.43894L18.8118 6.6558L18.8118 6.65585M12.5618 2.43894L18.8118 6.65585M18.8118 6.65585C19.5823 7.17498 20.0417 8.04012 20.0417 8.96932M18.8118 6.65585L20.0417 8.96932M20.0417 8.96932C20.0417 9.26833 20.2843 9.51092 20.5833 9.51092M20.0417 8.96932L20.5833 9.51092M20.5833 9.51092C20.8824 9.51092 21.125 9.26834 21.125 8.96932M20.5833 9.51092L21.125 8.96932M21.125 8.96932C21.125 7.67883 20.4869 6.47849 19.4174 5.75783L21.125 8.96932ZM8.83339 1.54099L2.58265 5.75779H19.4173L13.1674 1.54098C13.1674 1.54097 13.1674 1.54097 13.1674 1.54097C11.851 0.652587 10.1482 0.653434 8.83343 1.54097C8.83342 1.54097 8.8334 1.54098 8.83339 1.54099ZM19.5191 12.8724L19.5192 12.8727L19.5272 12.8687C19.9636 12.6482 20.2478 12.2247 20.2871 11.7373L20.2871 11.7371C20.3257 11.2478 20.1098 10.7857 19.6744 10.4741L19.6749 10.4735L19.6628 10.4667L16.2037 8.52618L16.2037 8.52606L16.1984 8.52339C15.7678 8.30812 15.2686 8.33211 14.8604 8.58285L14.8601 8.58302C14.4524 8.83494 14.2083 9.27263 14.2083 9.75253V20.5834C14.2083 20.8824 14.451 21.125 14.75 21.125C15.049 21.125 15.2917 20.8824 15.2917 20.5834V14.6425L19.5191 12.8724ZM19.0836 11.3803L19.0866 11.3819C19.2066 11.4723 19.2114 11.5971 19.2071 11.6515L19.3317 11.6614L19.2071 11.6515C19.2022 11.7127 19.1742 11.8315 19.0685 11.8881L15.2917 13.4691V9.75336C15.2917 9.60718 15.3859 9.53282 15.43 9.50551L15.43 9.50552L15.4314 9.50462C15.4559 9.48901 15.5065 9.46402 15.5663 9.45864C15.5707 9.46078 15.5758 9.46332 15.5818 9.46627C15.6091 9.47989 15.6485 9.50027 15.6987 9.52673C15.799 9.57953 15.9399 9.65519 16.1081 9.74625C16.4444 9.9283 16.8882 10.1711 17.3306 10.4141C17.7729 10.657 18.2137 10.9 18.5439 11.0822L18.9426 11.3024L19.0542 11.364L19.0836 11.3803ZM21.125 17.2506V14.3343C21.125 14.0353 20.8824 13.7927 20.5833 13.7927C20.2843 13.7927 20.0417 14.0353 20.0417 14.3343V17.2506C20.0417 18.7896 18.7893 20.0418 17.25 20.0418C16.951 20.0418 16.7083 20.2844 16.7083 20.5834C16.7083 20.8824 16.951 21.125 17.25 21.125C19.3865 21.125 21.125 19.3868 21.125 17.2506Z" fill="white" stroke="white" stroke-width="0.25"/>
</svg>
