<svg width="22" height="22" viewBox="0 0 22 22" fill="none" xmlns="http://www.w3.org/2000/svg">
<g clip-path="url(#clip0_2002_12554)">
<path d="M6.70833 15.1667V15.2917H6.83333H15.1667H15.2917V15.1667V6.83333V6.70833H15.1667H6.83333H6.70833V6.83333V15.1667ZM11 0.875C5.4168 0.875 0.875 5.4168 0.875 11C0.875 16.5832 5.4168 21.125 11 21.125C16.5832 21.125 21.125 16.5832 21.125 11C21.125 5.4168 16.5832 0.875 11 0.875ZM11 20.0417C6.01487 20.0417 1.95833 15.9851 1.95833 11C1.95833 6.01487 6.01487 1.95833 11 1.95833C15.9851 1.95833 20.0417 6.01487 20.0417 11C20.0417 15.9851 15.9851 20.0417 11 20.0417ZM14.2083 7.79167V14.2083H7.79167V7.79167H14.2083Z" fill="#585858" stroke="#585858" stroke-width="0.25"/>
</g>
<defs>
<clipPath id="clip0_2002_12554">
<rect width="22" height="22" fill="white"/>
</clipPath>
</defs>
</svg>
