<svg width="22" height="27" viewBox="0 0 22 27" fill="none" xmlns="http://www.w3.org/2000/svg">
<path d="M5.46951 25.6272L5.46868 25.6271C5.12511 25.5959 4.87125 25.2922 4.90251 24.9483M5.46951 25.6272L16.521 25.5016C16.796 25.4766 16.999 25.2336 16.974 24.9586L17.0985 24.9474C17.0985 24.9474 17.0985 24.9473 17.0985 24.9473C16.8116 21.7729 14.1906 19.3786 11.001 19.3786H10.9493L10.948 19.3799C7.78197 19.4057 5.18781 21.7911 4.90251 24.9483M5.46951 25.6272C5.80973 25.6559 6.11615 25.4056 6.14749 25.061L6.1475 25.0608M5.46951 25.6272L6.1475 25.0608M4.90251 24.9483L5.027 24.9596L4.90251 24.9484C4.90251 24.9484 4.90251 24.9483 4.90251 24.9483ZM6.1475 25.0608C6.23368 24.1027 6.59646 23.2412 7.14286 22.5313M6.1475 25.0608L7.14286 22.5313M7.14286 22.5313L9.14006 24.5285L7.14286 22.5313ZM21.0988 24.9579L21.0988 24.9579C20.8097 19.5881 16.3752 15.3806 11 15.3806C5.62449 15.3806 1.18873 19.5877 0.901178 24.959L0.901161 24.9593C0.883672 25.3041 1.14846 25.5977 1.49219 25.6165L1.49219 25.6165L1.49526 25.6166C1.82506 25.6265 2.13087 25.3741 2.14982 25.0254L2.14982 25.0253C2.40227 20.3176 6.28954 16.6296 11 16.6296C15.7105 16.6296 19.5987 20.3176 19.8502 25.0253L19.8502 25.0257C19.8689 25.3578 20.1436 25.6166 20.474 25.6166V25.6168L20.4813 25.6164C20.6878 25.6044 20.8512 25.531 20.9596 25.4055C21.0671 25.281 21.1076 25.1204 21.0988 24.9579ZM11.9788 23.6421C11.685 23.4833 11.3547 23.3796 11 23.3796C10.6453 23.3796 10.315 23.4833 10.0212 23.6421L8.02949 21.6504C8.85294 21.0146 9.87746 20.6296 11 20.6296C12.1225 20.6296 13.1471 21.0146 13.9705 21.6504L11.9788 23.6421ZM11 13.6296C14.378 13.6296 17.125 10.8827 17.125 7.50464C17.125 4.1266 14.378 1.37964 11 1.37964C7.62196 1.37964 4.875 4.1266 4.875 7.50464C4.875 10.8827 7.62196 13.6296 11 13.6296ZM11 2.62964C13.688 2.62964 15.875 4.81667 15.875 7.50464C15.875 10.1926 13.688 12.3796 11 12.3796C8.31204 12.3796 6.125 10.1926 6.125 7.50464C6.125 4.81667 8.31204 2.62964 11 2.62964Z" fill="#F6F7F9" stroke="#F6F7F9" stroke-width="0.25"/>
</svg>
