<svg width="22" height="22" viewBox="0 0 22 22" fill="none" xmlns="http://www.w3.org/2000/svg">
<g clip-path="url(#clip0_2387_13142)">
<path d="M16.1696 21.9808L16.2047 22.1007C16.5148 22.0098 16.6913 21.6864 16.6002 21.3771L16.558 21.2337L16.5545 21.2355C15.8001 18.9033 13.5346 17.2926 10.9977 17.2926C8.40945 17.2926 6.10463 18.9693 5.39707 21.378M16.1696 21.9808L16.2052 22.1005C16.1511 22.1167 16.096 22.125 16.0403 22.125C15.7878 22.125 15.555 21.9609 15.4812 21.7059C14.9192 19.7968 13.0784 18.4583 10.9987 18.4583C8.91881 18.4583 7.07788 19.797 6.51598 21.7062L6.39607 21.6709M16.1696 21.9808C16.3698 21.922 16.4989 21.7404 16.4991 21.5428L6.39607 21.6709M16.1696 21.9808C16.1265 21.9936 16.0834 22 16.0403 22C15.8414 22 15.659 21.8708 15.6012 21.6709C15.0228 19.7056 13.1308 18.3333 10.9987 18.3333C8.86648 18.3333 6.97448 19.7056 6.39607 21.6709M6.39607 21.6709L6.51614 21.7057C6.42603 22.017 6.09909 22.1914 5.79261 22.1016L5.79256 22.1016C5.48251 22.0107 5.30604 21.6873 5.39707 21.378M5.39707 21.378L5.51698 21.4133M5.39707 21.378C5.39706 21.3781 5.39706 21.3781 5.39705 21.3781L5.51698 21.4133M5.51698 21.4133C5.44548 21.6563 5.5839 21.9102 5.82773 21.9817L16.4414 21.2921C15.7103 19.004 13.4895 17.4176 10.9977 17.4176C8.46223 17.4176 6.20815 19.0603 5.51698 21.4133ZM0.293882 13.8505C0.348042 13.8667 0.403135 13.875 0.458817 13.875C0.711343 13.875 0.944046 13.7109 1.01789 13.4559C1.57988 11.5469 3.42073 10.2083 5.50048 10.2083C5.82285 10.2083 6.0829 9.94671 6.0829 9.625C6.0829 9.30296 5.8216 9.04167 5.49957 9.04167C2.91036 9.04167 0.605484 10.7184 -0.101129 13.1272L0.0188174 13.1624L-0.101096 13.1271C-0.192074 13.4362 -0.0158546 13.7594 0.293882 13.8505ZM0.293882 13.8505L0.329567 13.7308M0.293882 13.8505C0.294053 13.8506 0.294223 13.8506 0.294394 13.8507L0.329567 13.7308M0.329567 13.7308C0.372651 13.7436 0.415734 13.75 0.458817 13.75C0.657734 13.75 0.840151 13.6208 0.897901 13.4209L0.329567 13.7308ZM22.1003 13.1272C21.3927 10.7184 19.0879 9.04167 16.4996 9.04167C16.1775 9.04167 15.9162 9.30296 15.9162 9.625C15.9162 9.94704 16.1775 10.2083 16.4996 10.2083C18.5784 10.2083 20.4201 11.5469 20.9821 13.4559C21.0561 13.7123 21.2901 13.875 21.5412 13.875C21.5968 13.875 21.6518 13.8667 21.7059 13.8506C22.0162 13.7595 22.1911 13.436 22.1003 13.1272ZM14.7912 11.9167C14.7912 9.82546 13.0908 8.125 10.9996 8.125C8.90837 8.125 7.2079 9.82546 7.2079 11.9167C7.2079 14.0079 8.90837 15.7083 10.9996 15.7083C13.0908 15.7083 14.7912 14.0079 14.7912 11.9167ZM10.9996 14.5417C9.55244 14.5417 8.37457 13.3638 8.37457 11.9167C8.37457 10.4695 9.55244 9.29167 10.9996 9.29167C12.4467 9.29167 13.6246 10.4695 13.6246 11.9167C13.6246 13.3638 12.4467 14.5417 10.9996 14.5417ZM16.4996 -0.125C14.4084 -0.125 12.7079 1.57546 12.7079 3.66667C12.7079 5.75787 14.4084 7.45833 16.4996 7.45833C18.5908 7.45833 20.2912 5.75787 20.2912 3.66667C20.2912 1.57546 18.5908 -0.125 16.4996 -0.125ZM16.4996 6.29167C15.0524 6.29167 13.8746 5.1138 13.8746 3.66667C13.8746 2.21954 15.0524 1.04167 16.4996 1.04167C17.9467 1.04167 19.1246 2.21954 19.1246 3.66667C19.1246 5.1138 17.9467 6.29167 16.4996 6.29167ZM5.49957 -0.125C3.40837 -0.125 1.7079 1.57546 1.7079 3.66667C1.7079 5.75787 3.40837 7.45833 5.49957 7.45833C7.59077 7.45833 9.29123 5.75787 9.29123 3.66667C9.29123 1.57546 7.59077 -0.125 5.49957 -0.125ZM5.49957 6.29167C4.05244 6.29167 2.87457 5.1138 2.87457 3.66667C2.87457 2.21954 4.05244 1.04167 5.49957 1.04167C6.9467 1.04167 8.12457 2.21954 8.12457 3.66667C8.12457 5.1138 6.9467 6.29167 5.49957 6.29167Z" fill="#4F525F" stroke="#4F525F" stroke-width="0.25"/>
</g>
<defs>
<clipPath id="clip0_2387_13142">
<rect width="22" height="22" fill="white"/>
</clipPath>
</defs>
</svg>
