<svg width="26" height="26" viewBox="0 0 26 26" fill="none" xmlns="http://www.w3.org/2000/svg">
<path d="M23.7769 18.3109L23.7973 18.2943C23.8693 18.2197 23.8977 18.1 23.8585 17.9928C23.8165 17.878 23.7063 17.8009 23.5838 17.8009H20.8328C20.5684 17.8009 20.3318 17.6349 20.244 17.3855C20.244 17.3854 20.2439 17.3854 20.2439 17.3853L19.2719 14.6569C19.2717 14.6566 19.2716 14.6563 19.2715 14.656C19.2369 14.5653 19.1323 14.5029 19.0008 14.5029C18.8705 14.5029 18.7643 14.5645 18.7273 14.6627C18.7272 14.663 18.7271 14.6632 18.727 14.6635L17.7566 17.3868L17.7566 17.3869C17.6679 17.6355 17.4328 17.8019 17.1678 17.8019H14.4168C14.2951 17.8019 14.1851 17.8783 14.1432 17.9928L14.143 17.9934C14.1005 18.1077 14.1346 18.2367 14.2258 18.3148C14.2261 18.315 14.2264 18.3153 14.2267 18.3155L16.3964 20.0806L23.7769 18.3109ZM23.7769 18.3109L21.6081 20.0778L23.7769 18.3109ZM18.6573 22.013L18.6581 22.0125C18.8659 21.8756 19.1368 21.8725 19.3462 22.0092L21.8699 23.653C21.9728 23.7198 22.1086 23.7151 22.2105 23.6381C22.3065 23.5653 22.3465 23.4363 22.3076 23.3183C22.3075 23.318 22.3074 23.3177 22.3073 23.3174L21.4131 20.7699C21.4131 20.7697 21.413 20.7695 21.4129 20.7694C21.3243 20.5202 21.4034 20.2439 21.6079 20.0779L18.6573 22.013ZM18.6573 22.013L16.1757 23.6747C16.1756 23.6748 16.1756 23.6748 16.1755 23.6749C16.0754 23.7412 15.935 23.738 15.841 23.6657L15.8392 23.6643M18.6573 22.013L15.8392 23.6643M15.8392 23.6643C15.7397 23.5908 15.6996 23.4615 15.7338 23.3524C15.7339 23.3521 15.7339 23.3519 15.734 23.3516L16.5955 20.7623L16.5956 20.762M15.8392 23.6643L16.5956 20.762M16.5956 20.762C16.6766 20.5164 16.5985 20.244 16.3967 20.0809L16.5956 20.762ZM20.4446 14.23L20.4446 14.2299L20.4439 14.2281C20.2197 13.6284 19.6401 13.2249 18.9988 13.2249C18.3572 13.2249 17.7778 13.6287 17.5517 14.2352L17.5511 14.2369L16.7267 16.5529H14.4168C13.7725 16.5529 13.1917 16.9585 12.9696 17.5616C12.7462 18.1673 12.9273 18.8536 13.4271 19.2763L13.4289 19.2778L15.274 20.7793L14.5443 22.9693L14.5442 22.9693L14.5435 22.9716C14.3489 23.5947 14.5682 24.2767 15.0907 24.6667C15.3555 24.8662 15.684 24.9749 16.0148 24.9749C16.3216 24.9749 16.6188 24.8845 16.8724 24.7147L19.0118 23.2826L21.1906 24.7016L21.191 24.7018C21.7393 25.0565 22.4528 25.0292 22.9737 24.6312L22.9742 24.6308C23.4927 24.2311 23.7009 23.5465 23.4936 22.9168L23.4936 22.9167L23.4928 22.9145L22.7409 20.7703L24.5758 19.2758L24.5758 19.2758L24.5774 19.2744C25.0705 18.8586 25.2533 18.1723 25.0323 17.567L25.0116 17.5103L25.0071 17.5088C24.7712 16.9342 24.2058 16.5529 23.5808 16.5529H21.2711L20.4446 14.23ZM9.99785 12.9749C13.3759 12.9749 16.1228 10.2279 16.1228 6.84985C16.1228 3.47182 13.3759 0.724854 9.99785 0.724854C6.61981 0.724854 3.87285 3.47182 3.87285 6.84985C3.87285 10.2279 6.61981 12.9749 9.99785 12.9749ZM9.99785 1.97485C12.6858 1.97485 14.8728 4.16189 14.8728 6.84985C14.8728 9.53782 12.6858 11.7249 9.99785 11.7249C7.30988 11.7249 5.12285 9.53782 5.12285 6.84985C5.12285 4.16189 7.30988 1.97485 9.99785 1.97485ZM10.9978 15.9749C11.3429 15.9749 11.6228 15.6949 11.6228 15.3499C11.6228 15.0048 11.3429 14.7249 10.9978 14.7249H10.4978C5.19081 14.7249 0.872849 19.0428 0.872849 24.3499C0.872849 24.6949 1.15281 24.9749 1.49785 24.9749C1.84288 24.9749 2.12285 24.6949 2.12285 24.3499C2.12285 19.7319 5.87988 15.9749 10.4978 15.9749H10.9978Z" fill="#F6F7F9" stroke="#F6F7F9" stroke-width="0.25"/>
</svg>
